<?xml version="1.0" encoding="UTF-8"?>
<!DOCTYPE svg PUBLIC "-//W3C//DTD SVG 1.1//EN" "http://www.w3.org/Graphics/SVG/1.1/DTD/svg11.dtd">
<!-- Creator: CorelDRAW X6 -->
<svg xmlns="http://www.w3.org/2000/svg" xml:space="preserve" width="11.0236in" height="8.26772in" version="1.1" style="shape-rendering:geometricPrecision; text-rendering:geometricPrecision; image-rendering:optimizeQuality; fill-rule:evenodd; clip-rule:evenodd"
viewBox="0 0 11024 8268"
 xmlns:xlink="http://www.w3.org/1999/xlink">
 <defs>
  <style type="text/css">
   <![CDATA[
    .str6 {stroke:#1A1A1A;stroke-width:3}
    .str4 {stroke:blue;stroke-width:39.3701}
    .str0 {stroke:#666666;stroke-width:39.3701}
    .str3 {stroke:gray;stroke-width:39.3701}
    .str1 {stroke:#999999;stroke-width:39.3701}
    .str2 {stroke:#E6E6E6;stroke-width:39.3701}
    .str5 {stroke:#1A1A1A;stroke-width:78.7402;stroke-linecap:round;stroke-linejoin:round}
    .fil9 {fill:none}
    .fil7 {fill:black}
    .fil8 {fill:blue}
    .fil3 {fill:#009933}
    .fil10 {fill:#1A1A1A}
    .fil2 {fill:#333333}
    .fil6 {fill:#666666}
    .fil0 {fill:gray}
    .fil5 {fill:#B3B3B3}
    .fil4 {fill:#CCCCCC}
    .fil1 {fill:#E6E6E6}
   ]]>
  </style>
 </defs>
 <g id="Layer_x0020_1">
  <metadata id="CorelCorpID_0Corel-Layer"/>
  <g id="_268886408">
   <rect class="fil0 str0" x="278" y="1252" width="6876" height="5740"/>
   <rect class="fil1" x="402" y="1788" width="6074" height="341"/>
   <rect class="fil1" x="402" y="6139" width="5538" height="341"/>
   <g>
    <polygon class="fil0" points="5641,6833 5641,7226 5430,7226 5430,6833 "/>
    <path class="fil2" d="M6573 7935l0 -615c0,-52 -54,-94 -119,-94l-1852 0c-66,0 -119,42 -119,94l0 615c0,52 53,95 119,95l1852 0c65,0 119,-43 119,-95z"/>
   </g>
   <g>
    <polygon class="fil0" points="5641,1435 5641,1042 5430,1042 5430,1435 "/>
    <path class="fil2" d="M6573 333l0 614c0,52 -54,95 -119,95l-1852 0c-66,0 -119,-43 -119,-95l0 -614c0,-52 53,-95 119,-95l1852 0c65,0 119,43 119,95z"/>
   </g>
   <rect class="fil0 str0" x="1163" y="1991" width="4367" height="4263" rx="202" ry="197"/>
   <g>
    <path class="fil3" d="M5742 3417l1085 0c63,0 115,41 115,91l0 1251c0,50 -52,91 -115,91l-1085 0c-63,0 -115,-41 -115,-91l0 -1251c0,-50 52,-91 115,-91z"/>
    <polygon class="fil4" points="6119,4033 6477,4033 6477,4391 6119,4391 "/>
    <polygon class="fil2" points="6153,4067 6443,4067 6443,4357 6153,4357 "/>
    <g>
     <polygon class="fil2" points="6613,3910 6613,3607 6833,3607 6833,3910 "/>
     <polygon class="fil5" points="6653,3896 6653,3621 6793,3621 6793,3896 "/>
    </g>
    <g>
     <polygon class="fil2" points="6613,4678 6613,4375 6833,4375 6833,4678 "/>
     <polygon class="fil5" points="6653,4664 6653,4389 6793,4389 6793,4664 "/>
    </g>
   </g>
   <path class="fil0 str0" d="M5860 1706l1315 0c37,0 67,30 67,67l0 4699c0,37 -30,67 -67,67l-1315 0c-36,0 -66,-30 -66,-67l0 -4699c0,-37 30,-67 66,-67zm343 797l511 0c15,0 26,12 26,26l0 3721c0,15 -11,26 -26,26l-511 0c-14,0 -26,-11 -26,-26l0 -3721c0,-14 12,-26 26,-26z"/>
   <g id="Raspberry_x0020_Pi">
    <g id="Raspberry">
     <path class="fil3" d="M3918 3866l1336 0c78,0 141,64 141,143l0 1962c0,78 -63,143 -141,143l-1336 0c-78,0 -142,-65 -142,-143l0 -1962c0,-79 64,-143 142,-143z"/>
     <polygon class="fil4" points="4269,5146 4777,5146 4777,5654 4269,5654 "/>
     <polygon class="fil2" points="4292,5169 4754,5169 4754,5631 4292,5631 "/>
     <path class="fil2" d="M3870 5089l241 0 0 899 -241 0 0 -899zm76 45c17,0 32,14 32,32 0,17 -15,31 -32,31 -17,0 -31,-14 -31,-31 0,-18 14,-32 31,-32zm91 0c17,0 31,14 31,32 0,17 -14,31 -31,31 -18,0 -32,-14 -32,-31 0,-18 14,-32 32,-32zm-91 95c17,0 32,14 32,31 0,17 -15,32 -32,32 -17,0 -31,-15 -31,-32 0,-17 14,-31 31,-31zm91 0c17,0 31,14 31,31 0,17 -14,32 -31,32 -18,0 -32,-15 -32,-32 0,-17 14,-31 32,-31zm-91 90c17,0 32,14 32,32 0,17 -15,31 -32,31 -17,0 -31,-14 -31,-31 0,-18 14,-32 31,-32zm91 0c17,0 31,14 31,32 0,17 -14,31 -31,31 -18,0 -32,-14 -32,-31 0,-18 14,-32 32,-32zm-91 95c17,0 32,14 32,31 0,17 -15,32 -32,32 -17,0 -31,-15 -31,-32 0,-17 14,-31 31,-31zm91 0c17,0 31,14 31,31 0,17 -14,32 -31,32 -18,0 -32,-15 -32,-32 0,-17 14,-31 32,-31zm-91 94c17,0 32,14 32,32 0,17 -15,31 -32,31 -17,0 -31,-14 -31,-31 0,-18 14,-32 31,-32zm91 0c17,0 31,14 31,32 0,17 -14,31 -31,31 -18,0 -32,-14 -32,-31 0,-18 14,-32 32,-32zm-91 91c17,0 32,14 32,31 0,18 -15,32 -32,32 -17,0 -31,-14 -31,-32 0,-17 14,-31 31,-31zm91 0c17,0 31,14 31,31 0,18 -14,32 -31,32 -18,0 -32,-14 -32,-32 0,-17 14,-31 32,-31zm-91 94c17,0 32,14 32,32 0,17 -15,31 -32,31 -17,0 -31,-14 -31,-31 0,-18 14,-32 31,-32zm91 0c17,0 31,14 31,32 0,17 -14,31 -31,31 -18,0 -32,-14 -32,-31 0,-18 14,-32 32,-32zm-91 95c17,0 32,14 32,31 0,17 -15,32 -32,32 -17,0 -31,-15 -31,-32 0,-17 14,-31 31,-31zm91 0c17,0 31,14 31,31 0,17 -14,32 -31,32 -18,0 -32,-15 -32,-32 0,-17 14,-31 32,-31zm-91 90c17,0 32,14 32,32 0,17 -15,31 -32,31 -17,0 -31,-14 -31,-31 0,-18 14,-32 31,-32zm91 0c17,0 31,14 31,32 0,17 -14,31 -31,31 -18,0 -32,-14 -32,-31 0,-18 14,-32 32,-32z"/>
     <polygon class="fil5" points="4218,3752 4626,3752 4626,4123 4218,4123 "/>
     <polygon class="fil4" points="4218,3752 4626,3752 4626,3636 4218,3636 "/>
     <polygon class="fil6" points="4320,3702 4369,3702 4369,3867 4320,3867 "/>
     <polygon class="fil6" points="4473,3702 4523,3702 4523,3867 4473,3867 "/>
     <polygon class="fil5" points="4820,3752 5332,3752 5332,4247 4820,4247 "/>
     <polygon class="fil4" points="4820,3752 5332,3752 5332,3694 4820,3694 "/>
     <polygon class="fil4" points="4272,4409 4526,4409 4526,4663 4272,4663 "/>
     <polygon class="fil2" points="4295,4432 4503,4432 4503,4640 4295,4640 "/>
     <polygon class="fil2" points="4283,5918 4889,5918 4889,6065 4283,6065 "/>
     <polygon class="fil5" points="4310,5945 4862,5945 4862,6038 4310,6038 "/>
     <polygon class="fil2" points="4733,4735 5339,4735 5339,4881 4733,4881 "/>
     <polygon class="fil5" points="4760,4762 5312,4762 5312,4855 4760,4855 "/>
     <polygon class="fil5" points="5488,4991 5488,5575 5189,5575 5189,4991 "/>
     <polygon class="fil4" points="5488,4991 5488,5575 5581,5575 5581,4991 "/>
     <polygon class="fil6" points="5528,5062 5528,5133 5395,5133 5395,5062 "/>
     <polygon class="fil6" points="5528,5443 5528,5514 5395,5514 5395,5443 "/>
     <polygon class="fil2" points="4760,6114 4412,6114 4412,6228 4760,6228 "/>
     <polygon class="fil7" points="4760,6228 4412,6228 4412,6312 4760,6312 "/>
    </g>
    <g id="Rpi">
     <path class="fil1" d="M4205 4899c-50,50 -33,81 -21,142 54,8 75,-7 97,-36l86 45c80,49 203,-52 214,-131 5,-39 -19,-63 -34,-90 -32,-42 -18,-33 -65,-61 -82,-28 -60,-33 -184,27 -17,-16 -82,-78 -110,-27 -13,24 -17,74 -1,105 1,2 2,4 3,6l15 20z"/>
     <path class="fil3" d="M4278 4934c-21,4 -14,1 -29,10l-20 20c14,-36 18,-18 19,-53 -93,-5 -64,178 18,89 25,-27 18,-36 12,-66z"/>
     <path class="fil3" d="M4243 4885l3 -12c0,-15 2,-2 -3,-17 -5,-16 -10,-16 -16,-38 47,57 18,39 50,45 16,-33 7,-64 -29,-82 -74,-37 -66,113 -5,104z"/>
     <path class="fil3" d="M4427 4939c-27,-24 -97,-42 -84,21 9,41 93,74 84,-21z"/>
     <path class="fil3" d="M4434 4925c27,55 92,13 71,-38 -21,-50 -97,-18 -71,38z"/>
     <path class="fil3" d="M4430 4825c-42,-30 -98,-9 -85,39 12,42 89,39 85,-39z"/>
     <path class="fil3" d="M4521 4845c12,-40 -26,-59 -71,-54 0,24 3,35 21,49 42,35 50,6 50,5z"/>
     <path class="fil3" d="M4517 4972c-1,0 -5,-33 -50,3 -14,11 -19,20 -18,41 39,16 77,-10 68,-44z"/>
     <path class="fil3" d="M4312 4940c33,-20 37,-56 2,-76 -24,21 -36,67 -2,76z"/>
     <path class="fil3" d="M4534 4945c30,7 49,-52 2,-79 -14,31 -16,45 -2,79z"/>
     <path class="fil3" d="M4438 5042c-12,-20 14,-11 -27,-25 -20,-6 -26,-2 -40,3 16,36 32,28 67,22z"/>
     <path class="fil3" d="M4442 4781c-5,-5 -2,-7 -15,-13 -12,-4 -13,-5 -26,-2 -19,5 -22,14 -27,26 35,5 44,4 68,-11z"/>
     <path class="fil3" d="M4354 4794c-37,8 -45,15 -52,55 33,-12 35,-18 52,-55z"/>
     <path class="fil3" d="M4346 5014c-15,-34 -18,-44 -47,-58 2,41 9,49 47,58z"/>
    </g>
   </g>
   <rect class="fil1" x="1678" y="2276" width="2538" height="1226" rx="157" ry="157"/>
   <circle class="fil4 str1" cx="2179" cy="2889" r="237"/>
   <circle class="fil5 str2" cx="2179" cy="2889" r="137"/>
   <rect class="fil0 str3" x="2986" y="2841" width="219.083" height="95.8386" rx="183" ry="197"/>
   <rect class="fil8 str4" x="3577" y="2841" width="215.5" height="95.8386" rx="180" ry="197"/>
   <rect class="fil8 str4" x="3872" y="2841" width="216.988" height="95.8386" rx="181" ry="197"/>
   <rect class="fil8 str4" x="3282" y="2841" width="218.933" height="95.8386" rx="182" ry="197"/>
   <rect class="fil8 str4" x="2612" y="2841" width="118.126" height="95.8386" rx="98" ry="197"/>
   <path class="fil9 str5" d="M1498 3119c-153,3 -183,-34 -185,158 0,226 1,679 1,759 -1,84 2,171 173,171l2047 0"/>
   <path class="fil10 str6" d="M1451 3233l0 -214c0,-10 17,-19 39,-19l147 0c22,0 39,9 39,19l0 214c0,11 -17,19 -39,19l-147 0c-22,0 -39,-8 -39,-19z"/>
   <path class="fil10 str6" d="M3536 4298l0 -213c0,-11 18,-20 39,-20l148 0c21,0 39,9 39,20l0 213c0,11 -18,20 -39,20l-148 0c-21,0 -39,-9 -39,-20z"/>
  </g>
 </g>
</svg>
