<?xml version="1.0" encoding="UTF-8"?>
<!DOCTYPE svg PUBLIC "-//W3C//DTD SVG 1.1//EN" "http://www.w3.org/Graphics/SVG/1.1/DTD/svg11.dtd">
<!-- Creator: CorelDRAW X6 -->
<svg xmlns="http://www.w3.org/2000/svg" xml:space="preserve" width="249mm" height="150mm" version="1.1" style="shape-rendering:geometricPrecision; text-rendering:geometricPrecision; image-rendering:optimizeQuality; fill-rule:evenodd; clip-rule:evenodd"
viewBox="0 0 24900 15000"
 xmlns:xlink="http://www.w3.org/1999/xlink">
 <defs>
  <style type="text/css">
   <![CDATA[
    .str8 {stroke:black;stroke-width:7.62}
    .str0 {stroke:black;stroke-width:20}
    .str2 {stroke:#CCCCCC;stroke-width:50}
    .str1 {stroke:white;stroke-width:50}
    .str6 {stroke:#999999;stroke-width:75}
    .str5 {stroke:#E3B14D;stroke-width:75}
    .str4 {stroke:#B3B3B3;stroke-width:100}
    .str3 {stroke:#B3B3B3;stroke-width:150}
    .str9 {stroke:black;stroke-width:250}
    .str7 {stroke:#CCCCCC;stroke-width:250}
    .fil9 {fill:none}
    .fil3 {fill:black}
    .fil6 {fill:blue}
    .fil18 {fill:#008095}
    .fil20 {fill:#112D37}
    .fil17 {fill:#32366B}
    .fil12 {fill:#4D4D4D}
    .fil21 {fill:#54737A}
    .fil1 {fill:#588664}
    .fil2 {fill:#627267}
    .fil4 {fill:#666666}
    .fil14 {fill:#7E7950}
    .fil0 {fill:gray}
    .fil15 {fill:#867903}
    .fil13 {fill:#999999}
    .fil11 {fill:#B3B3B3}
    .fil19 {fill:#CCCCCC}
    .fil16 {fill:#E3B14D}
    .fil5 {fill:#E6E6E6}
    .fil10 {fill:red}
    .fil8 {fill:white}
    .fil7 {fill:white;fill-rule:nonzero}
   ]]>
  </style>
 </defs>
 <g id="Layer_x0020_1">
  <metadata id="CorelCorpID_0Corel-Layer"/>
  <polygon class="fil0" points="3620,3526 2681,3526 2681,4063 3620,4063 "/>
  <polygon class="fil0" points="22223,3526 21258,3526 21258,4063 22223,4063 "/>
  <path class="fil1 str0" d="M4370 2212l16138 0c412,0 750,337 750,750l0 10019c0,413 -338,750 -750,750l-16138 0c-412,0 -750,-337 -750,-750l0 -10019c0,-413 338,-750 750,-750z"/>
  <path class="fil2" d="M8259 3204l8577 0c165,0 300,135 300,300l0 4574c0,165 -135,300 -300,300l-8577 0c-165,0 -300,-135 -300,-300l0 -4574c0,-165 135,-300 300,-300z"/>
  <g id="Powerbank">
   <path class="fil3" d="M16146 3400l3021 0c440,0 800,360 800,800l0 4648c0,440 -360,799 -800,799l-3021 0c-440,0 -800,-359 -800,-799l0 -4648c0,-440 360,-800 800,-800z"/>
   <path class="fil4" d="M16373 3712l2568 0c374,0 680,306 680,680l0 4263c0,374 -306,680 -680,680l-2568 0c-374,0 -680,-306 -680,-680l0 -4263c0,-374 306,-680 680,-680z"/>
   <path class="fil3" d="M16479 3868l2356 0c343,0 624,281 624,624l0 4063c0,343 -281,624 -624,624l-2356 0c-344,0 -624,-281 -624,-624l0 -4063c0,-343 280,-624 624,-624z"/>
   <path class="fil5" d="M16914 7606l1486 0c128,0 233,105 233,233l0 786c0,128 -105,233 -233,233l-1486 0c-128,0 -233,-105 -233,-233l0 -786c0,-128 105,-233 233,-233z"/>
   <path class="fil3" d="M17027 7825l1259 0c84,0 152,68 152,151l0 511c0,84 -68,152 -152,152l-1259 0c-83,0 -151,-68 -151,-152l0 -511c0,-83 68,-151 151,-151z"/>
   <path class="fil0" d="M17077 7913l1166 0c66,0 120,54 120,120l0 404c0,66 -54,120 -120,120l-1166 0c-66,0 -120,-54 -120,-120l0 -404c0,-66 54,-120 120,-120z"/>
   <path class="fil3" d="M17104 7945l1112 0c59,0 108,49 108,108l0 364c0,59 -49,108 -108,108l-1112 0c-59,0 -108,-49 -108,-108l0 -364c0,-59 49,-108 108,-108z"/>
   <path class="fil6" d="M17657 7641c46,0 84,38 84,85 0,46 -38,84 -84,84 -47,0 -84,-38 -84,-84 0,-47 37,-85 84,-85z"/>
   <path class="fil6" d="M18173 8664c47,0 84,38 84,84 0,47 -37,84 -84,84 -46,0 -84,-37 -84,-84 0,-46 38,-84 84,-84z"/>
   <path class="fil6" d="M17143 8664c47,0 84,38 84,84 0,47 -37,84 -84,84 -46,0 -84,-37 -84,-84 0,-46 38,-84 84,-84z"/>
   <path class="fil6" d="M17657 8661c46,0 84,38 84,85 0,46 -38,84 -84,84 -47,0 -84,-38 -84,-84 0,-47 37,-85 84,-85z"/>
   <path class="fil5" d="M17115 4396l1067 0c123,0 223,101 223,223l0 751c0,123 -100,223 -223,223l-1067 0c-123,0 -223,-100 -223,-223l0 -751c0,-122 100,-223 223,-223z"/>
   <path class="fil3" d="M17149 4449l999 0c112,0 204,91 204,203l0 685c0,112 -92,203 -204,203l-999 0c-112,0 -203,-91 -203,-203l0 -685c0,-112 91,-203 203,-203z"/>
   <path class="fil7 str1" d="M17835 5286l315 0 0 -287 -315 0c-23,0 -38,6 -46,18 -9,13 -13,34 -13,65l0 120c0,30 4,52 13,65 8,13 24,19 46,19zm407 -713l0 819 -443 0c-41,0 -70,-12 -88,-37 -18,-25 -27,-66 -27,-122l0 -183c0,-55 9,-95 27,-120 18,-25 47,-38 88,-38l81 0 -250 -319 136 0 223 319 161 0 0 -319 92 0zm-1123 708l388 0 0 -228 -345 0c-49,0 -83,-14 -101,-41 -18,-27 -27,-78 -27,-153l0 -92c0,-75 9,-127 27,-153 17,-27 51,-41 101,-41l468 0c136,0 140,29 157,62 7,16 70,52 36,52 -266,0 -196,0 -266,0l-440 0 0 247 344 0c50,0 84,13 101,40 18,27 27,78 27,153l0 72c0,74 -9,126 -27,153 -17,27 -51,40 -101,40l-292 0c-48,0 -82,-13 -101,-40 -18,-26 -28,-73 -28,-139l0 -18 79 -33 0 119z"/>
  </g>
  <g id="Wifi">
   <path class="fil3" d="M12439 10495c764,0 1383,620 1383,1383 0,764 -619,1383 -1383,1383 -764,0 -1383,-619 -1383,-1383 0,-763 619,-1383 1383,-1383zm-653 349c122,0 220,99 220,220 0,121 -98,220 -220,220 -121,0 -219,-99 -219,-220 0,-121 98,-220 219,-220zm1309 0c122,0 220,99 220,220 0,121 -98,220 -220,220 -121,0 -220,-99 -220,-220 0,-121 99,-220 220,-220zm83 703l29 0c110,0 200,90 200,200l0 658c0,110 -90,200 -200,200l-29 0c-110,0 -200,-90 -200,-200l0 -658c0,-110 90,-200 200,-200zm-1506 2l29 0c110,0 200,90 200,200l0 657c0,110 -90,200 -200,200l-29 0c-110,0 -200,-90 -200,-200l0 -657c0,-110 90,-200 200,-200z"/>
   <polygon class="fil3" points="13604,14903 11285,14903 11430,12264 11614,12095 13286,12095 13459,12264 "/>
   <polygon class="fil8" points="13546,14861 11343,14861 11481,12301 11656,12137 13244,12137 13408,12301 "/>
   <polygon class="fil3" points="13468,14340 13302,14507 11586,14507 11417,14340 11532,12308 11697,12178 13202,12178 13357,12308 "/>
   <line class="fil9 str2" x1="11453" y1="14761" x2="13443" y2= "14761" />
   <line class="fil9 str2" x1="11503" y1="14641" x2="13407" y2= "14641" />
   <path class="fil8" d="M12398 13592l-73 0 0 435 -516 407 443 0 146 -337 0 -505zm94 0l73 0 0 435 517 407 -443 0 -147 -337 0 -505z"/>
   <path class="fil7" d="M12593 13525l-303 0 0 -63c0,-15 1,-26 4,-33 4,-11 12,-20 22,-27 14,-10 31,-17 52,-22 21,-5 45,-7 72,-7 23,0 43,2 61,5 18,3 33,7 44,12 12,5 21,11 28,17 7,6 12,13 15,22 4,9 5,18 5,30l0 66zm-35 -25l0 -39c0,-12 -2,-21 -6,-28 -4,-7 -9,-13 -16,-17 -9,-5 -22,-10 -38,-13 -16,-3 -36,-5 -59,-5 -31,0 -56,3 -73,10 -17,6 -28,13 -34,22 -4,7 -6,17 -6,32l0 38 232 0zm-56 -149l-37 0 0 -69 37 0 0 69zm91 -96l-303 0 0 -24 268 0 0 -90 35 0 0 114zm-261 -141l-42 0 0 -22 42 0 0 22zm261 0l-220 0 0 -22 220 0 0 22zm0 -57l-220 0 0 -20 32 0c-24,-10 -36,-24 -36,-42 0,-8 2,-16 7,-22 5,-7 11,-12 19,-15 7,-4 16,-6 27,-7 7,-1 19,-2 36,-2l135 0 0 23 -133 0c-15,0 -27,1 -34,3 -8,1 -14,4 -18,9 -5,4 -7,10 -7,16 0,9 5,17 15,24 10,7 29,11 57,11l120 0 0 22zm0 -142l-303 0 0 -23 173 0 -90 -53 0 -29 82 50 138 -56 0 28 -112 44 25 16 87 0 0 23z"/>
   <polygon class="fil10" points="12325,12224 12565,12224 12565,12464 12325,12464 "/>
   <polygon class="fil10" points="12325,12514 12565,12514 12565,12754 12325,12754 "/>
   <line class="fil9 str2" x1="12645" y1="12754" x2="12645" y2= "12228" />
   <line class="fil9 str2" x1="12245" y1="12754" x2="12245" y2= "12228" />
   <polygon class="fil11" points="12077,12095 12835,12095 12794,11521 12114,11521 "/>
   <polygon class="fil3" points="12221,11644 12341,11644 12341,11970 12221,11970 "/>
   <polygon class="fil3" points="12571,11644 12691,11644 12691,11970 12571,11970 "/>
  </g>
  <g id="Webcam">
   <path class="fil3" d="M11354 749l0 0c278,0 507,228 507,507l0 1251c0,279 -229,507 -507,507l0 0c-279,0 -507,-228 -507,-507l0 -1251c0,-279 228,-507 507,-507zm-12 1572c96,0 174,78 174,174 0,96 -78,173 -174,173 -96,0 -174,-77 -174,-173 0,-96 78,-174 174,-174z"/>
   <path class="fil12" d="M11354 828l0 0c237,0 431,194 431,431l0 1244c0,238 -194,431 -431,431l0 0c-237,0 -431,-193 -431,-431l0 -1244c0,-237 194,-431 431,-431zm-12 1493c96,0 174,78 174,174 0,96 -78,173 -174,173 -96,0 -174,-77 -174,-173 0,-96 78,-174 174,-174z"/>
   <path class="fil3" d="M13524 749l0 0c279,0 507,228 507,507l0 1251c0,279 -228,507 -507,507l0 0c-279,0 -507,-228 -507,-507l0 -1251c0,-279 228,-507 507,-507zm-11 1572c96,0 173,78 173,174 0,96 -77,173 -173,173 -96,0 -174,-77 -174,-173 0,-96 78,-174 174,-174z"/>
   <path class="fil12" d="M13524 828l0 0c237,0 431,194 431,431l0 1244c0,238 -194,431 -431,431l0 0c-237,0 -431,-193 -431,-431l0 -1244c0,-237 194,-431 431,-431zm-11 1493c96,0 173,78 173,174 0,96 -77,173 -173,173 -96,0 -174,-77 -174,-173 0,-96 78,-174 174,-174z"/>
   <path class="fil3" d="M11147 107l2584 0c165,0 300,135 300,300l0 1142c0,165 -135,300 -300,300l-2584 0c-165,0 -300,-135 -300,-300l0 -1142c0,-165 135,-300 300,-300z"/>
   <path class="fil8" d="M11196 174l2485 0c149,0 270,121 270,270l0 1028c0,148 -121,270 -270,270l-2485 0c-148,0 -270,-122 -270,-270l0 -1028c0,-149 122,-270 270,-270z"/>
   <path class="fil3" d="M11229 227l2420 0c140,0 255,115 255,255l0 971c0,140 -115,255 -255,255l-2420 0c-140,0 -255,-115 -255,-255l0 -971c0,-140 115,-255 255,-255z"/>
   <path class="fil8" d="M11105 702l2667 0c99,0 179,81 179,179l0 682c0,98 -80,179 -179,179l-2667 0c-98,0 -179,-81 -179,-179l0 -682c0,-98 81,-179 179,-179z"/>
   <path class="fil3" d="M11135 754l2608 0c88,0 161,73 161,161l0 614c0,88 -73,161 -161,161l-2608 0c-89,0 -161,-73 -161,-161l0 -614c0,-88 72,-161 161,-161z"/>
   <path class="fil13" d="M12430 854l18 0c132,0 240,108 240,240l0 255c0,132 -108,240 -240,240l-18 0c-132,0 -240,-108 -240,-240l0 -255c0,-132 108,-240 240,-240z"/>
   <path class="fil12" d="M12432 914l14 0c105,0 192,87 192,192l0 231c0,106 -87,192 -192,192l-14 0c-106,0 -192,-86 -192,-192l0 -231c0,-105 86,-192 192,-192z"/>
   <path class="fil13" d="M13282 856l18 0c132,0 240,108 240,240l0 255c0,132 -108,240 -240,240l-18 0c-132,0 -240,-108 -240,-240l0 -255c0,-132 108,-240 240,-240z"/>
   <path class="fil12" d="M13284 916l14 0c105,0 192,87 192,192l0 231c0,106 -87,192 -192,192l-14 0c-106,0 -192,-86 -192,-192l0 -231c0,-105 86,-192 192,-192z"/>
   <path class="fil13" d="M11570 856l17 0c132,0 240,108 240,240l0 255c0,132 -108,240 -240,240l-17 0c-132,0 -240,-108 -240,-240l0 -255c0,-132 108,-240 240,-240z"/>
   <path class="fil12" d="M11572 916l14 0c105,0 192,87 192,192l0 231c0,106 -87,192 -192,192l-14 0c-106,0 -192,-86 -192,-192l0 -231c0,-105 86,-192 192,-192z"/>
  </g>
  <g id="Rueda_x0020_Der">
   <path class="fil14" d="M22526 1044l1968 0c166,0 302,135 302,301l0 4706c0,165 -136,301 -302,301l-1968 0c-166,0 -303,-136 -303,-301l0 -4706c0,-166 137,-301 303,-301z"/>
   <line class="fil9 str3" x1="23510" y1="1064" x2="23510" y2= "6352" />
   <path class="fil9 str4" d="M24782 1328l-1266 474m1266 61l-1312 491m1312 58l-1307 490m1307 48l-1259 471m1259 78l-1255 469m1255 67l-1312 491m1312 58l-1307 490m1307 47l-1259 472m1259 78l-1255 469m537 -5044l-548 206m-1277 274l1275 477m-1275 58l1321 495m-1321 54l1316 493m-1316 45l1268 474m-1268 75l1263 473m-1263 63l1321 495m-1321 54l1316 493m-1316 45l1268 474m-1268 75l1037 388m-913 -5185l1151 431"/>
   <path class="fil11" d="M22593 1309c79,0 143,64 143,143 0,78 -64,142 -143,142 -79,0 -143,-64 -143,-142 0,-79 64,-143 143,-143zm0 55c48,0 87,39 87,88 0,48 -39,87 -87,87 -48,0 -88,-39 -88,-87 0,-49 40,-88 88,-88z"/>
   <path class="fil11" d="M23073 1489c79,0 143,64 143,143 0,78 -64,142 -143,142 -79,0 -143,-64 -143,-142 0,-79 64,-143 143,-143zm0 55c48,0 87,39 87,88 0,48 -39,87 -87,87 -48,0 -88,-39 -88,-87 0,-49 40,-88 88,-88z"/>
   <path class="fil11" d="M22593 2379c79,0 143,64 143,143 0,78 -64,142 -143,142 -79,0 -143,-64 -143,-142 0,-79 64,-143 143,-143zm0 55c48,0 87,39 87,88 0,48 -39,87 -87,87 -48,0 -88,-39 -88,-87 0,-49 40,-88 88,-88z"/>
   <path class="fil11" d="M23073 2559c79,0 143,64 143,143 0,78 -64,142 -143,142 -79,0 -143,-64 -143,-142 0,-79 64,-143 143,-143zm0 55c48,0 87,39 87,88 0,48 -39,87 -87,87 -48,0 -88,-39 -88,-87 0,-49 40,-88 88,-88z"/>
   <path class="fil11" d="M22593 3459c79,0 143,64 143,143 0,78 -64,142 -143,142 -79,0 -143,-64 -143,-142 0,-79 64,-143 143,-143zm0 55c48,0 87,39 87,88 0,48 -39,87 -87,87 -48,0 -88,-39 -88,-87 0,-49 40,-88 88,-88z"/>
   <path class="fil11" d="M23073 3639c79,0 143,64 143,143 0,78 -64,142 -143,142 -79,0 -143,-64 -143,-142 0,-79 64,-143 143,-143zm0 55c48,0 87,39 87,88 0,48 -39,87 -87,87 -48,0 -88,-39 -88,-87 0,-49 40,-88 88,-88z"/>
   <path class="fil11" d="M22593 4549c79,0 143,64 143,143 0,78 -64,142 -143,142 -79,0 -143,-64 -143,-142 0,-79 64,-143 143,-143zm0 55c48,0 87,39 87,88 0,48 -39,87 -87,87 -48,0 -88,-39 -88,-87 0,-49 40,-88 88,-88z"/>
   <path class="fil11" d="M23073 4729c79,0 143,64 143,143 0,78 -64,142 -143,142 -79,0 -143,-64 -143,-142 0,-79 64,-143 143,-143zm0 55c48,0 87,39 87,88 0,48 -39,87 -87,87 -48,0 -88,-39 -88,-87 0,-49 40,-88 88,-88z"/>
   <path class="fil11" d="M22593 5629c79,0 143,64 143,143 0,78 -64,142 -143,142 -79,0 -143,-64 -143,-142 0,-79 64,-143 143,-143zm0 55c48,0 87,39 87,88 0,48 -39,87 -87,87 -48,0 -88,-39 -88,-87 0,-49 40,-88 88,-88z"/>
   <path class="fil11" d="M23073 5809c79,0 143,64 143,143 0,78 -64,142 -143,142 -79,0 -143,-64 -143,-142 0,-79 64,-143 143,-143zm0 55c48,0 87,39 87,88 0,48 -39,87 -87,87 -48,0 -88,-39 -88,-87 0,-49 40,-88 88,-88z"/>
   <path class="fil11" d="M24423 1609c-79,0 -143,64 -143,143 0,78 64,142 143,142 79,0 143,-64 143,-142 0,-79 -64,-143 -143,-143zm0 55c-48,0 -88,39 -88,88 0,48 40,87 88,87 48,0 87,-39 87,-87 0,-49 -39,-88 -87,-88z"/>
   <path class="fil11" d="M23943 1789c-79,0 -143,64 -143,143 0,78 64,142 143,142 79,0 143,-64 143,-142 0,-79 -64,-143 -143,-143zm0 55c-48,0 -88,39 -88,88 0,48 40,87 88,87 48,0 87,-39 87,-87 0,-49 -39,-88 -87,-88z"/>
   <path class="fil11" d="M24423 2679c-79,0 -143,64 -143,143 0,78 64,142 143,142 79,0 143,-64 143,-142 0,-79 -64,-143 -143,-143zm0 55c-48,0 -88,39 -88,88 0,48 40,87 88,87 48,0 87,-39 87,-87 0,-49 -39,-88 -87,-88z"/>
   <path class="fil11" d="M23943 2859c-79,0 -143,64 -143,143 0,78 64,142 143,142 79,0 143,-64 143,-142 0,-79 -64,-143 -143,-143zm0 55c-48,0 -88,39 -88,88 0,48 40,87 88,87 48,0 87,-39 87,-87 0,-49 -39,-88 -87,-88z"/>
   <path class="fil11" d="M24423 3759c-79,0 -143,64 -143,143 0,78 64,142 143,142 79,0 143,-64 143,-142 0,-79 -64,-143 -143,-143zm0 55c-48,0 -88,39 -88,88 0,48 40,87 88,87 48,0 87,-39 87,-87 0,-49 -39,-88 -87,-88z"/>
   <path class="fil11" d="M23943 3939c-79,0 -143,64 -143,143 0,78 64,142 143,142 79,0 143,-64 143,-142 0,-79 -64,-143 -143,-143zm0 55c-48,0 -88,39 -88,88 0,48 40,87 88,87 48,0 87,-39 87,-87 0,-49 -39,-88 -87,-88z"/>
   <path class="fil11" d="M24423 4849c-79,0 -143,64 -143,143 0,78 64,142 143,142 79,0 143,-64 143,-142 0,-79 -64,-143 -143,-143zm0 55c-48,0 -88,39 -88,88 0,48 40,87 88,87 48,0 87,-39 87,-87 0,-49 -39,-88 -87,-88z"/>
   <path class="fil11" d="M23943 5029c-79,0 -143,64 -143,143 0,78 64,142 143,142 79,0 143,-64 143,-142 0,-79 -64,-143 -143,-143zm0 55c-48,0 -88,39 -88,88 0,48 40,87 88,87 48,0 87,-39 87,-87 0,-49 -39,-88 -87,-88z"/>
   <path class="fil11" d="M24423 5929c-79,0 -143,64 -143,143 0,78 64,142 143,142 79,0 143,-64 143,-142 0,-79 -64,-143 -143,-143zm0 55c-48,0 -88,39 -88,88 0,48 40,87 88,87 48,0 87,-39 87,-87 0,-49 -39,-88 -87,-88z"/>
   <path class="fil11" d="M23943 6109c-79,0 -143,64 -143,143 0,38 15,73 40,99l205 0c25,-26 41,-61 41,-99 0,-79 -64,-143 -143,-143zm0 55c-48,0 -88,39 -88,88 0,48 40,87 88,87 48,0 87,-39 87,-87 0,-49 -39,-88 -87,-88z"/>
  </g>
  <g id="Rueda_x0020_Izq">
   <path class="fil14" d="M411 1080l1968 0c166,0 302,135 302,301l0 4706c0,165 -136,301 -302,301l-1968 0c-166,0 -302,-136 -302,-301l0 -4706c0,-166 136,-301 302,-301z"/>
   <line class="fil9 str3" x1="1395" y1="1100" x2="1395" y2= "6388" />
   <path class="fil9 str4" d="M2667 1364l-1266 474m1266 61l-1312 492m1312 58l-1307 489m1307 48l-1259 471m1259 78l-1254 470m1254 66l-1312 492m1312 58l-1307 489m1307 48l-1259 471m1259 78l-1254 470m537 -5044l-549 205m-1277 274l1275 477m-1275 58l1321 495m-1321 55l1317 493m-1317 44l1268 475m-1268 74l1264 473m-1264 63l1321 495m-1321 55l1317 492m-1317 45l1268 475m-1268 74l1037 388m-913 -5185l1151 431"/>
   <path class="fil11" d="M478 1345c79,0 143,64 143,143 0,79 -64,143 -143,143 -79,0 -143,-64 -143,-143 0,-79 64,-143 143,-143zm0 56c49,0 88,39 88,87 0,48 -39,87 -88,87 -48,0 -87,-39 -87,-87 0,-48 39,-87 87,-87z"/>
   <path class="fil11" d="M958 1525c79,0 143,64 143,143 0,79 -64,143 -143,143 -79,0 -143,-64 -143,-143 0,-79 64,-143 143,-143zm0 56c49,0 88,39 88,87 0,48 -39,87 -88,87 -48,0 -87,-39 -87,-87 0,-48 39,-87 87,-87z"/>
   <path class="fil11" d="M478 2415c79,0 143,64 143,143 0,79 -64,143 -143,143 -79,0 -143,-64 -143,-143 0,-79 64,-143 143,-143zm0 56c49,0 88,39 88,87 0,48 -39,87 -88,87 -48,0 -87,-39 -87,-87 0,-48 39,-87 87,-87z"/>
   <path class="fil11" d="M958 2595c79,0 143,64 143,143 0,79 -64,143 -143,143 -79,0 -143,-64 -143,-143 0,-79 64,-143 143,-143zm0 56c49,0 88,39 88,87 0,48 -39,87 -88,87 -48,0 -87,-39 -87,-87 0,-48 39,-87 87,-87z"/>
   <path class="fil11" d="M478 3495c79,0 143,64 143,143 0,79 -64,143 -143,143 -79,0 -143,-64 -143,-143 0,-79 64,-143 143,-143zm0 56c49,0 88,39 88,87 0,48 -39,87 -88,87 -48,0 -87,-39 -87,-87 0,-48 39,-87 87,-87z"/>
   <path class="fil11" d="M958 3675c79,0 143,64 143,143 0,79 -64,143 -143,143 -79,0 -143,-64 -143,-143 0,-79 64,-143 143,-143zm0 56c49,0 88,39 88,87 0,48 -39,87 -88,87 -48,0 -87,-39 -87,-87 0,-48 39,-87 87,-87z"/>
   <path class="fil11" d="M478 4585c79,0 143,64 143,143 0,79 -64,143 -143,143 -79,0 -143,-64 -143,-143 0,-79 64,-143 143,-143zm0 56c49,0 88,39 88,87 0,48 -39,87 -88,87 -48,0 -87,-39 -87,-87 0,-48 39,-87 87,-87z"/>
   <path class="fil11" d="M958 4765c79,0 143,64 143,143 0,79 -64,143 -143,143 -79,0 -143,-64 -143,-143 0,-79 64,-143 143,-143zm0 56c49,0 88,39 88,87 0,48 -39,87 -88,87 -48,0 -87,-39 -87,-87 0,-48 39,-87 87,-87z"/>
   <path class="fil11" d="M478 5665c79,0 143,64 143,143 0,79 -64,143 -143,143 -79,0 -143,-64 -143,-143 0,-79 64,-143 143,-143zm0 56c49,0 88,39 88,87 0,48 -39,87 -88,87 -48,0 -87,-39 -87,-87 0,-48 39,-87 87,-87z"/>
   <path class="fil11" d="M958 5845c79,0 143,64 143,143 0,79 -64,143 -143,143 -79,0 -143,-64 -143,-143 0,-79 64,-143 143,-143zm0 56c49,0 88,39 88,87 0,48 -39,87 -88,87 -48,0 -87,-39 -87,-87 0,-48 39,-87 87,-87z"/>
   <path class="fil11" d="M2308 1645c-79,0 -143,64 -143,143 0,79 64,143 143,143 79,0 143,-64 143,-143 0,-79 -64,-143 -143,-143zm0 56c-48,0 -87,39 -87,87 0,48 39,87 87,87 49,0 88,-39 88,-87 0,-48 -39,-87 -88,-87z"/>
   <path class="fil11" d="M1828 1825c-79,0 -143,64 -143,143 0,79 64,143 143,143 79,0 143,-64 143,-143 0,-79 -64,-143 -143,-143zm0 56c-48,0 -87,39 -87,87 0,48 39,87 87,87 49,0 88,-39 88,-87 0,-48 -39,-87 -88,-87z"/>
   <path class="fil11" d="M2308 2715c-79,0 -143,64 -143,143 0,79 64,143 143,143 79,0 143,-64 143,-143 0,-79 -64,-143 -143,-143zm0 56c-48,0 -87,39 -87,87 0,48 39,87 87,87 49,0 88,-39 88,-87 0,-48 -39,-87 -88,-87z"/>
   <path class="fil11" d="M1828 2895c-79,0 -143,64 -143,143 0,79 64,143 143,143 79,0 143,-64 143,-143 0,-79 -64,-143 -143,-143zm0 56c-48,0 -87,39 -87,87 0,48 39,87 87,87 49,0 88,-39 88,-87 0,-48 -39,-87 -88,-87z"/>
   <path class="fil11" d="M2308 3795c-79,0 -143,64 -143,143 0,79 64,143 143,143 79,0 143,-64 143,-143 0,-79 -64,-143 -143,-143zm0 56c-48,0 -87,39 -87,87 0,48 39,87 87,87 49,0 88,-39 88,-87 0,-48 -39,-87 -88,-87z"/>
   <path class="fil11" d="M1828 3975c-79,0 -143,64 -143,143 0,79 64,143 143,143 79,0 143,-64 143,-143 0,-79 -64,-143 -143,-143zm0 56c-48,0 -87,39 -87,87 0,48 39,87 87,87 49,0 88,-39 88,-87 0,-48 -39,-87 -88,-87z"/>
   <path class="fil11" d="M2308 4885c-79,0 -143,64 -143,143 0,79 64,143 143,143 79,0 143,-64 143,-143 0,-79 -64,-143 -143,-143zm0 56c-48,0 -87,39 -87,87 0,48 39,87 87,87 49,0 88,-39 88,-87 0,-48 -39,-87 -88,-87z"/>
   <path class="fil11" d="M1828 5065c-79,0 -143,64 -143,143 0,79 64,143 143,143 79,0 143,-64 143,-143 0,-79 -64,-143 -143,-143zm0 56c-48,0 -87,39 -87,87 0,48 39,87 87,87 49,0 88,-39 88,-87 0,-48 -39,-87 -88,-87z"/>
   <path class="fil11" d="M2308 5965c-79,0 -143,64 -143,143 0,79 64,143 143,143 79,0 143,-64 143,-143 0,-79 -64,-143 -143,-143zm0 56c-48,0 -87,39 -87,87 0,48 39,87 87,87 49,0 88,-39 88,-87 0,-48 -39,-87 -88,-87z"/>
   <path class="fil11" d="M1828 6145c-79,0 -143,64 -143,143 0,39 16,74 41,99l205 0c25,-25 40,-60 40,-99 0,-79 -64,-143 -143,-143zm0 56c-48,0 -87,39 -87,87 0,48 39,87 87,87 49,0 88,-39 88,-87 0,-48 -39,-87 -88,-87z"/>
  </g>
  <g id="Board">
   <path class="fil15" d="M10904 3147l3061 0c165,0 300,135 300,300l0 3630c0,165 -135,300 -300,300l-3061 0c-165,0 -300,-135 -300,-300l0 -3630c0,-165 135,-300 300,-300z"/>
   <path class="fil16" d="M11057 3316l2755 0c149,0 270,121 270,270l0 3352c0,148 -121,270 -270,270l-2755 0c-148,0 -270,-122 -270,-270l0 -3352c0,-149 122,-270 270,-270zm46 63l2663 0c144,0 261,118 261,261l0 3244c0,143 -117,260 -261,260l-2663 0c-143,0 -261,-117 -261,-260l0 -3244c0,-143 118,-261 261,-261z"/>
   <path class="fil16" d="M11158 4062c74,0 134,60 134,134 0,74 -60,134 -134,134 -74,0 -135,-60 -135,-134 0,-74 61,-134 135,-134z"/>
   <path class="fil16" d="M11158 3692c74,0 134,60 134,134 0,74 -60,134 -134,134 -74,0 -135,-60 -135,-134 0,-74 61,-134 135,-134z"/>
   <path class="fil16" d="M11158 4432c74,0 134,60 134,134 0,74 -60,134 -134,134 -74,0 -135,-60 -135,-134 0,-74 61,-134 135,-134z"/>
   <path class="fil16" d="M11158 5102c74,0 134,60 134,134 0,74 -60,134 -134,134 -74,0 -135,-60 -135,-134 0,-74 61,-134 135,-134z"/>
   <path class="fil16" d="M11158 5472c74,0 134,60 134,134 0,74 -60,134 -134,134 -74,0 -135,-60 -135,-134 0,-74 61,-134 135,-134z"/>
   <path class="fil16" d="M13686 3692c75,0 135,60 135,134 0,74 -60,134 -135,134 -74,0 -134,-60 -134,-134 0,-74 60,-134 134,-134z"/>
   <path class="fil16" d="M13296 3692c75,0 135,60 135,134 0,74 -60,134 -135,134 -74,0 -134,-60 -134,-134 0,-74 60,-134 134,-134z"/>
   <polyline class="fil9 str5" points="11158,3796 11394,3572 13476,3572 13686,3796 "/>
   <polyline class="fil9 str5" points="11158,4196 11544,3818 13296,3826 "/>
   <path class="fil16" d="M13677 4432c75,0 135,60 135,134 0,74 -60,134 -135,134 -74,0 -134,-60 -134,-134 0,-74 60,-134 134,-134z"/>
   <line class="fil9 str5" x1="11158" y1="4566" x2="13677" y2= "4566" />
   <path class="fil11" d="M13775 5263l538 0 0 972 -538 0 0 -529 0 112 154 0 0 -120 1 0 0 -200 -1 0 0 -115 -154 0 0 83 0 -203zm0 710l154 0 0 145 -154 0 0 -145z"/>
   <polygon class="fil3" points="14313,5749 14535,5749 14535,5427 14313,5427 "/>
   <path class="fil16" d="M13677 5186c75,0 135,60 135,135 0,74 -60,134 -135,134 -74,0 -134,-60 -134,-134 0,-75 60,-135 134,-135z"/>
   <path class="fil16" d="M13670 5754c74,0 134,60 134,134 0,74 -60,134 -134,134 -74,0 -134,-60 -134,-134 0,-74 60,-134 134,-134z"/>
   <path class="fil16" d="M13670 6043c74,0 134,60 134,134 0,74 -60,134 -134,134 -74,0 -134,-60 -134,-134 0,-74 60,-134 134,-134z"/>
   <polyline class="fil9 str5" points="13670,6177 13381,6177 13064,6495 "/>
   <polyline class="fil9 str5" points="11158,5606 12717,5610 12843,5735 12843,6495 "/>
   <path class="fil17" d="M13016 6120c207,0 375,168 375,375 0,207 -168,375 -375,375 -208,0 -376,-168 -376,-375 0,-207 168,-375 376,-375z"/>
   <path class="fil8" d="M13016 6213c155,0 281,126 281,282 0,155 -126,281 -281,281 -156,0 -282,-126 -282,-281 0,-156 126,-282 282,-282z"/>
   <line class="fil9 str6" x1="13016" y1="6263" x2="13016" y2= "6726" />
   <line class="fil9 str6" x1="12784" y1="6495" x2="13247" y2= "6495" />
   <polyline class="fil9 str5" points="13750,5888 13317,5889 12663,5234 11238,5236 "/>
   <polygon class="fil11" points="11859,4467 11976,4467 11976,4664 11859,4664 "/>
   <polygon class="fil11" points="11859,5137 11976,5137 11976,5334 11859,5334 "/>
   <polygon class="fil11" points="12921,4468 13038,4468 13038,4665 12921,4665 "/>
   <polygon class="fil11" points="12921,5134 13038,5134 13038,5331 12921,5331 "/>
   <polygon class="fil11" points="12920,4807 13038,4807 13038,5004 12920,5004 "/>
   <polygon class="fil3" points="11976,4155 12921,4155 12921,5409 11976,5409 "/>
   <polygon class="fil11" points="11859,4797 11976,4797 11976,4994 11859,4994 "/>
   <path class="fil3" d="M13662 6492l368 0c55,0 100,45 100,100l0 523c0,55 -45,100 -100,100l-368 0c-55,0 -100,-45 -100,-100l0 -523c0,-55 45,-100 100,-100z"/>
   <path class="fil11" d="M13843 6572c61,0 111,49 111,110 0,61 -50,110 -111,110 -61,0 -110,-49 -110,-110 0,-61 49,-110 110,-110z"/>
   <path class="fil11" d="M13843 6922c61,0 111,49 111,110 0,61 -50,110 -111,110 -61,0 -110,-49 -110,-110 0,-61 49,-110 110,-110z"/>
  </g>
  <g id="Raspberry">
   <path class="fil18" d="M5349 3352l3770 0c220,0 400,180 400,400l0 5489c0,220 -180,400 -400,400l-3770 0c-220,0 -400,-180 -400,-400l0 -5489c0,-220 180,-400 400,-400z"/>
   <polygon class="fil19" points="6358,6893 7649,6893 7649,8184 6358,8184 "/>
   <polygon class="fil20" points="6417,6952 7591,6952 7591,8126 6417,8126 "/>
   <path class="fil20" d="M5294 6879l614 0 0 2283 -614 0 0 -2283zm195 114c44,0 80,36 80,80 0,44 -36,80 -80,80 -45,0 -80,-36 -80,-80 0,-44 35,-80 80,-80zm230 0c44,0 80,36 80,80 0,44 -36,80 -80,80 -45,0 -80,-36 -80,-80 0,-44 35,-80 80,-80zm-230 240c44,0 80,36 80,80 0,44 -36,80 -80,80 -45,0 -80,-36 -80,-80 0,-44 35,-80 80,-80zm230 0c44,0 80,36 80,80 0,44 -36,80 -80,80 -45,0 -80,-36 -80,-80 0,-44 35,-80 80,-80zm-230 230c44,0 80,36 80,80 0,44 -36,80 -80,80 -45,0 -80,-36 -80,-80 0,-44 35,-80 80,-80zm230 0c44,0 80,36 80,80 0,44 -36,80 -80,80 -45,0 -80,-36 -80,-80 0,-44 35,-80 80,-80zm-230 240c44,0 80,36 80,80 0,44 -36,80 -80,80 -45,0 -80,-36 -80,-80 0,-44 35,-80 80,-80zm230 0c44,0 80,36 80,80 0,44 -36,80 -80,80 -45,0 -80,-36 -80,-80 0,-44 35,-80 80,-80zm-230 240c44,0 80,36 80,80 0,44 -36,80 -80,80 -45,0 -80,-36 -80,-80 0,-44 35,-80 80,-80zm230 0c44,0 80,36 80,80 0,44 -36,80 -80,80 -45,0 -80,-36 -80,-80 0,-44 35,-80 80,-80zm-230 230c44,0 80,36 80,80 0,44 -36,80 -80,80 -45,0 -80,-36 -80,-80 0,-44 35,-80 80,-80zm230 0c44,0 80,36 80,80 0,44 -36,80 -80,80 -45,0 -80,-36 -80,-80 0,-44 35,-80 80,-80zm-230 240c44,0 80,36 80,80 0,44 -36,80 -80,80 -45,0 -80,-36 -80,-80 0,-44 35,-80 80,-80zm230 0c44,0 80,36 80,80 0,44 -36,80 -80,80 -45,0 -80,-36 -80,-80 0,-44 35,-80 80,-80zm-230 240c44,0 80,36 80,80 0,44 -36,80 -80,80 -45,0 -80,-36 -80,-80 0,-44 35,-80 80,-80zm230 0c44,0 80,36 80,80 0,44 -36,80 -80,80 -45,0 -80,-36 -80,-80 0,-44 35,-80 80,-80zm-230 230c44,0 80,36 80,80 0,44 -36,80 -80,80 -45,0 -80,-36 -80,-80 0,-44 35,-80 80,-80zm230 0c44,0 80,36 80,80 0,44 -36,80 -80,80 -45,0 -80,-36 -80,-80 0,-44 35,-80 80,-80z"/>
   <polygon class="fil21" points="5349,3352 6385,3352 6385,4295 5349,4295 "/>
   <polygon class="fil19" points="5349,3352 6385,3352 6385,3059 5349,3059 "/>
   <polygon class="fil4" points="5607,3226 5733,3226 5733,3646 5607,3646 "/>
   <polygon class="fil4" points="5997,3226 6123,3226 6123,3646 5997,3646 "/>
   <polygon class="fil21" points="6649,3352 7685,3352 7685,4295 6649,4295 "/>
   <polygon class="fil19" points="6649,3352 7685,3352 7685,3059 6649,3059 "/>
   <polygon class="fil4" points="6907,3226 7033,3226 7033,3646 6907,3646 "/>
   <polygon class="fil4" points="7297,3226 7423,3226 7423,3646 7297,3646 "/>
   <polygon class="fil21" points="7969,3352 9268,3352 9268,4610 7969,4610 "/>
   <polygon class="fil19" points="7969,3352 9268,3352 9268,3205 7969,3205 "/>
   <polygon class="fil19" points="6365,5021 7011,5021 7011,5666 6365,5666 "/>
   <polygon class="fil20" points="6424,5079 6952,5079 6952,5608 6424,5608 "/>
   <polygon class="fil20" points="6464,9145 8004,9145 8004,9517 6464,9517 "/>
   <polygon class="fil21" points="6534,9212 7934,9212 7934,9449 6534,9449 "/>
   <polygon class="fil20" points="7847,5849 9387,5849 9387,6221 7847,6221 "/>
   <polygon class="fil21" points="7917,5917 9317,5917 9317,6154 7917,6154 "/>
   <polygon class="fil20" points="8481,4970 9508,4970 9508,5557 8481,5557 "/>
   <polygon class="fil3" points="9681,5100 9508,5100 9508,5427 9681,5427 "/>
   <polygon class="fil21" points="9023,5084 9393,5084 9393,5443 9023,5443 "/>
   <polygon class="fil21" points="9525,6500 9525,7982 8766,7982 8766,6500 "/>
   <polygon class="fil19" points="9525,6500 9525,7982 9761,7982 9761,6500 "/>
   <polygon class="fil4" points="9626,6680 9626,6860 9289,6860 9289,6680 "/>
   <polygon class="fil4" points="9626,7648 9626,7828 9289,7828 9289,7648 "/>
   <polygon class="fil3" points="7675,9641 6792,9641 6792,9823 7675,9823 "/>
  </g>
  <path class="fil9 str7" d="M14130 6853l425 0c87,0 132,-8 190,-61 56,-55 67,-104 69,-189l0 -4552c-11,-87 -14,-118 -81,-213 -87,-77 -125,-99 -243,-106l-459 0"/>
  <path class="fil5 str8" d="M10847 1393c-203,113 -310,184 -504,375 -203,188 -282,287 -529,656l0 0c-552,681 -950,1214 -1373,2044 -257,643 -332,831 -458,1567l1263 0c28,-741 49,-1171 190,-2096 90,-635 147,-730 378,-1515l0 0c132,-418 223,-688 434,-1049 212,-363 313,-475 599,-811l0 829z"/>
  <polygon class="fil19" points="8582,9641 8968,9641 8968,9774 8582,9774 "/>
  <polygon class="fil19" points="16083,9647 17041,9647 17041,9761 16083,9761 "/>
  <path class="fil3" d="M8592 9774l357 0c55,0 100,45 100,100l0 182c0,55 -45,100 -100,100l-357 0c-55,0 -100,-45 -100,-100l0 -182c0,-55 45,-100 100,-100z"/>
  <path class="fil9 str9" d="M8764 10156l0 312c0,86 13,132 93,189 84,56 159,67 289,70l1228 0c139,-9 210,-15 307,-110 74,-79 78,-134 89,-280 9,-166 24,-238 102,-310 91,-81 173,-82 295,-81l2388 0c150,0 250,0 354,93 86,66 94,155 94,280 7,137 10,231 89,318 88,96 179,90 314,90l1671 0c133,-11 180,-15 325,-82 117,-86 151,-125 161,-243l0 -67"/>
  <path class="fil3" d="M6625 2662l1084 0c55,0 100,45 100,100l0 373c0,55 -45,100 -100,100l-1084 0c-55,0 -100,-45 -100,-100l0 -373c0,-55 45,-100 100,-100z"/>
  <path class="fil3" d="M16020 9761l1084 0c55,0 100,45 100,100l0 374c0,55 -45,100 -100,100l-1084 0c-55,0 -100,-45 -100,-100l0 -374c0,-55 45,-100 100,-100z"/>
  <path class="fil9 str9" d="M11452 7721c4,163 -46,197 -124,269 -91,81 -173,82 -295,82l-487 0c-2,0 -180,-6 -253,-133 -53,-94 -60,-265 -59,-343 8,-815 0,-4309 0,-4840 -7,-138 -10,-232 -89,-319 -88,-95 -179,-89 -313,-89l-2182 0c-133,11 -181,14 -325,81 -117,87 -151,125 -162,243l0 0"/>
  <polygon class="fil19" points="11266,7378 11653,7378 11653,7445 11266,7445 "/>
  <path class="fil3" d="M11276 7445l357 0c55,0 100,45 100,100l0 181c0,55 -45,100 -100,100l-357 0c-55,0 -100,-45 -100,-100l0 -181c0,-55 45,-100 100,-100z"/>
 </g>
</svg>
