<?xml version="1.0" encoding="UTF-8"?>
<!DOCTYPE svg PUBLIC "-//W3C//DTD SVG 1.1//EN" "http://www.w3.org/Graphics/SVG/1.1/DTD/svg11.dtd">
<!-- Creator: CorelDRAW X6 -->
<!-- Author: Antonio Serrano (asm.holguin@gmail.com) -->
<svg xmlns="http://www.w3.org/2000/svg" xml:space="preserve" width="1778px" height="2965px" version="1.1" style="shape-rendering:geometricPrecision; text-rendering:geometricPrecision; image-rendering:optimizeQuality; fill-rule:evenodd; clip-rule:evenodd"
viewBox="0 0 1778 2965"
 xmlns:xlink="http://www.w3.org/1999/xlink">
 <defs>
  <style type="text/css">
   <![CDATA[
    .str8 {stroke:black;stroke-width:0.900223}
    .str0 {stroke:black;stroke-width:2.36279}
    .str2 {stroke:#CCCCCC;stroke-width:5.90698}
    .str1 {stroke:white;stroke-width:5.90698}
    .str6 {stroke:#999999;stroke-width:8.86047}
    .str5 {stroke:#E3B14D;stroke-width:8.86047}
    .str4 {stroke:#B3B3B3;stroke-width:11.814}
    .str3 {stroke:#B3B3B3;stroke-width:17.7209}
    .str9 {stroke:black;stroke-width:29.5349}
    .str7 {stroke:#CCCCCC;stroke-width:29.5349}
    .fil9 {fill:none}
    .fil3 {fill:black}
    .fil6 {fill:blue}
    .fil18 {fill:#008095}
    .fil20 {fill:#112D37}
    .fil17 {fill:#32366B}
    .fil12 {fill:#4D4D4D}
    .fil21 {fill:#54737A}
    .fil1 {fill:#588664}
    .fil2 {fill:#627267}
    .fil4 {fill:#666666}
    .fil14 {fill:#7E7950}
    .fil0 {fill:gray}
    .fil15 {fill:#867903}
    .fil13 {fill:#999999}
    .fil11 {fill:#B3B3B3}
    .fil19 {fill:#CCCCCC}
    .fil16 {fill:#E3B14D}
    .fil5 {fill:#E6E6E6}
    .fil10 {fill:red}
    .fil8 {fill:white}
    .fil7 {fill:white;fill-rule:nonzero}
   ]]>
  </style>
 </defs>
 <g id="Layer_x0020_1">
  <metadata id="CorelCorpID_0Corel-Layer"/>
  <polygon class="fil0" points="1358,440 1358,329 1295,329 1295,440 "/>
  <polygon class="fil0" points="1358,2638 1358,2523 1295,2523 1295,2638 "/>
  <path class="fil1 str0" d="M1513 528l0 1907c0,49 -39,88 -88,88l-1184 0c-49,0 -89,-39 -89,-88l0 -1907c0,-48 40,-88 89,-88l1184 0c49,0 88,40 88,88z"/>
  <path class="fil2" d="M1396 988l0 1013c0,20 -16,36 -35,36l-541 0c-19,0 -35,-16 -35,-36l0 -1013c0,-20 16,-36 35,-36l541 0c19,0 35,16 35,36z"/>
  <g id="Powerbank">
   <path class="fil3" d="M1373 1920l0 356c0,52 -42,95 -94,95l-550 0c-51,0 -94,-43 -94,-95l0 -356c0,-52 43,-95 94,-95l550 0c52,0 94,43 94,95z"/>
   <path class="fil4" d="M1336 1946l0 304c0,44 -36,80 -80,80l-504 0c-44,0 -80,-36 -80,-80l0 -304c0,-44 36,-80 80,-80l504 0c44,0 80,36 80,80z"/>
   <path class="fil3" d="M1318 1959l0 278c0,41 -33,74 -74,74l-480 0c-40,0 -74,-33 -74,-74l0 -278c0,-41 34,-74 74,-74l480 0c41,0 74,33 74,74z"/>
   <path class="fil5" d="M876 2010l0 176c0,15 -12,27 -27,27l-93 0c-15,0 -28,-12 -28,-27l0 -176c0,-15 13,-27 28,-27l93 0c15,0 27,12 27,27z"/>
   <path class="fil3" d="M850 2024l0 148c0,10 -8,18 -18,18l-60 0c-10,0 -18,-8 -18,-18l0 -148c0,-10 8,-18 18,-18l60 0c10,0 18,8 18,18z"/>
   <path class="fil0" d="M840 2030l0 137c0,8 -6,14 -14,14l-48 0c-8,0 -14,-6 -14,-14l0 -137c0,-8 6,-15 14,-15l48 0c8,0 14,7 14,15z"/>
   <path class="fil3" d="M836 2033l0 131c0,7 -6,13 -13,13l-43 0c-7,0 -12,-6 -12,-13l0 -131c0,-7 5,-13 12,-13l43 0c7,0 13,6 13,13z"/>
   <path class="fil6" d="M872 2098c0,6 -4,10 -10,10 -5,0 -10,-4 -10,-10 0,-5 5,-10 10,-10 6,0 10,5 10,10z"/>
   <path class="fil6" d="M751 2159c0,6 -4,10 -10,10 -5,0 -10,-4 -10,-10 0,-5 5,-10 10,-10 6,0 10,5 10,10z"/>
   <path class="fil6" d="M751 2037c0,6 -4,10 -10,10 -5,0 -10,-4 -10,-10 0,-5 5,-10 10,-10 6,0 10,5 10,10z"/>
   <path class="fil6" d="M751 2098c0,6 -4,10 -9,10 -6,0 -10,-4 -10,-10 0,-5 4,-10 10,-10 5,0 9,5 9,10z"/>
   <path class="fil5" d="M1255 2034l0 126c0,15 -12,26 -26,26l-89 0c-14,0 -26,-11 -26,-26l0 -126c0,-14 12,-26 26,-26l89 0c14,0 26,12 26,26z"/>
   <path class="fil3" d="M1249 2038l0 118c0,13 -11,24 -24,24l-81 0c-13,0 -24,-11 -24,-24l0 -118c0,-13 11,-24 24,-24l81 0c13,0 24,11 24,24z"/>
   <path class="fil7 str1" d="M1150 2119l0 37 34 0 0 -37c0,-3 -1,-4 -2,-5 -1,-1 -4,-2 -8,-2l-14 0c-3,0 -6,1 -8,2 -1,1 -2,2 -2,5zm84 48l-96 0 0 -52c0,-5 1,-8 4,-11 3,-2 8,-3 14,-3l22 0c7,0 11,1 14,3 3,3 5,6 5,11l0 9 37 -29 0 16 -37 26 0 19 37 0 0 11zm-83 -132l0 45 27 0 0 -40c0,-6 1,-10 5,-12 3,-2 9,-4 18,-4l11 0c8,0 15,2 18,4 3,2 4,6 4,12l0 55c0,16 -3,16 -7,18 -2,1 -6,9 -6,5 0,-32 0,-23 0,-32l0 -52 -29 0 0 41c0,6 -2,10 -5,12 -3,2 -9,3 -18,3l-8 0c-9,0 -15,-1 -19,-3 -3,-2 -4,-6 -4,-12l0 -35c0,-5 1,-9 4,-11 4,-3 9,-4 17,-4l2 0 4 10 -14 0z"/>
  </g>
  <g id="Wifi">
   <path class="fil3" d="M535 1482c0,90 -73,163 -164,163 -90,0 -163,-73 -163,-163 0,-91 73,-164 163,-164 91,0 164,73 164,164zm-41 -77c0,14 -12,25 -26,25 -15,0 -26,-11 -26,-25 0,-15 11,-26 26,-26 14,0 26,11 26,26zm0 154c0,14 -12,26 -26,26 -15,0 -26,-12 -26,-26 0,-14 11,-26 26,-26 14,0 26,12 26,26zm-83 10l0 3c0,13 -11,24 -24,24l-78 0c-13,0 -23,-11 -23,-24l0 -3c0,-13 10,-24 23,-24l78 0c13,0 24,11 24,24zm-1 -178l0 3c0,13 -10,24 -23,24l-78 0c-13,0 -24,-11 -24,-24l0 -3c0,-13 11,-24 24,-24l78 0c13,0 23,11 23,24z"/>
   <polygon class="fil3" points="14,1619 14,1345 326,1362 346,1384 346,1582 326,1602 "/>
   <polygon class="fil8" points="19,1612 19,1352 321,1368 341,1389 341,1577 321,1596 "/>
   <polygon class="fil3" points="81,1603 61,1584 61,1381 81,1361 321,1374 336,1394 336,1572 321,1590 "/>
   <line class="fil9 str2" x1="31" y1="1365" x2="31" y2= "1600" />
   <line class="fil9 str2" x1="45" y1="1371" x2="45" y2= "1596" />
   <path class="fil8" d="M169 1477l0 -9 -51 0 -49 -61 0 52 40 18 60 0zm0 11l0 9 -51 0 -49 61 0 -53 40 -17 60 0z"/>
   <path class="fil7" d="M177 1500l0 -36 7 0c2,0 3,0 4,1 1,0 3,1 3,2 2,2 2,4 3,6 1,3 1,6 1,9 0,2 0,5 -1,7 0,2 -1,4 -1,5 -1,2 -1,3 -2,3 -1,1 -2,2 -3,2 -1,1 -2,1 -3,1l-8 0zm3 -4l4 0c2,0 3,-1 4,-1 1,0 1,-1 2,-2 0,-1 1,-3 1,-4 1,-2 1,-5 1,-7 0,-4 0,-7 -1,-9 -1,-2 -2,-3 -3,-4 -1,-1 -2,-1 -4,-1l-4 0 0 28zm17 -7l0 -4 9 0 0 4 -9 0zm12 11l0 -36 3 0 0 32 10 0 0 4 -13 0zm16 -31l0 -5 3 0 0 5 -3 0zm0 31l0 -26 3 0 0 26 -3 0zm7 0l0 -26 3 0 0 4c1,-3 2,-5 5,-5 0,0 1,1 2,1 1,1 2,1 2,2 0,1 1,2 1,4 0,0 0,2 0,4l0 16 -3 0 0 -16c0,-2 0,-3 0,-4 0,-1 -1,-2 -1,-2 -1,-1 -1,-1 -2,-1 -1,0 -2,1 -3,2 -1,1 -1,3 -1,7l0 14 -3 0zm17 0l0 -36 3 0 0 20 6 -10 3 0 -6 10 7 16 -3 0 -5 -13 -2 3 0 10 -3 0z"/>
   <polygon class="fil10" points="331,1468 331,1497 302,1497 302,1468 "/>
   <polygon class="fil10" points="296,1468 296,1497 268,1497 268,1468 "/>
   <line class="fil9 str2" x1="268" y1="1506" x2="330" y2= "1506" />
   <line class="fil9 str2" x1="268" y1="1459" x2="330" y2= "1459" />
   <polygon class="fil11" points="346,1439 346,1528 414,1524 414,1443 "/>
   <polygon class="fil3" points="399,1456 399,1470 361,1470 361,1456 "/>
   <polygon class="fil3" points="399,1497 399,1511 361,1511 361,1497 "/>
  </g>
  <g id="Webcam">
   <path class="fil3" d="M1686 1353l0 0c0,33 -27,60 -60,60l-147 0c-33,0 -60,-27 -60,-60l0 0c0,-33 27,-60 60,-60l147 0c33,0 60,27 60,60zm-185 -1c0,11 -10,21 -21,21 -11,0 -21,-10 -21,-21 0,-11 10,-20 21,-20 11,0 21,9 21,20z"/>
   <path class="fil12" d="M1677 1353l0 0c0,28 -23,51 -51,51l-147 0c-28,0 -51,-23 -51,-51l0 0c0,-28 23,-51 51,-51l147 0c28,0 51,23 51,51zm-176 -1c0,11 -10,21 -21,21 -11,0 -21,-10 -21,-21 0,-11 10,-20 21,-20 11,0 21,9 21,20z"/>
   <path class="fil3" d="M1686 1610l0 0c0,33 -27,60 -60,60l-147 0c-33,0 -60,-27 -60,-60l0 0c0,-33 27,-60 60,-60l147 0c33,0 60,27 60,60zm-185 -2c0,12 -10,21 -21,21 -11,0 -21,-9 -21,-21 0,-11 10,-20 21,-20 11,0 21,9 21,20z"/>
   <path class="fil12" d="M1677 1610l0 0c0,28 -23,51 -51,51l-147 0c-28,0 -51,-23 -51,-51l0 0c0,-28 23,-51 51,-51l147 0c28,0 51,23 51,51zm-176 -2c0,12 -10,21 -21,21 -11,0 -21,-9 -21,-21 0,-11 10,-20 21,-20 11,0 21,9 21,20z"/>
   <path class="fil3" d="M1762 1329l0 305c0,20 -16,36 -35,36l-135 0c-20,0 -36,-16 -36,-36l0 -305c0,-20 16,-36 36,-36l135 0c19,0 35,16 35,36z"/>
   <path class="fil8" d="M1754 1335l0 293c0,18 -14,32 -32,32l-121 0c-18,0 -32,-14 -32,-32l0 -293c0,-18 14,-32 32,-32l121 0c18,0 32,14 32,32z"/>
   <path class="fil3" d="M1748 1339l0 286c0,16 -14,30 -30,30l-115 0c-17,0 -30,-14 -30,-30l0 -286c0,-17 13,-30 30,-30l115 0c16,0 30,13 30,30z"/>
   <path class="fil8" d="M1692 1324l0 315c0,12 -10,21 -21,21l-81 0c-12,0 -21,-9 -21,-21l0 -315c0,-12 9,-21 21,-21l81 0c11,0 21,9 21,21z"/>
   <path class="fil3" d="M1686 1328l0 308c0,10 -9,19 -19,19l-73 0c-10,0 -19,-9 -19,-19l0 -308c0,-11 9,-19 19,-19l73 0c10,0 19,8 19,19z"/>
   <path class="fil13" d="M1674 1481l0 2c0,15 -13,28 -29,28l-30 0c-15,0 -28,-13 -28,-28l0 -2c0,-16 13,-29 28,-29l30 0c16,0 29,13 29,29z"/>
   <path class="fil12" d="M1667 1481l0 1c0,13 -11,23 -23,23l-27 0c-13,0 -23,-10 -23,-23l0 -1c0,-13 10,-23 23,-23l27 0c12,0 23,10 23,23z"/>
   <path class="fil13" d="M1674 1581l0 2c0,16 -13,29 -29,29l-30 0c-15,0 -28,-13 -28,-29l0 -2c0,-15 13,-28 28,-28l30 0c16,0 29,13 29,28z"/>
   <path class="fil12" d="M1666 1581l0 2c0,13 -10,23 -22,23l-27 0c-13,0 -23,-10 -23,-23l0 -2c0,-12 10,-22 23,-22l27 0c12,0 22,10 22,22z"/>
   <path class="fil13" d="M1674 1379l0 2c0,16 -13,28 -29,28l-30 0c-15,0 -28,-12 -28,-28l0 -2c0,-16 13,-28 28,-28l30 0c16,0 29,12 29,28z"/>
   <path class="fil12" d="M1666 1379l0 2c0,12 -10,22 -22,22l-27 0c-13,0 -23,-10 -23,-22l0 -2c0,-12 10,-23 23,-23l27 0c12,0 22,11 22,23z"/>
  </g>
  <g id="Rueda_x0020_Der">
   <path class="fil14" d="M1651 2673l0 233c0,19 -16,35 -35,35l-556 0c-20,0 -36,-16 -36,-35l0 -233c0,-19 16,-35 36,-35l556 0c19,0 35,16 35,35z"/>
   <line class="fil9 str3" x1="1649" y1="2790" x2="1024" y2= "2790" />
   <path class="fil9 str4" d="M1618 2940l-56 -150m-7 150l-58 -155m-7 155l-58 -155m-6 155l-55 -149m-10 149l-55 -148m-8 148l-58 -155m-7 155l-58 -155m-5 155l-56 -149m-9 149l-56 -148m596 63l-24 -65m-32 -151l-57 151m-7 -151l-58 156m-7 -156l-58 156m-5 -156l-56 150m-9 -150l-56 150m-7 -150l-59 156m-6 -156l-58 156m-6 -156l-56 150m-9 -150l-45 123m612 -108l-51 136"/>
   <path class="fil11" d="M1620 2681c0,10 -7,17 -17,17 -9,0 -17,-7 -17,-17 0,-9 8,-17 17,-17 10,0 17,8 17,17zm-6 0c0,6 -5,11 -11,11 -5,0 -10,-5 -10,-11 0,-6 5,-10 10,-10 6,0 11,4 11,10z"/>
   <path class="fil11" d="M1599 2738c0,9 -8,17 -17,17 -9,0 -17,-8 -17,-17 0,-9 8,-17 17,-17 9,0 17,8 17,17zm-7 0c0,6 -4,10 -10,10 -6,0 -10,-4 -10,-10 0,-6 4,-10 10,-10 6,0 10,4 10,10z"/>
   <path class="fil11" d="M1494 2681c0,10 -8,17 -17,17 -9,0 -17,-7 -17,-17 0,-9 8,-17 17,-17 9,0 17,8 17,17zm-7 0c0,6 -4,11 -10,11 -6,0 -10,-5 -10,-11 0,-6 4,-10 10,-10 6,0 10,4 10,10z"/>
   <path class="fil11" d="M1472 2738c0,9 -7,17 -16,17 -10,0 -17,-8 -17,-17 0,-9 7,-17 17,-17 9,0 16,8 16,17zm-6 0c0,6 -5,10 -10,10 -6,0 -11,-4 -11,-10 0,-6 5,-10 11,-10 5,0 10,4 10,10z"/>
   <path class="fil11" d="M1366 2681c0,10 -7,17 -17,17 -9,0 -17,-7 -17,-17 0,-9 8,-17 17,-17 10,0 17,8 17,17zm-6 0c0,6 -5,11 -11,11 -5,0 -10,-5 -10,-11 0,-6 5,-10 10,-10 6,0 11,4 11,10z"/>
   <path class="fil11" d="M1345 2738c0,9 -8,17 -17,17 -9,0 -17,-8 -17,-17 0,-9 8,-17 17,-17 9,0 17,8 17,17zm-7 0c0,6 -4,10 -10,10 -6,0 -10,-4 -10,-10 0,-6 4,-10 10,-10 6,0 10,4 10,10z"/>
   <path class="fil11" d="M1237 2681c0,10 -7,17 -17,17 -9,0 -16,-7 -16,-17 0,-9 7,-17 16,-17 10,0 17,8 17,17zm-6 0c0,6 -5,11 -11,11 -5,0 -10,-5 -10,-11 0,-6 5,-10 10,-10 6,0 11,4 11,10z"/>
   <path class="fil11" d="M1216 2738c0,9 -7,17 -17,17 -9,0 -17,-8 -17,-17 0,-9 8,-17 17,-17 10,0 17,8 17,17zm-6 0c0,6 -5,10 -11,10 -5,0 -10,-4 -10,-10 0,-6 5,-10 10,-10 6,0 11,4 11,10z"/>
   <path class="fil11" d="M1110 2681c0,10 -8,17 -17,17 -9,0 -17,-7 -17,-17 0,-9 8,-17 17,-17 9,0 17,8 17,17zm-7 0c0,6 -4,11 -10,11 -6,0 -10,-5 -10,-11 0,-6 4,-10 10,-10 6,0 10,4 10,10z"/>
   <path class="fil11" d="M1088 2738c0,9 -7,17 -16,17 -10,0 -17,-8 -17,-17 0,-9 7,-17 17,-17 9,0 16,8 16,17zm-6 0c0,6 -5,10 -10,10 -6,0 -11,-4 -11,-10 0,-6 5,-10 11,-10 5,0 10,4 10,10z"/>
   <path class="fil11" d="M1585 2897c0,-9 -8,-16 -17,-16 -10,0 -17,7 -17,16 0,10 7,17 17,17 9,0 17,-7 17,-17zm-7 0c0,-5 -5,-10 -10,-10 -6,0 -11,5 -11,10 0,6 5,11 11,11 5,0 10,-5 10,-11z"/>
   <path class="fil11" d="M1563 2841c0,-10 -7,-17 -16,-17 -10,0 -17,7 -17,17 0,9 7,17 17,17 9,0 16,-8 16,-17zm-6 0c0,-6 -5,-11 -10,-11 -6,0 -11,5 -11,11 0,5 5,10 11,10 5,0 10,-5 10,-10z"/>
   <path class="fil11" d="M1458 2897c0,-9 -7,-16 -17,-16 -9,0 -16,7 -16,16 0,10 7,17 16,17 10,0 17,-7 17,-17zm-6 0c0,-5 -5,-10 -11,-10 -5,0 -10,5 -10,10 0,6 5,11 10,11 6,0 11,-5 11,-11z"/>
   <path class="fil11" d="M1437 2841c0,-10 -8,-17 -17,-17 -9,0 -17,7 -17,17 0,9 8,17 17,17 9,0 17,-8 17,-17zm-7 0c0,-6 -4,-11 -10,-11 -6,0 -10,5 -10,11 0,5 4,10 10,10 6,0 10,-5 10,-10z"/>
   <path class="fil11" d="M1331 2897c0,-9 -8,-16 -17,-16 -10,0 -17,7 -17,16 0,10 7,17 17,17 9,0 17,-7 17,-17zm-7 0c0,-5 -5,-10 -10,-10 -6,0 -11,5 -11,10 0,6 5,11 11,11 5,0 10,-5 10,-11z"/>
   <path class="fil11" d="M1309 2841c0,-10 -7,-17 -16,-17 -10,0 -17,7 -17,17 0,9 7,17 17,17 9,0 16,-8 16,-17zm-6 0c0,-6 -5,-11 -10,-11 -6,0 -11,5 -11,11 0,5 5,10 11,10 5,0 10,-5 10,-10z"/>
   <path class="fil11" d="M1202 2897c0,-9 -8,-16 -17,-16 -9,0 -17,7 -17,16 0,10 8,17 17,17 9,0 17,-7 17,-17zm-7 0c0,-5 -4,-10 -10,-10 -6,0 -10,5 -10,10 0,6 4,11 10,11 6,0 10,-5 10,-11z"/>
   <path class="fil11" d="M1181 2841c0,-10 -8,-17 -17,-17 -10,0 -17,7 -17,17 0,9 7,17 17,17 9,0 17,-8 17,-17zm-7 0c0,-6 -5,-11 -10,-11 -6,0 -11,5 -11,11 0,5 5,10 11,10 5,0 10,-5 10,-10z"/>
   <path class="fil11" d="M1074 2897c0,-9 -7,-16 -17,-16 -9,0 -16,7 -16,16 0,10 7,17 16,17 10,0 17,-7 17,-17zm-6 0c0,-5 -5,-10 -11,-10 -5,0 -10,5 -10,10 0,6 5,11 10,11 6,0 11,-5 11,-11z"/>
   <path class="fil11" d="M1053 2841c0,-10 -8,-17 -17,-17 -4,0 -9,2 -12,5l0 24c3,3 8,5 12,5 9,0 17,-8 17,-17zm-7 0c0,-6 -4,-11 -10,-11 -6,0 -10,5 -10,11 0,5 4,10 10,10 6,0 10,-5 10,-10z"/>
  </g>
  <g id="Rueda_x0020_Izq">
   <path class="fil14" d="M1647 61l0 232c0,20 -16,36 -35,36l-556 0c-20,0 -36,-16 -36,-36l0 -232c0,-20 16,-36 36,-36l556 0c19,0 35,16 35,36z"/>
   <line class="fil9 str3" x1="1645" y1="177" x2="1020" y2= "177" />
   <path class="fil9 str4" d="M1614 327l-56 -149m-8 149l-58 -155m-7 155l-57 -154m-6 154l-56 -149m-9 149l-55 -148m-8 148l-58 -155m-7 155l-58 -154m-6 154l-55 -149m-9 149l-56 -148m596 63l-24 -64m-33 -151l-56 150m-7 -150l-58 156m-7 -156l-58 155m-5 -155l-56 150m-9 -150l-56 149m-8 -149l-58 156m-6 -156l-59 155m-5 -155l-56 150m-9 -150l-46 122m613 -108l-51 136"/>
   <path class="fil11" d="M1616 69c0,9 -8,16 -17,16 -9,0 -17,-7 -17,-16 0,-10 8,-17 17,-17 9,0 17,7 17,17zm-7 0c0,5 -4,10 -10,10 -6,0 -10,-5 -10,-10 0,-6 4,-11 10,-11 6,0 10,5 10,11z"/>
   <path class="fil11" d="M1595 125c0,10 -8,17 -17,17 -10,0 -17,-7 -17,-17 0,-9 7,-17 17,-17 9,0 17,8 17,17zm-7 0c0,6 -5,11 -10,11 -6,0 -11,-5 -11,-11 0,-5 5,-10 11,-10 5,0 10,5 10,10z"/>
   <path class="fil11" d="M1489 69c0,9 -7,16 -16,16 -10,0 -17,-7 -17,-16 0,-10 7,-17 17,-17 9,0 16,7 16,17zm-6 0c0,5 -5,10 -10,10 -6,0 -11,-5 -11,-10 0,-6 5,-11 11,-11 5,0 10,5 10,11z"/>
   <path class="fil11" d="M1468 125c0,10 -7,17 -17,17 -9,0 -17,-7 -17,-17 0,-9 8,-17 17,-17 10,0 17,8 17,17zm-6 0c0,6 -5,11 -11,11 -5,0 -10,-5 -10,-11 0,-5 5,-10 10,-10 6,0 11,5 11,10z"/>
   <path class="fil11" d="M1362 69c0,9 -8,16 -17,16 -9,0 -17,-7 -17,-16 0,-10 8,-17 17,-17 9,0 17,7 17,17zm-7 0c0,5 -4,10 -10,10 -6,0 -10,-5 -10,-10 0,-6 4,-11 10,-11 6,0 10,5 10,11z"/>
   <path class="fil11" d="M1341 125c0,10 -8,17 -17,17 -10,0 -17,-7 -17,-17 0,-9 7,-17 17,-17 9,0 17,8 17,17zm-7 0c0,6 -5,11 -10,11 -6,0 -11,-5 -11,-11 0,-5 5,-10 11,-10 5,0 10,5 10,10z"/>
   <path class="fil11" d="M1233 69c0,9 -7,16 -17,16 -9,0 -17,-7 -17,-16 0,-10 8,-17 17,-17 10,0 17,7 17,17zm-7 0c0,5 -4,10 -10,10 -6,0 -10,-5 -10,-10 0,-6 4,-11 10,-11 6,0 10,5 10,11z"/>
   <path class="fil11" d="M1212 125c0,10 -8,17 -17,17 -9,0 -17,-7 -17,-17 0,-9 8,-17 17,-17 9,0 17,8 17,17zm-7 0c0,6 -4,11 -10,11 -6,0 -10,-5 -10,-11 0,-5 4,-10 10,-10 6,0 10,5 10,10z"/>
   <path class="fil11" d="M1105 69c0,9 -7,16 -16,16 -10,0 -17,-7 -17,-16 0,-10 7,-17 17,-17 9,0 16,7 16,17zm-6 0c0,5 -5,10 -10,10 -6,0 -11,-5 -11,-10 0,-6 5,-11 11,-11 5,0 10,5 10,11z"/>
   <path class="fil11" d="M1084 125c0,10 -7,17 -17,17 -9,0 -17,-7 -17,-17 0,-9 8,-17 17,-17 10,0 17,8 17,17zm-6 0c0,6 -5,11 -11,11 -5,0 -10,-5 -10,-11 0,-5 5,-10 10,-10 6,0 11,5 11,10z"/>
   <path class="fil11" d="M1580 285c0,-10 -7,-17 -16,-17 -10,0 -17,7 -17,17 0,9 7,17 17,17 9,0 16,-8 16,-17zm-6 0c0,-6 -5,-11 -10,-11 -6,0 -11,5 -11,11 0,5 5,10 11,10 5,0 10,-5 10,-10z"/>
   <path class="fil11" d="M1559 228c0,-9 -7,-17 -17,-17 -9,0 -17,8 -17,17 0,9 8,17 17,17 10,0 17,-8 17,-17zm-6 0c0,-6 -5,-10 -11,-10 -5,0 -10,4 -10,10 0,6 5,10 10,10 6,0 11,-4 11,-10z"/>
   <path class="fil11" d="M1454 285c0,-10 -8,-17 -17,-17 -9,0 -17,7 -17,17 0,9 8,17 17,17 9,0 17,-8 17,-17zm-7 0c0,-6 -4,-11 -10,-11 -6,0 -10,5 -10,11 0,5 4,10 10,10 6,0 10,-5 10,-10z"/>
   <path class="fil11" d="M1433 228c0,-9 -8,-17 -17,-17 -9,0 -17,8 -17,17 0,9 8,17 17,17 9,0 17,-8 17,-17zm-7 0c0,-6 -4,-10 -10,-10 -6,0 -10,4 -10,10 0,6 4,10 10,10 6,0 10,-4 10,-10z"/>
   <path class="fil11" d="M1326 285c0,-10 -7,-17 -16,-17 -10,0 -17,7 -17,17 0,9 7,17 17,17 9,0 16,-8 16,-17zm-6 0c0,-6 -5,-11 -10,-11 -6,0 -11,5 -11,11 0,5 5,10 11,10 5,0 10,-5 10,-10z"/>
   <path class="fil11" d="M1305 228c0,-9 -7,-17 -17,-17 -9,0 -17,8 -17,17 0,9 8,17 17,17 10,0 17,-8 17,-17zm-6 0c0,-6 -5,-10 -11,-10 -5,0 -10,4 -10,10 0,6 5,10 10,10 6,0 11,-4 11,-10z"/>
   <path class="fil11" d="M1198 285c0,-10 -8,-17 -17,-17 -10,0 -17,7 -17,17 0,9 7,17 17,17 9,0 17,-8 17,-17zm-7 0c0,-6 -5,-11 -10,-11 -6,0 -11,5 -11,11 0,5 5,10 11,10 5,0 10,-5 10,-10z"/>
   <path class="fil11" d="M1176 228c0,-9 -7,-17 -17,-17 -9,0 -16,8 -16,17 0,9 7,17 16,17 10,0 17,-8 17,-17zm-6 0c0,-6 -5,-10 -11,-10 -5,0 -10,4 -10,10 0,6 5,10 10,10 6,0 11,-4 11,-10z"/>
   <path class="fil11" d="M1070 285c0,-10 -8,-17 -17,-17 -9,0 -17,7 -17,17 0,9 8,17 17,17 9,0 17,-8 17,-17zm-7 0c0,-6 -4,-11 -10,-11 -6,0 -10,5 -10,11 0,5 4,10 10,10 6,0 10,-5 10,-10z"/>
   <path class="fil11" d="M1049 228c0,-9 -8,-17 -17,-17 -5,0 -9,2 -12,5l0 24c3,3 7,5 12,5 9,0 17,-8 17,-17zm-7 0c0,-6 -4,-10 -10,-10 -6,0 -10,4 -10,10 0,6 4,10 10,10 6,0 10,-4 10,-10z"/>
  </g>
  <g id="Board">
   <path class="fil15" d="M1403 1300l0 362c0,19 -16,35 -35,35l-429 0c-20,0 -36,-16 -36,-35l0 -362c0,-19 16,-35 36,-35l429 0c19,0 35,16 35,35z"/>
   <path class="fil16" d="M1383 1318l0 326c0,17 -14,32 -32,32l-396 0c-17,0 -32,-15 -32,-32l0 -326c0,-17 15,-31 32,-31l396 0c18,0 32,14 32,31zm-8 6l0 314c0,17 -13,31 -30,31l-383 0c-17,0 -31,-14 -31,-31l0 -314c0,-17 14,-31 31,-31l383 0c17,0 30,14 30,31z"/>
   <path class="fil16" d="M1295 1330c0,9 -7,16 -16,16 -9,0 -16,-7 -16,-16 0,-9 7,-16 16,-16 9,0 16,7 16,16z"/>
   <path class="fil16" d="M1339 1330c0,9 -8,16 -16,16 -9,0 -16,-7 -16,-16 0,-9 7,-16 16,-16 8,0 16,7 16,16z"/>
   <path class="fil16" d="M1251 1330c0,9 -7,16 -16,16 -8,0 -16,-7 -16,-16 0,-9 8,-16 16,-16 9,0 16,7 16,16z"/>
   <path class="fil16" d="M1172 1330c0,9 -7,16 -16,16 -9,0 -16,-7 -16,-16 0,-9 7,-16 16,-16 9,0 16,7 16,16z"/>
   <path class="fil16" d="M1128 1330c0,9 -7,16 -16,16 -8,0 -15,-7 -15,-16 0,-9 7,-16 15,-16 9,0 16,7 16,16z"/>
   <path class="fil16" d="M1339 1629c0,9 -8,16 -16,16 -9,0 -16,-7 -16,-16 0,-9 7,-16 16,-16 8,0 16,7 16,16z"/>
   <path class="fil16" d="M1339 1583c0,9 -8,16 -16,16 -9,0 -16,-7 -16,-16 0,-9 7,-16 16,-16 8,0 16,7 16,16z"/>
   <polyline class="fil9 str5" points="1326,1330 1353,1358 1353,1604 1326,1629 "/>
   <polyline class="fil9 str5" points="1279,1330 1324,1376 1323,1583 "/>
   <path class="fil16" d="M1251 1628c0,9 -7,16 -16,16 -8,0 -16,-7 -16,-16 0,-9 8,-16 16,-16 9,0 16,7 16,16z"/>
   <line class="fil9 str5" x1="1235" y1="1330" x2="1235" y2= "1628" />
   <path class="fil11" d="M1153 1639l0 64 -115 0 0 -64 63 0 -14 0 0 19 15 0 0 0 23 0 0 0 14 0 0 -19 -10 0 24 0zm-84 0l0 19 -17 0 0 -19 17 0z"/>
   <polygon class="fil3" points="1096,1703 1096,1729 1134,1729 1134,1703 "/>
   <path class="fil16" d="M1162 1628c0,9 -7,16 -16,16 -9,0 -16,-7 -16,-16 0,-9 7,-16 16,-16 9,0 16,7 16,16z"/>
   <path class="fil16" d="M1095 1627c0,9 -7,16 -16,16 -9,0 -16,-7 -16,-16 0,-9 7,-16 16,-16 9,0 16,7 16,16z"/>
   <path class="fil16" d="M1061 1627c0,9 -7,16 -16,16 -9,0 -16,-7 -16,-16 0,-9 7,-16 16,-16 9,0 16,7 16,16z"/>
   <polyline class="fil9 str5" points="1045,1627 1045,1593 1007,1555 "/>
   <polyline class="fil9 str5" points="1112,1330 1112,1515 1097,1529 1007,1529 "/>
   <path class="fil17" d="M1052 1550c0,24 -20,44 -45,44 -24,0 -44,-20 -44,-44 0,-25 20,-45 44,-45 25,0 45,20 45,45z"/>
   <path class="fil8" d="M1041 1550c0,18 -15,33 -34,33 -18,0 -33,-15 -33,-33 0,-19 15,-33 33,-33 19,0 34,14 34,33z"/>
   <line class="fil9 str6" x1="1035" y1="1550" x2="980" y2= "1550" />
   <line class="fil9 str6" x1="1007" y1="1522" x2="1007" y2= "1577" />
   <polyline class="fil9 str5" points="1079,1636 1079,1585 1156,1508 1156,1340 "/>
   <polygon class="fil11" points="1247,1413 1247,1427 1224,1427 1224,1413 "/>
   <polygon class="fil11" points="1168,1413 1168,1427 1145,1427 1145,1413 "/>
   <polygon class="fil11" points="1247,1539 1247,1552 1224,1552 1224,1539 "/>
   <polygon class="fil11" points="1168,1539 1168,1552 1145,1552 1145,1539 "/>
   <polygon class="fil11" points="1207,1538 1207,1552 1184,1552 1184,1538 "/>
   <polygon class="fil3" points="1284,1427 1284,1539 1136,1539 1136,1427 "/>
   <polygon class="fil11" points="1208,1413 1208,1427 1185,1427 1185,1413 "/>
   <path class="fil3" d="M1008 1626l0 44c0,6 -6,11 -12,11l-62 0c-6,0 -12,-5 -12,-11l0 -44c0,-6 6,-12 12,-12l62 0c6,0 12,6 12,12z"/>
   <path class="fil11" d="M998 1648c0,7 -5,13 -13,13 -7,0 -13,-6 -13,-13 0,-8 6,-14 13,-14 8,0 13,6 13,14z"/>
   <path class="fil11" d="M957 1648c0,7 -6,13 -13,13 -7,0 -13,-6 -13,-13 0,-8 6,-14 13,-14 7,0 13,6 13,14z"/>
  </g>
  <g id="Raspberry">
   <path class="fil18" d="M1379 644l0 445c0,26 -22,48 -48,48l-648 0c-26,0 -47,-22 -47,-48l0 -445c0,-26 21,-47 47,-47l648 0c26,0 48,21 48,47z"/>
   <polygon class="fil19" points="960,763 960,916 808,916 808,763 "/>
   <polygon class="fil20" points="953,770 953,909 815,909 815,770 "/>
   <path class="fil20" d="M962 638l0 72 -270 0 0 -72 270 0zm-13 23c0,5 -5,9 -10,9 -5,0 -9,-4 -9,-9 0,-6 4,-10 9,-10 5,0 10,4 10,10zm0 27c0,5 -5,9 -10,9 -5,0 -9,-4 -9,-9 0,-6 4,-10 9,-10 5,0 10,4 10,10zm-29 -27c0,5 -4,9 -9,9 -5,0 -10,-4 -10,-9 0,-6 5,-10 10,-10 5,0 9,4 9,10zm0 27c0,5 -4,9 -9,9 -5,0 -10,-4 -10,-9 0,-6 5,-10 10,-10 5,0 9,4 9,10zm-27 -27c0,5 -4,9 -9,9 -6,0 -10,-4 -10,-9 0,-6 4,-10 10,-10 5,0 9,4 9,10zm0 27c0,5 -4,9 -9,9 -6,0 -10,-4 -10,-9 0,-6 4,-10 10,-10 5,0 9,4 9,10zm-28 -27c0,5 -5,9 -10,9 -5,0 -9,-4 -9,-9 0,-6 4,-10 9,-10 5,0 10,4 10,10zm0 27c0,5 -5,9 -10,9 -5,0 -9,-4 -9,-9 0,-6 4,-10 9,-10 5,0 10,4 10,10zm-29 -27c0,5 -4,9 -9,9 -5,0 -10,-4 -10,-9 0,-6 5,-10 10,-10 5,0 9,4 9,10zm0 27c0,5 -4,9 -9,9 -5,0 -10,-4 -10,-9 0,-6 5,-10 10,-10 5,0 9,4 9,10zm-27 -27c0,5 -4,9 -9,9 -5,0 -10,-4 -10,-9 0,-6 5,-10 10,-10 5,0 9,4 9,10zm0 27c0,5 -4,9 -9,9 -5,0 -10,-4 -10,-9 0,-6 5,-10 10,-10 5,0 9,4 9,10zm-28 -27c0,5 -4,9 -10,9 -5,0 -9,-4 -9,-9 0,-6 4,-10 9,-10 6,0 10,4 10,10zm0 27c0,5 -4,9 -10,9 -5,0 -9,-4 -9,-9 0,-6 4,-10 9,-10 6,0 10,4 10,10zm-29 -27c0,5 -4,9 -9,9 -5,0 -9,-4 -9,-9 0,-6 4,-10 9,-10 5,0 9,4 9,10zm0 27c0,5 -4,9 -9,9 -5,0 -9,-4 -9,-9 0,-6 4,-10 9,-10 5,0 9,4 9,10zm-27 -27c0,5 -4,9 -9,9 -5,0 -10,-4 -10,-9 0,-6 5,-10 10,-10 5,0 9,4 9,10zm0 27c0,5 -4,9 -9,9 -5,0 -10,-4 -10,-9 0,-6 5,-10 10,-10 5,0 9,4 9,10z"/>
   <polygon class="fil21" points="1379,644 1379,766 1267,766 1267,644 "/>
   <polygon class="fil19" points="1379,644 1379,766 1413,766 1413,644 "/>
   <polygon class="fil4" points="1394,675 1394,689 1344,689 1344,675 "/>
   <polygon class="fil4" points="1394,721 1394,735 1344,735 1344,721 "/>
   <polygon class="fil21" points="1379,798 1379,920 1267,920 1267,798 "/>
   <polygon class="fil19" points="1379,798 1379,920 1413,920 1413,798 "/>
   <polygon class="fil4" points="1394,828 1394,843 1344,843 1344,828 "/>
   <polygon class="fil4" points="1394,874 1394,889 1344,889 1344,874 "/>
   <polygon class="fil21" points="1379,954 1379,1107 1230,1107 1230,954 "/>
   <polygon class="fil19" points="1379,954 1379,1107 1396,1107 1396,954 "/>
   <polygon class="fil19" points="1182,764 1182,840 1105,840 1105,764 "/>
   <polygon class="fil20" points="1175,771 1175,833 1112,833 1112,771 "/>
   <polygon class="fil20" points="694,776 694,958 650,958 650,776 "/>
   <polygon class="fil21" points="686,784 686,949 658,949 658,784 "/>
   <polygon class="fil20" points="1084,939 1084,1121 1040,1121 1040,939 "/>
   <polygon class="fil21" points="1076,947 1076,1113 1048,1113 1048,947 "/>
   <polygon class="fil20" points="1188,1014 1188,1135 1118,1135 1118,1014 "/>
   <polygon class="fil3" points="1172,1156 1172,1135 1134,1135 1134,1156 "/>
   <polygon class="fil21" points="1174,1078 1174,1122 1132,1122 1132,1078 "/>
   <polygon class="fil21" points="1007,1137 832,1137 832,1048 1007,1048 "/>
   <polygon class="fil19" points="1007,1137 832,1137 832,1165 1007,1165 "/>
   <polygon class="fil4" points="986,1149 964,1149 964,1109 986,1109 "/>
   <polygon class="fil4" points="871,1149 850,1149 850,1109 871,1109 "/>
   <polygon class="fil3" points="636,919 636,815 614,815 614,919 "/>
  </g>
  <path class="fil9 str7" d="M965 1681l0 51c0,10 1,15 7,22 7,7 13,8 23,8l537 0c11,-1 14,-1 26,-9 9,-11 11,-15 12,-29l0 -54"/>
  <path class="fil5 str8" d="M1610 1293c-13,-23 -22,-36 -44,-59 -22,-24 -34,-33 -78,-62l0 0c-80,-66 -143,-113 -241,-163 -76,-30 -98,-39 -185,-54l0 149c87,4 138,6 247,23 75,11 87,17 179,45l0 0c50,15 82,26 124,51 43,25 56,37 96,70l-98 0z"/>
  <polygon class="fil19" points="636,1026 636,1072 620,1072 620,1026 "/>
  <polygon class="fil19" points="635,1912 635,2025 622,2025 622,1912 "/>
  <path class="fil3" d="M620 1027l0 42c0,7 -5,12 -12,12l-21 0c-7,0 -12,-5 -12,-12l0 -42c0,-6 5,-12 12,-12l21 0c7,0 12,6 12,12z"/>
  <path class="fil9 str9" d="M575 1047l-37 0c-10,0 -16,2 -22,11 -7,10 -8,19 -9,35l0 145c1,16 2,25 13,36 10,9 16,9 34,10 19,2 28,3 36,12 10,11 10,21 10,35l0 283c0,17 0,29 -11,41 -8,10 -19,11 -33,11 -17,1 -28,2 -38,11 -11,10 -11,21 -11,37l0 197c2,16 2,22 10,39 10,14 15,18 29,19l8 0"/>
  <path class="fil3" d="M1460 795l0 128c0,6 -5,12 -12,12l-44 0c-6,0 -12,-6 -12,-12l0 -128c0,-7 6,-12 12,-12l44 0c7,0 12,5 12,12z"/>
  <path class="fil3" d="M622 1905l0 128c0,6 -6,12 -12,12l-44 0c-7,0 -12,-6 -12,-12l0 -128c0,-7 5,-12 12,-12l44 0c6,0 12,5 12,12z"/>
  <path class="fil9 str9" d="M863 1365c-20,0 -24,-5 -32,-15 -10,-10 -10,-20 -10,-34l0 -58c0,0 1,-21 16,-30 11,-6 31,-7 40,-7 97,1 509,0 572,0 16,-1 27,-1 38,-10 11,-11 10,-22 10,-37l0 -258c-1,-16 -1,-21 -9,-39 -10,-13 -15,-17 -29,-19l0 0"/>
  <polygon class="fil19" points="903,1343 903,1389 895,1389 895,1343 "/>
  <path class="fil3" d="M895 1344l0 42c0,7 -5,12 -12,12l-21 0c-7,0 -12,-5 -12,-12l0 -42c0,-6 5,-12 12,-12l21 0c7,0 12,6 12,12z"/>
 </g>
</svg>
