<?xml version="1.0" encoding="UTF-8"?>
<!DOCTYPE svg PUBLIC "-//W3C//DTD SVG 1.1//EN" "http://www.w3.org/Graphics/SVG/1.1/DTD/svg11.dtd">
<!-- Creator: CorelDRAW X6 -->
<!-- Author: Antonio Serrano (asm.holguin@gmail.com) -->
<svg xmlns="http://www.w3.org/2000/svg" xml:space="preserve" width="7.28346in" height="8.46457in" version="1.1" style="shape-rendering:geometricPrecision; text-rendering:geometricPrecision; image-rendering:optimizeQuality; fill-rule:evenodd; clip-rule:evenodd"
viewBox="0 0 7283 8465"
 xmlns:xlink="http://www.w3.org/1999/xlink">
 <defs>
  <style type="text/css">
   <![CDATA[
    .str8 {stroke:#1A1A1A;stroke-width:3}
    .str0 {stroke:white;stroke-width:3}
    .str6 {stroke:#B3B3B3;stroke-width:9.84252}
    .str10 {stroke:#B3B3B3;stroke-width:19.685}
    .str11 {stroke:#CCCCCC;stroke-width:19.685}
    .str5 {stroke:#333333;stroke-width:39.3701}
    .str4 {stroke:#4D4D4D;stroke-width:39.3701}
    .str3 {stroke:#666666;stroke-width:39.3701}
    .str2 {stroke:#B3B3B3;stroke-width:39.3701}
    .str1 {stroke:#B3B3B3;stroke-width:59.0551}
    .str9 {stroke:#1A1A1A;stroke-width:78.7402}
    .str7 {stroke:#999999;stroke-width:78.7402}
    .fil4 {fill:none}
    .fil7 {fill:black}
    .fil11 {fill:#009933}
    .fil6 {fill:#1A1A1A}
    .fil0 {fill:#333333}
    .fil16 {fill:#4D4D4D}
    .fil9 {fill:#587B8F}
    .fil10 {fill:#666666}
    .fil3 {fill:#7E7950}
    .fil14 {fill:maroon}
    .fil2 {fill:gray}
    .fil5 {fill:#B3B3B3}
    .fil12 {fill:#CCCCCC}
    .fil8 {fill:#E6E6E6}
    .fil1 {fill:whitesmoke}
    .fil13 {fill:red}
    .fil15 {fill:whitesmoke;fill-rule:nonzero}
   ]]>
  </style>
 </defs>
 <g id="Layer_x0020_1">
  <metadata id="CorelCorpID_0Corel-Layer"/>
  <rect class="fil0" x="3098" y="1607" width="1098" height="5289" rx="20" ry="20"/>
  <g id="Battery">
   <path class="fil0" d="M3049 2563l0 3376c0,65 -53,119 -118,119l-1801 0c-65,0 -118,-54 -118,-119l0 -3376c0,-65 53,-118 118,-118l1801 0c65,0 118,53 118,118z"/>
   <path class="fil1 str0" d="M5959 2614l0 3282c0,104 -64,174 -147,174l-1351 0c-19,0 -4,-3613 -4,-3613 0,0 1220,0 1355,0 94,0 147,73 147,157z"/>
  </g>
  <g id="Rigth_x0020_wheel">
   <polygon class="fil2" points="3758,7286 3758,6906 3546,6906 3546,7286 "/>
   <g id="Rueda_x0020_Der">
    <path class="fil3" d="M4672 7405l0 775c0,65 -54,119 -119,119l-1853 0c-65,0 -118,-54 -118,-119l0 -775c0,-66 53,-119 118,-119l1853 0c65,0 119,53 119,119z"/>
    <line class="fil4 str1" x1="4664" y1="7792" x2="2582" y2= "7792" />
    <path class="fil4 str2" d="M4560 8293l-187 -498m-24 498l-193 -516m-23 516l-193 -515m-19 515l-185 -496m-31 496l-185 -494m-26 494l-193 -516m-23 516l-193 -515m-19 515l-185 -496m-31 496l-185 -494m1986 211l-81 -215m-108 -503l-188 502m-23 -502l-194 520m-22 -520l-194 518m-17 -518l-187 499m-30 -499l-186 497m-25 -497l-194 520m-22 -520l-194 518m-17 -518l-187 499m-30 -499l-152 408m2041 -359l-170 453"/>
    <path class="fil5" d="M4567 7431c0,31 -25,56 -56,56 -31,0 -56,-25 -56,-56 0,-31 25,-56 56,-56 31,0 56,25 56,56zm-22 0c0,19 -15,35 -34,35 -19,0 -34,-16 -34,-35 0,-19 15,-34 34,-34 19,0 34,15 34,34z"/>
    <path class="fil5" d="M4496 7620c0,31 -25,56 -56,56 -31,0 -56,-25 -56,-56 0,-31 25,-56 56,-56 31,0 56,25 56,56zm-21 0c0,19 -16,35 -35,35 -19,0 -34,-16 -34,-35 0,-19 15,-34 34,-34 19,0 35,15 35,34z"/>
    <path class="fil5" d="M4146 7431c0,31 -25,56 -56,56 -31,0 -56,-25 -56,-56 0,-31 25,-56 56,-56 31,0 56,25 56,56zm-22 0c0,19 -15,35 -34,35 -19,0 -35,-16 -35,-35 0,-19 16,-34 35,-34 19,0 34,15 34,34z"/>
    <path class="fil5" d="M4075 7620c0,31 -25,56 -56,56 -31,0 -56,-25 -56,-56 0,-31 25,-56 56,-56 31,0 56,25 56,56zm-22 0c0,19 -15,35 -34,35 -19,0 -34,-16 -34,-35 0,-19 15,-34 34,-34 19,0 34,15 34,34z"/>
    <path class="fil5" d="M3721 7431c0,31 -25,56 -56,56 -31,0 -57,-25 -57,-56 0,-31 26,-56 57,-56 31,0 56,25 56,56zm-22 0c0,19 -15,35 -34,35 -19,0 -35,-16 -35,-35 0,-19 16,-34 35,-34 19,0 34,15 34,34z"/>
    <path class="fil5" d="M3650 7620c0,31 -25,56 -56,56 -31,0 -56,-25 -56,-56 0,-31 25,-56 56,-56 31,0 56,25 56,56zm-22 0c0,19 -15,35 -34,35 -19,0 -35,-16 -35,-35 0,-19 16,-34 35,-34 19,0 34,15 34,34z"/>
    <path class="fil5" d="M3292 7431c0,31 -25,56 -56,56 -32,0 -57,-25 -57,-56 0,-31 25,-56 57,-56 31,0 56,25 56,56zm-22 0c0,19 -16,35 -34,35 -19,0 -35,-16 -35,-35 0,-19 16,-34 35,-34 18,0 34,15 34,34z"/>
    <path class="fil5" d="M3221 7620c0,31 -25,56 -56,56 -31,0 -57,-25 -57,-56 0,-31 26,-56 57,-56 31,0 56,25 56,56zm-22 0c0,19 -15,35 -34,35 -19,0 -35,-16 -35,-35 0,-19 16,-34 35,-34 19,0 34,15 34,34z"/>
    <path class="fil5" d="M2867 7431c0,31 -26,56 -57,56 -31,0 -56,-25 -56,-56 0,-31 25,-56 56,-56 31,0 57,25 57,56zm-22 0c0,19 -16,35 -35,35 -19,0 -34,-16 -34,-35 0,-19 15,-34 34,-34 19,0 35,15 35,34z"/>
    <path class="fil5" d="M2796 7620c0,31 -25,56 -57,56 -31,0 -56,-25 -56,-56 0,-31 25,-56 56,-56 32,0 57,25 57,56zm-22 0c0,19 -16,35 -35,35 -19,0 -34,-16 -34,-35 0,-19 15,-34 34,-34 19,0 35,15 35,34z"/>
    <path class="fil5" d="M4449 8152c0,-31 -25,-57 -56,-57 -31,0 -56,26 -56,57 0,31 25,56 56,56 31,0 56,-25 56,-56zm-22 0c0,-19 -15,-35 -34,-35 -19,0 -34,16 -34,35 0,19 15,34 34,34 19,0 34,-15 34,-34z"/>
    <path class="fil5" d="M4378 7963c0,-31 -25,-57 -56,-57 -31,0 -56,26 -56,57 0,31 25,56 56,56 31,0 56,-25 56,-56zm-22 0c0,-19 -15,-35 -34,-35 -19,0 -34,16 -34,35 0,19 15,34 34,34 19,0 34,-15 34,-34z"/>
    <path class="fil5" d="M4028 8152c0,-31 -25,-57 -56,-57 -31,0 -57,26 -57,57 0,31 26,56 57,56 31,0 56,-25 56,-56zm-22 0c0,-19 -15,-35 -34,-35 -19,0 -35,16 -35,35 0,19 16,34 35,34 19,0 34,-15 34,-34z"/>
    <path class="fil5" d="M3957 7963c0,-31 -25,-57 -56,-57 -31,0 -56,26 -56,57 0,31 25,56 56,56 31,0 56,-25 56,-56zm-22 0c0,-19 -15,-35 -34,-35 -19,0 -35,16 -35,35 0,19 16,34 35,34 19,0 34,-15 34,-34z"/>
    <path class="fil5" d="M3603 8152c0,-31 -25,-57 -56,-57 -32,0 -57,26 -57,57 0,31 25,56 57,56 31,0 56,-25 56,-56zm-22 0c0,-19 -15,-35 -34,-35 -19,0 -35,16 -35,35 0,19 16,34 35,34 19,0 34,-15 34,-34z"/>
    <path class="fil5" d="M3532 7963c0,-31 -25,-57 -56,-57 -31,0 -57,26 -57,57 0,31 26,56 57,56 31,0 56,-25 56,-56zm-22 0c0,-19 -15,-35 -34,-35 -19,0 -35,16 -35,35 0,19 16,34 35,34 19,0 34,-15 34,-34z"/>
    <path class="fil5" d="M3174 8152c0,-31 -26,-57 -57,-57 -31,0 -56,26 -56,57 0,31 25,56 56,56 31,0 57,-25 57,-56zm-22 0c0,-19 -16,-35 -35,-35 -19,0 -34,16 -34,35 0,19 15,34 34,34 19,0 35,-15 35,-34z"/>
    <path class="fil5" d="M3103 7963c0,-31 -25,-57 -56,-57 -32,0 -57,26 -57,57 0,31 25,56 57,56 31,0 56,-25 56,-56zm-22 0c0,-19 -15,-35 -34,-35 -19,0 -35,16 -35,35 0,19 16,34 35,34 19,0 34,-15 34,-34z"/>
    <path class="fil5" d="M2748 8152c0,-31 -25,-57 -56,-57 -31,0 -56,26 -56,57 0,31 25,56 56,56 31,0 56,-25 56,-56zm-21 0c0,-19 -16,-35 -35,-35 -19,0 -34,16 -34,35 0,19 15,34 34,34 19,0 35,-15 35,-34z"/>
    <path class="fil5" d="M2678 7963c0,-31 -26,-57 -57,-57 -15,0 -29,7 -39,16l0 81c10,10 24,16 39,16 31,0 57,-25 57,-56zm-22 0c0,-19 -16,-35 -35,-35 -19,0 -34,16 -34,35 0,19 15,34 34,34 19,0 35,-15 35,-34z"/>
   </g>
  </g>
  <g id="Left_x0020_wheel">
   <polygon class="fil2" points="3756,1593 3756,1200 3545,1200 3545,1593 "/>
   <g id="Rueda_x0020_Izq">
    <path class="fil3" d="M4687 306l0 775c0,65 -53,119 -118,119l-1853 0c-65,0 -118,-54 -118,-119l0 -775c0,-66 53,-119 118,-119l1853 0c65,0 118,53 118,119z"/>
    <line class="fil4 str1" x1="4680" y1="693" x2="2598" y2= "693" />
    <path class="fil4 str2" d="M4576 1194l-187 -498m-24 498l-194 -516m-22 516l-193 -515m-19 515l-186 -496m-30 496l-185 -494m-26 494l-194 -516m-23 516l-192 -515m-19 515l-186 -496m-30 496l-185 -494m1986 212l-81 -216m-108 -503l-188 502m-23 -502l-195 520m-21 -520l-194 518m-18 -518l-187 499m-29 -499l-186 497m-25 -497l-195 520m-21 -520l-194 518m-18 -518l-187 499m-29 -499l-153 408m2041 -359l-169 453"/>
    <path class="fil5" d="M4583 332c0,31 -25,57 -56,57 -31,0 -56,-26 -56,-57 0,-31 25,-56 56,-56 31,0 56,25 56,56zm-22 0c0,19 -15,35 -34,35 -19,0 -35,-16 -35,-35 0,-19 16,-34 35,-34 19,0 34,15 34,34z"/>
    <path class="fil5" d="M4512 521c0,31 -25,57 -56,57 -31,0 -56,-26 -56,-57 0,-31 25,-56 56,-56 31,0 56,25 56,56zm-22 0c0,19 -15,35 -34,35 -19,0 -34,-16 -34,-35 0,-19 15,-34 34,-34 19,0 34,15 34,34z"/>
    <path class="fil5" d="M4162 332c0,31 -25,57 -56,57 -31,0 -57,-26 -57,-57 0,-31 26,-56 57,-56 31,0 56,25 56,56zm-22 0c0,19 -15,35 -34,35 -19,0 -35,-16 -35,-35 0,-19 16,-34 35,-34 19,0 34,15 34,34z"/>
    <path class="fil5" d="M4091 521c0,31 -25,57 -56,57 -31,0 -57,-26 -57,-57 0,-31 26,-56 57,-56 31,0 56,25 56,56zm-22 0c0,19 -15,35 -34,35 -19,0 -35,-16 -35,-35 0,-19 16,-34 35,-34 19,0 34,15 34,34z"/>
    <path class="fil5" d="M3737 332c0,31 -26,57 -57,57 -31,0 -56,-26 -56,-57 0,-31 25,-56 56,-56 31,0 57,25 57,56zm-22 0c0,19 -16,35 -35,35 -19,0 -34,-16 -34,-35 0,-19 15,-34 34,-34 19,0 35,15 35,34z"/>
    <path class="fil5" d="M3666 521c0,31 -25,57 -56,57 -32,0 -57,-26 -57,-57 0,-31 25,-56 57,-56 31,0 56,25 56,56zm-22 0c0,19 -16,35 -34,35 -19,0 -35,-16 -35,-35 0,-19 16,-34 35,-34 18,0 34,15 34,34z"/>
    <path class="fil5" d="M3307 332c0,31 -25,57 -56,57 -31,0 -56,-26 -56,-57 0,-31 25,-56 56,-56 31,0 56,25 56,56zm-21 0c0,19 -16,35 -35,35 -19,0 -34,-16 -34,-35 0,-19 15,-34 34,-34 19,0 35,15 35,34z"/>
    <path class="fil5" d="M3237 521c0,31 -26,57 -57,57 -31,0 -56,-26 -56,-57 0,-31 25,-56 56,-56 31,0 57,25 57,56zm-22 0c0,19 -16,35 -35,35 -19,0 -34,-16 -34,-35 0,-19 15,-34 34,-34 19,0 35,15 35,34z"/>
    <path class="fil5" d="M2882 332c0,31 -25,57 -56,57 -31,0 -56,-26 -56,-57 0,-31 25,-56 56,-56 31,0 56,25 56,56zm-22 0c0,19 -15,35 -34,35 -19,0 -34,-16 -34,-35 0,-19 15,-34 34,-34 19,0 34,15 34,34z"/>
    <path class="fil5" d="M2811 521c0,31 -25,57 -56,57 -31,0 -56,-26 -56,-57 0,-31 25,-56 56,-56 31,0 56,25 56,56zm-21 0c0,19 -16,35 -35,35 -19,0 -34,-16 -34,-35 0,-19 15,-34 34,-34 19,0 35,15 35,34z"/>
    <path class="fil5" d="M4465 1053c0,-31 -25,-56 -56,-56 -31,0 -57,25 -57,56 0,31 26,56 57,56 31,0 56,-25 56,-56zm-22 0c0,-19 -15,-35 -34,-35 -19,0 -35,16 -35,35 0,19 16,34 35,34 19,0 34,-15 34,-34z"/>
    <path class="fil5" d="M4394 864c0,-31 -25,-56 -56,-56 -31,0 -56,25 -56,56 0,31 25,56 56,56 31,0 56,-25 56,-56zm-22 0c0,-19 -15,-35 -34,-35 -19,0 -35,16 -35,35 0,19 16,34 35,34 19,0 34,-15 34,-34z"/>
    <path class="fil5" d="M4044 1053c0,-31 -25,-56 -57,-56 -31,0 -56,25 -56,56 0,31 25,56 56,56 32,0 57,-25 57,-56zm-22 0c0,-19 -16,-35 -35,-35 -19,0 -34,16 -34,35 0,19 15,34 34,34 19,0 35,-15 35,-34z"/>
    <path class="fil5" d="M3973 864c0,-31 -25,-56 -56,-56 -31,0 -57,25 -57,56 0,31 26,56 57,56 31,0 56,-25 56,-56zm-22 0c0,-19 -15,-35 -34,-35 -19,0 -35,16 -35,35 0,19 16,34 35,34 19,0 34,-15 34,-34z"/>
    <path class="fil5" d="M3619 1053c0,-31 -26,-56 -57,-56 -31,0 -56,25 -56,56 0,31 25,56 56,56 31,0 57,-25 57,-56zm-22 0c0,-19 -16,-35 -35,-35 -19,0 -34,16 -34,35 0,19 15,34 34,34 19,0 35,-15 35,-34z"/>
    <path class="fil5" d="M3548 864c0,-31 -26,-56 -57,-56 -31,0 -56,25 -56,56 0,31 25,56 56,56 31,0 57,-25 57,-56zm-22 0c0,-19 -16,-35 -35,-35 -19,0 -34,16 -34,35 0,19 15,34 34,34 19,0 35,-15 35,-34z"/>
    <path class="fil5" d="M3189 1053c0,-31 -25,-56 -56,-56 -31,0 -56,25 -56,56 0,31 25,56 56,56 31,0 56,-25 56,-56zm-21 0c0,-19 -16,-35 -35,-35 -19,0 -34,16 -34,35 0,19 15,34 34,34 19,0 35,-15 35,-34z"/>
    <path class="fil5" d="M3119 864c0,-31 -26,-56 -57,-56 -31,0 -56,25 -56,56 0,31 25,56 56,56 31,0 57,-25 57,-56zm-22 0c0,-19 -16,-35 -35,-35 -19,0 -34,16 -34,35 0,19 15,34 34,34 19,0 35,-15 35,-34z"/>
    <path class="fil5" d="M2764 1053c0,-31 -25,-56 -56,-56 -31,0 -56,25 -56,56 0,31 25,56 56,56 31,0 56,-25 56,-56zm-22 0c0,-19 -15,-35 -34,-35 -19,0 -34,16 -34,35 0,19 15,34 34,34 19,0 34,-15 34,-34z"/>
    <path class="fil5" d="M2693 864c0,-31 -25,-56 -56,-56 -15,0 -29,6 -39,15l0 81c10,10 24,16 39,16 31,0 56,-25 56,-56zm-22 0c0,-19 -15,-35 -34,-35 -19,0 -34,16 -34,35 0,19 15,34 34,34 19,0 34,-15 34,-34z"/>
   </g>
  </g>
  <g id="Base">
   <circle class="fil0 str3" cx="3645" cy="4251" r="197"/>
   <line class="fil4 str4" x1="1397" y1="1615" x2="5896" y2= "1615" />
   <line class="fil4 str4" x1="5896" y1="6885" x2="1397" y2= "6885" />
   <circle class="fil4 str5" cx="3645" cy="4251" r="3465"/>
  </g>
  <g id="Rigth_x0020_motor">
   <rect class="fil6" x="3278" y="6410" width="753" height="492" rx="60" ry="28"/>
   <rect class="fil5" x="3278" y="5229" width="753" height="1181" rx="60" ry="67"/>
   <rect class="fil6" x="3278" y="4625" width="753" height="603" rx="60" ry="34"/>
   <rect class="fil2" x="3406" y="5622" width="625" height="591"/>
   <rect class="fil2" x="3491" y="5336" width="72.4449" height="136.835"/>
   <rect class="fil2" x="3774" y="5336" width="72.4449" height="136.835"/>
  </g>
  <g id="Left_x0020_motor">
   <rect class="fil6" x="3278" y="1598" width="753" height="492" rx="60" ry="28"/>
   <rect class="fil5" x="3278" y="2090" width="753" height="1181" rx="60" ry="67"/>
   <rect class="fil6" x="3278" y="3271" width="753" height="603" rx="60" ry="34"/>
   <rect class="fil2" x="3406" y="2287" width="625" height="591"/>
   <rect class="fil2" x="3491" y="3027" width="72.4449" height="136.835"/>
   <rect class="fil2" x="3774" y="3027" width="72.4449" height="136.835"/>
  </g>
  <g id="Arduino">
   <path class="fil5" d="M6199 3680l0 -212 -407 0 0 212 222 0 -47 0 0 -61 50 0 0 0 84 0 0 0 48 0 0 61 -35 0 85 0zm-297 0l0 -61 -60 0 0 61 60 0z"/>
   <polygon class="fil7" points="5996,3472 5996,3384 6131,3384 6131,3472 "/>
   <rect class="fil8" x="4819" y="3554" width="1825" height="1442" rx="39" ry="39"/>
   <path class="fil9" d="M4975 3553l150 0c-124,36 -213,121 -213,254 0,134 141,269 314,269 173,0 314,-135 314,-269 0,-133 -89,-218 -212,-254l283 0c29,34 52,72 69,113 18,-41 42,-79 73,-113l279 0c-123,36 -212,121 -212,254 0,134 141,269 314,269 173,0 314,-135 314,-269 0,-133 -89,-218 -212,-254l279 0c64,70 102,92 102,254 0,163 -245,414 -483,414 -238,0 -387,-114 -454,-273 -67,159 -256,273 -454,273 -198,0 -318,-111 -409,-232l0 -399c11,-11 24,-23 37,-37l121 0z"/>
   <path class="fil2 str6" d="M6590 4905c0,15 -12,27 -26,27 -15,0 -27,-12 -27,-27 0,-14 12,-26 27,-26 14,0 26,12 26,26zm-78 0c0,15 -12,27 -27,27 -15,0 -27,-12 -27,-27 0,-14 12,-26 27,-26 15,0 27,12 27,26zm-79 0c0,15 -12,27 -27,27 -14,0 -26,-12 -26,-27 0,-14 12,-26 26,-26 15,0 27,12 27,26zm-79 0c0,15 -12,27 -26,27 -15,0 -27,-12 -27,-27 0,-14 12,-26 27,-26 14,0 26,12 26,26zm-79 0c0,15 -12,27 -26,27 -15,0 -27,-12 -27,-27 0,-14 12,-26 27,-26 14,0 26,12 26,26zm-78 0c0,15 -12,27 -27,27 -15,0 -26,-12 -26,-27 0,-14 11,-26 26,-26 15,0 27,12 27,26zm-79 0c0,15 -12,27 -27,27 -14,0 -26,-12 -26,-27 0,-14 12,-26 26,-26 15,0 27,12 27,26zm-79 0c0,15 -12,27 -26,27 -15,0 -27,-12 -27,-27 0,-14 12,-26 27,-26 14,0 26,12 26,26zm-79 0c0,15 -12,27 -26,27 -15,0 -27,-12 -27,-27 0,-14 12,-26 27,-26 14,0 26,12 26,26zm-78 0c0,15 -12,27 -27,27 -15,0 -26,-12 -26,-27 0,-14 11,-26 26,-26 15,0 27,12 27,26zm-79 0c0,15 -12,27 -27,27 -14,0 -26,-12 -26,-27 0,-14 12,-26 26,-26 15,0 27,12 27,26zm-79 0c0,15 -12,27 -26,27 -15,0 -27,-12 -27,-27 0,-14 12,-26 27,-26 14,0 26,12 26,26zm-77 0c0,15 -12,27 -26,27 -15,0 -27,-12 -27,-27 0,-14 12,-26 27,-26 14,0 26,12 26,26zm-78 0c0,15 -12,27 -27,27 -15,0 -27,-12 -27,-27 0,-14 12,-26 27,-26 15,0 27,12 27,26zm-79 0c0,15 -12,27 -27,27 -14,0 -26,-12 -26,-27 0,-14 12,-26 26,-26 15,0 27,12 27,26zm-79 0c0,15 -12,27 -26,27 -15,0 -27,-12 -27,-27 0,-14 12,-26 27,-26 14,0 26,12 26,26zm1179 -826c0,14 -12,26 -26,26 -15,0 -27,-12 -27,-26 0,-15 12,-27 27,-27 14,0 26,12 26,27zm-78 0c0,14 -12,26 -27,26 -15,0 -27,-12 -27,-26 0,-15 12,-27 27,-27 15,0 27,12 27,27zm-79 0c0,14 -12,26 -27,26 -14,0 -26,-12 -26,-26 0,-15 12,-27 26,-27 15,0 27,12 27,27zm-79 0c0,14 -12,26 -26,26 -15,0 -27,-12 -27,-26 0,-15 12,-27 27,-27 14,0 26,12 26,27zm-79 0c0,14 -12,26 -26,26 -15,0 -27,-12 -27,-26 0,-15 12,-27 27,-27 14,0 26,12 26,27zm-78 0c0,14 -12,26 -27,26 -15,0 -26,-12 -26,-26 0,-15 11,-27 26,-27 15,0 27,12 27,27zm-79 0c0,14 -12,26 -27,26 -14,0 -26,-12 -26,-26 0,-15 12,-27 26,-27 15,0 27,12 27,27zm-79 0c0,14 -12,26 -26,26 -15,0 -27,-12 -27,-26 0,-15 12,-27 27,-27 14,0 26,12 26,27zm-79 0c0,14 -12,26 -26,26 -15,0 -27,-12 -27,-26 0,-15 12,-27 27,-27 14,0 26,12 26,27zm-78 0c0,14 -12,26 -27,26 -15,0 -26,-12 -26,-26 0,-15 11,-27 26,-27 15,0 27,12 27,27zm-79 0c0,14 -12,26 -27,26 -14,0 -26,-12 -26,-26 0,-15 12,-27 26,-27 15,0 27,12 27,27zm-79 0c0,14 -12,26 -26,26 -15,0 -27,-12 -27,-26 0,-15 12,-27 27,-27 14,0 26,12 26,27zm-155 689c0,14 -12,26 -27,26 -15,0 -27,-12 -27,-26 0,-15 12,-27 27,-27 15,0 27,12 27,27zm-79 0c0,14 -12,26 -27,26 -14,0 -26,-12 -26,-26 0,-15 12,-27 26,-27 15,0 27,12 27,27zm-79 0c0,14 -12,26 -26,26 -15,0 -27,-12 -27,-26 0,-15 12,-27 27,-27 14,0 26,12 26,27zm1179 -1130c0,14 -12,26 -26,26 -15,0 -27,-12 -27,-26 0,-15 12,-27 27,-27 14,0 26,12 26,27zm-78 0c0,14 -12,26 -27,26 -15,0 -27,-12 -27,-26 0,-15 12,-27 27,-27 15,0 27,12 27,27zm-79 0c0,14 -12,26 -27,26 -14,0 -26,-12 -26,-26 0,-15 12,-27 26,-27 15,0 27,12 27,27zm-79 0c0,14 -12,26 -26,26 -15,0 -27,-12 -27,-26 0,-15 12,-27 27,-27 14,0 26,12 26,27zm-79 0c0,14 -12,26 -26,26 -15,0 -27,-12 -27,-26 0,-15 12,-27 27,-27 14,0 26,12 26,27zm-78 0c0,14 -12,26 -27,26 -15,0 -26,-12 -26,-26 0,-15 11,-27 26,-27 15,0 27,12 27,27zm-79 0c0,14 -12,26 -27,26 -14,0 -26,-12 -26,-26 0,-15 12,-27 26,-27 15,0 27,12 27,27zm-79 0c0,14 -12,26 -26,26 -15,0 -27,-12 -27,-26 0,-15 12,-27 27,-27 14,0 26,12 26,27zm-79 0c0,14 -12,26 -26,26 -15,0 -27,-12 -27,-26 0,-15 12,-27 27,-27 14,0 26,12 26,27zm-78 0c0,14 -12,26 -27,26 -15,0 -26,-12 -26,-26 0,-15 11,-27 26,-27 15,0 27,12 27,27zm-79 0c0,14 -12,26 -27,26 -14,0 -26,-12 -26,-26 0,-15 12,-27 26,-27 15,0 27,12 27,27zm-79 0c0,14 -12,26 -26,26 -15,0 -27,-12 -27,-26 0,-15 12,-27 27,-27 14,0 26,12 26,27zm-77 0c0,14 -12,26 -26,26 -15,0 -27,-12 -27,-26 0,-15 12,-27 27,-27 14,0 26,12 26,27zm-78 0c0,14 -12,26 -27,26 -15,0 -27,-12 -27,-26 0,-15 12,-27 27,-27 15,0 27,12 27,27zm-79 0c0,14 -12,26 -27,26 -14,0 -26,-12 -26,-26 0,-15 12,-27 26,-27 15,0 27,12 27,27zm-79 0c0,14 -12,26 -26,26 -15,0 -27,-12 -27,-26 0,-15 12,-27 27,-27 14,0 26,12 26,27zm158 1035c0,15 -12,27 -27,27 -15,0 -27,-12 -27,-27 0,-15 12,-26 27,-26 15,0 27,11 27,26zm-79 0c0,15 -12,27 -27,27 -14,0 -26,-12 -26,-27 0,-15 12,-26 26,-26 15,0 27,11 27,26zm-79 0c0,15 -12,27 -26,27 -15,0 -27,-12 -27,-27 0,-15 12,-26 27,-26 14,0 26,11 26,26zm-341 -22c0,29 -24,52 -53,52 -29,0 -53,-23 -53,-52 0,-30 24,-53 53,-53 29,0 53,23 53,53zm-102 106c0,29 -24,53 -53,53 -30,0 -53,-24 -53,-53 0,-29 23,-53 53,-53 29,0 53,24 53,53zm0 -221c0,30 -24,53 -53,53 -30,0 -53,-23 -53,-53 0,-29 23,-53 53,-53 29,0 53,24 53,53zm146 -740c0,29 -24,53 -53,53 -29,0 -53,-24 -53,-53 0,-29 24,-53 53,-53 29,0 53,24 53,53zm-154 154c0,29 -23,53 -53,53 -29,0 -53,-24 -53,-53 0,-30 24,-53 53,-53 30,0 53,23 53,53zm0 -154c0,29 -23,53 -53,53 -29,0 -53,-24 -53,-53 0,-29 24,-53 53,-53 30,0 53,24 53,53zm154 154c0,29 -24,53 -53,53 -29,0 -53,-24 -53,-53 0,-30 24,-53 53,-53 29,0 53,23 53,53z"/>
   <path class="fil10" d="M6257 4642c46,0 86,25 101,60 14,-35 54,-60 100,-60 59,0 107,41 107,91 0,51 -48,92 -107,92 -46,0 -86,-25 -100,-60 -15,35 -55,60 -101,60 -59,0 -107,-41 -107,-92 0,-50 48,-91 107,-91zm-10 133l0 -31 -32 0 0 -21 32 0 0 -31 21 0 0 31 31 0 0 21 -31 0 0 31 -21 0zm106 -58l0 0 0 0 0 0zm0 32l0 1 0 0 0 -1zm105 -75c38,0 69,26 69,59 0,33 -31,60 -69,60 -38,0 -69,-27 -69,-60 0,-33 31,-59 69,-59zm-201 0c39,0 70,26 70,59 0,33 -31,60 -70,60 -38,0 -69,-27 -69,-60 0,-33 31,-59 69,-59z"/>
  </g>
  <path class="fil4 str7" d="M944 2951l0 167c0,34 3,52 24,75 22,22 41,26 75,27l2304 0"/>
  <g id="Raspberry_x0020_Pi">
   <g id="Raspberry">
    <path class="fil8" d="M5413 2177l0 1485c0,86 -71,157 -158,157l-2160 0c-87,0 -158,-71 -158,-157l0 -1485c0,-86 71,-157 158,-157l2160 0c87,0 158,71 158,157z"/>
    <path class="fil11" d="M5299 2252l0 1335c0,78 -65,142 -143,142l-1962 0c-78,0 -143,-64 -143,-142l0 -1335c0,-78 65,-142 143,-142l1962 0c78,0 143,64 143,142z"/>
    <polygon class="fil12" points="4019,2602 4019,3111 3510,3111 3510,2602 "/>
    <polygon class="fil0" points="3996,2626 3996,3088 3534,3088 3534,2626 "/>
    <path class="fil0" d="M4076 2203l0 242 -899 0 0 -242 899 0zm-45 77c0,17 -14,31 -32,31 -17,0 -31,-14 -31,-31 0,-18 14,-32 31,-32 18,0 32,14 32,32zm0 90c0,18 -14,32 -32,32 -17,0 -31,-14 -31,-32 0,-17 14,-31 31,-31 18,0 32,14 32,31zm-95 -90c0,17 -14,31 -31,31 -18,0 -32,-14 -32,-31 0,-18 14,-32 32,-32 17,0 31,14 31,32zm0 90c0,18 -14,32 -31,32 -18,0 -32,-14 -32,-32 0,-17 14,-31 32,-31 17,0 31,14 31,31zm-90 -90c0,17 -14,31 -32,31 -17,0 -31,-14 -31,-31 0,-18 14,-32 31,-32 18,0 32,14 32,32zm0 90c0,18 -14,32 -32,32 -17,0 -31,-14 -31,-32 0,-17 14,-31 31,-31 18,0 32,14 32,31zm-95 -90c0,17 -14,31 -31,31 -18,0 -32,-14 -32,-31 0,-18 14,-32 32,-32 17,0 31,14 31,32zm0 90c0,18 -14,32 -31,32 -18,0 -32,-14 -32,-32 0,-17 14,-31 32,-31 17,0 31,14 31,31zm-94 -90c0,17 -14,31 -32,31 -17,0 -31,-14 -31,-31 0,-18 14,-32 31,-32 18,0 32,14 32,32zm0 90c0,18 -14,32 -32,32 -17,0 -31,-14 -31,-32 0,-17 14,-31 31,-31 18,0 32,14 32,31zm-91 -90c0,17 -14,31 -31,31 -18,0 -32,-14 -32,-31 0,-18 14,-32 32,-32 17,0 31,14 31,32zm0 90c0,18 -14,32 -31,32 -18,0 -32,-14 -32,-32 0,-17 14,-31 32,-31 17,0 31,14 31,31zm-94 -90c0,17 -14,31 -32,31 -17,0 -31,-14 -31,-31 0,-18 14,-32 31,-32 18,0 32,14 32,32zm0 90c0,18 -14,32 -32,32 -17,0 -31,-14 -31,-32 0,-17 14,-31 31,-31 18,0 32,14 32,31zm-95 -90c0,17 -14,31 -31,31 -18,0 -32,-14 -32,-31 0,-18 14,-32 32,-32 17,0 31,14 31,32zm0 90c0,18 -14,32 -31,32 -18,0 -32,-14 -32,-32 0,-17 14,-31 32,-31 17,0 31,14 31,31zm-90 -90c0,17 -14,31 -32,31 -17,0 -31,-14 -31,-31 0,-18 14,-32 31,-32 18,0 32,14 32,32zm0 90c0,18 -14,32 -32,32 -17,0 -31,-14 -31,-32 0,-17 14,-31 31,-31 18,0 32,14 32,31z"/>
    <polygon class="fil5" points="5413,2193 5413,2601 5042,2601 5042,2193 "/>
    <polygon class="fil12" points="5413,2193 5413,2601 5528,2601 5528,2193 "/>
    <polygon class="fil10" points="5462,2295 5462,2344 5297,2344 5297,2295 "/>
    <polygon class="fil10" points="5462,2449 5462,2498 5297,2498 5297,2449 "/>
    <polygon class="fil5" points="5413,2670 5413,3077 5042,3077 5042,2670 "/>
    <polygon class="fil12" points="5413,2670 5413,3077 5528,3077 5528,2670 "/>
    <polygon class="fil10" points="5462,2771 5462,2821 5297,2821 5297,2771 "/>
    <polygon class="fil10" points="5462,2925 5462,2974 5297,2974 5297,2925 "/>
    <polygon class="fil5" points="5413,3154 5413,3665 4918,3665 4918,3154 "/>
    <polygon class="fil12" points="5413,3154 5413,3665 5471,3665 5471,3154 "/>
    <polygon class="fil12" points="4756,2605 4756,2859 4502,2859 4502,2605 "/>
    <polygon class="fil0" points="4733,2628 4733,2836 4525,2836 4525,2628 "/>
    <polygon class="fil0" points="3247,2616 3247,3223 3100,3223 3100,2616 "/>
    <polygon class="fil5" points="3220,2644 3220,3195 3127,3195 3127,2644 "/>
    <polygon class="fil0" points="4430,3066 4430,3673 4283,3673 4283,3066 "/>
    <polygon class="fil5" points="4403,3094 4403,3645 4310,3645 4310,3094 "/>
    <polygon class="fil0" points="4776,3411 4776,3815 4545,3815 4545,3411 "/>
    <polygon class="fil7" points="4725,3883 4725,3815 4596,3815 4596,3883 "/>
    <polygon class="fil5" points="4731,3624 4731,3770 4590,3770 4590,3624 "/>
    <polygon class="fil5" points="4174,3822 3590,3822 3590,3523 4174,3523 "/>
    <polygon class="fil12" points="4174,3822 3590,3822 3590,3915 4174,3915 "/>
    <polygon class="fil10" points="4103,3861 4032,3861 4032,3729 4103,3729 "/>
    <polygon class="fil10" points="3722,3861 3651,3861 3651,3729 3722,3729 "/>
    <polygon class="fil0" points="3051,3093 3051,2746 2937,2746 2937,3093 "/>
    <polygon class="fil7" points="2937,3093 2937,2746 2852,2746 2852,3093 "/>
   </g>
   <g id="Rpi">
    <path class="fil8" d="M4266 2539c-51,-51 -81,-33 -142,-21 -8,54 6,75 35,96l-44 87c-49,80 52,203 131,214 38,5 63,-19 90,-34 42,-33 33,-18 60,-66 29,-81 34,-59 -26,-183 16,-17 78,-82 26,-110 -23,-14 -73,-17 -104,-2 -2,1 -4,3 -6,4l-20 15z"/>
    <path class="fil11" d="M4230 2612c-3,-22 0,-15 -10,-29l-19 -21c36,14 18,18 53,20 5,-94 -179,-64 -89,18 27,25 36,18 65,12z"/>
    <path class="fil11" d="M4280 2576l11 4c15,-1 3,2 18,-3 16,-6 16,-10 38,-16 -57,47 -39,18 -46,50 34,16 65,7 83,-30 37,-73 -113,-65 -104,-5z"/>
    <path class="fil11" d="M4226 2761c24,-27 42,-97 -22,-84 -41,8 -73,92 22,84z"/>
    <path class="fil11" d="M4240 2768c-55,26 -13,92 38,70 50,-21 17,-96 -38,-70z"/>
    <path class="fil11" d="M4340 2764c30,-43 9,-98 -39,-85 -42,12 -40,89 39,85z"/>
    <path class="fil11" d="M4319 2855c41,12 60,-26 55,-71 -24,0 -35,3 -50,20 -35,43 -5,50 -5,51z"/>
    <path class="fil11" d="M4192 2851c1,-1 34,-5 -2,-50 -12,-15 -21,-19 -42,-18 -15,39 11,77 44,68z"/>
    <path class="fil11" d="M4224 2645c20,33 57,38 77,3 -22,-24 -67,-36 -77,-3z"/>
    <path class="fil11" d="M4220 2868c-7,30 52,49 79,1 -31,-14 -45,-16 -79,-1z"/>
    <path class="fil11" d="M4122 2771c21,-11 12,15 25,-26 7,-20 2,-26 -2,-40 -36,16 -28,31 -23,66z"/>
    <path class="fil11" d="M4384 2776c5,-5 7,-2 12,-15 5,-12 6,-13 3,-26 -5,-19 -15,-22 -27,-27 -4,35 -4,43 12,68z"/>
    <path class="fil11" d="M4371 2688c-8,-37 -16,-45 -55,-53 11,34 18,35 55,53z"/>
    <path class="fil11" d="M4151 2679c34,-14 44,-18 58,-47 -41,3 -49,10 -58,47z"/>
   </g>
  </g>
  <path class="fil1" d="M6181 4248c-44,-80 -72,-122 -147,-198 -74,-80 -113,-111 -258,-208l0 0c-268,-218 -478,-374 -805,-541 -253,-101 -327,-131 -617,-180l0 497c292,11 461,19 825,75 250,35 288,58 597,149l0 0c164,51 271,87 413,170 143,84 187,124 319,236l-327 0z"/>
  <g id="Webcam">
   <rect class="fil11" x="6861" y="3879" width="45.2923" height="732.094" rx="29" ry="24"/>
   <rect class="fil6" x="5691" y="3753" width="1169" height="984" rx="34" ry="71"/>
   <rect class="fil8" x="5828" y="4080" width="895" height="329" rx="24" ry="24"/>
   <polygon class="fil6" points="6944,4172 6987,4186 6987,4303 6944,4318 6944,4352 6904,4366 6904,4124 6944,4138 "/>
   <polygon class="fil13" points="6911,4456 6934,4467 6934,4496 6911,4506 "/>
  </g>
  <g id="_298681560">
   <circle class="fil7" cx="5752" cy="2055" r="217"/>
   <polygon class="fil12" points="5752,1917 5812,1951 5872,1986 5872,2055 5872,2124 5812,2159 5752,2194 5692,2159 5632,2124 5632,2055 5632,1986 5692,1951 "/>
   <circle class="fil2" cx="5752" cy="2055" r="79"/>
   <circle class="fil1" cx="5752" cy="2055" r="65"/>
  </g>
  <g id="_125791528">
   <circle class="fil7" cx="1512" cy="2055" r="217"/>
   <polygon class="fil12" points="1512,1917 1572,1951 1632,1986 1632,2055 1632,2124 1572,2159 1512,2194 1452,2159 1392,2124 1392,2055 1392,1986 1452,1951 "/>
   <circle class="fil2" cx="1512" cy="2055" r="79"/>
   <circle class="fil1" cx="1512" cy="2055" r="65"/>
  </g>
  <g id="_125789008">
   <circle class="fil7" cx="5752" cy="6461" r="217"/>
   <polygon class="fil12" points="5752,6322 5812,6357 5872,6391 5872,6461 5872,6530 5812,6564 5752,6599 5692,6564 5632,6530 5632,6461 5632,6391 5692,6357 "/>
   <circle class="fil2" cx="5752" cy="6461" r="79"/>
   <circle class="fil1" cx="5752" cy="6461" r="65"/>
  </g>
  <g id="_125788072">
   <circle class="fil7" cx="1512" cy="6461" r="217"/>
   <polygon class="fil12" points="1512,6322 1572,6357 1632,6391 1632,6461 1632,6530 1572,6564 1512,6599 1452,6564 1392,6530 1392,6461 1392,6391 1452,6357 "/>
   <circle class="fil2" cx="1512" cy="6461" r="79"/>
   <circle class="fil1" cx="1512" cy="6461" r="65"/>
  </g>
  <path class="fil6 str8" d="M5681 2661l0 427c0,22 -18,39 -39,39l-147 0c-22,0 -40,-17 -40,-39l0 -427c0,-21 18,-39 40,-39l147 0c21,0 39,18 39,39z"/>
  <path class="fil4 str9" d="M4748 4642c-668,6 -353,3 -859,3 -130,-1 -160,-20 -179,-143l0 -88c0,-133 122,-134 173,-134 297,3 1568,0 1761,0 51,-3 85,-4 116,-38 35,-38 33,-77 33,-134l0 -1026c-4,-57 -5,-77 -30,-140 -31,-50 -45,-64 -88,-69l0 0"/>
  <path class="fil6 str8" d="M4823 4571l0 141c0,22 -18,39 -39,39l-72 0c-21,0 -39,-17 -39,-39l0 -141c0,-21 18,-39 39,-39l72 0c21,0 39,18 39,39z"/>
  <polygon class="fil14" points="910,2670 1012,2670 1012,2956 869,2956 869,2717 "/>
  <path class="fil4 str7" d="M941 3999c-6,-668 -3,166 -3,-340 0,-130 19,-160 143,-179l1202 0c133,0 134,177 134,229 -4,296 -1,158 -1,351 4,51 5,85 39,116 37,35 77,33 134,33l975 0c88,0 96,1 146,-38 53,-54 94,-80 206,-80l903 0"/>
  <path class="fil4 str3" d="M3808 4362c-58,84 -171,112 -262,60 -59,-34 -93,-94 -98,-157m30 -118c56,-90 173,-119 265,-66 56,32 90,87 97,147"/>
  <g id="Wifi">
   <path class="fil6" d="M2144 4245c0,301 -244,545 -545,545 -300,0 -544,-244 -544,-545 0,-300 244,-544 544,-544 301,0 545,244 545,544zm-137 -257c0,48 -39,87 -87,87 -48,0 -87,-39 -87,-87 0,-47 39,-86 87,-86 48,0 87,39 87,86zm0 516c0,47 -39,86 -87,86 -48,0 -87,-39 -87,-86 0,-48 39,-87 87,-87 48,0 87,39 87,87zm-277 32l0 12c0,43 -36,79 -79,79l-259 0c-43,0 -79,-36 -79,-79l0 -12c0,-43 36,-78 79,-78l259 0c43,0 79,35 79,78zm-1 -593l0 12c0,43 -35,78 -79,78l-258 0c-44,0 -79,-35 -79,-78l0 -12c0,-43 35,-78 79,-78l258 0c44,0 79,35 79,78z"/>
   <polygon class="fil8" points="425,4681 425,3814 1433,3868 1497,3937 1497,4562 1433,4627 "/>
   <polygon class="fil0" points="630,4638 565,4585 565,3909 630,3855 1422,3900 1474,3965 1474,4538 1422,4599 "/>
   <line class="fil4 str10" x1="465" y1="3857" x2="465" y2= "4641" />
   <line class="fil4 str10" x1="512" y1="3877" x2="512" y2= "4627" />
   <path class="fil1" d="M925 4229l0 -29 -171 0 -161 -203 0 175 133 57 199 0zm0 37l0 29 -171 0 -161 203 0 -174 133 -58 199 0z"/>
   <path class="fil15" d="M951 4306l0 -119 23 0c5,0 9,0 12,1 4,2 7,5 10,9 3,5 6,12 8,20 1,9 2,18 2,29 0,9 0,17 -1,24 -2,7 -3,13 -5,17 -2,5 -4,8 -6,11 -2,3 -5,5 -8,6 -3,1 -7,2 -11,2l-24 0zm9 -14l14 0c5,0 8,-1 11,-2 2,-2 4,-4 6,-6 2,-4 3,-9 4,-15 2,-7 2,-15 2,-24 0,-12 -1,-22 -3,-28 -2,-7 -5,-12 -9,-14 -2,-2 -6,-2 -11,-2l-14 0 0 91zm54 -22l0 -14 26 0 0 14 -26 0zm35 36l0 -119 9 0 0 105 33 0 0 14 -42 0zm51 -103l0 -16 8 0 0 16 -8 0zm0 103l0 -87 8 0 0 87 -8 0zm21 0l0 -87 7 0 0 13c4,-10 9,-14 16,-14 3,0 5,1 8,2 2,2 4,5 5,8 1,3 2,6 3,11 0,2 0,7 0,14l0 53 -8 0 0 -53c0,-6 0,-10 -1,-13 -1,-3 -2,-5 -3,-7 -2,-2 -4,-3 -6,-3 -4,0 -7,2 -9,6 -3,4 -4,12 -4,23l0 47 -8 0zm52 0l0 -119 8 0 0 68 19 -36 11 0 -18 33 20 54 -10 0 -16 -44 -6 10 0 34 -8 0z"/>
   <polygon class="fil13" points="1444,4200 1444,4295 1349,4295 1349,4200 "/>
   <polygon class="fil13" points="1329,4200 1329,4295 1235,4295 1235,4200 "/>
   <line class="fil4 str11" x1="1235" y1="4327" x2="1442" y2= "4327" />
   <line class="fil4 str11" x1="1235" y1="4169" x2="1442" y2= "4169" />
   <polygon class="fil5" points="1498,4103 1498,4401 1725,4385 1725,4117 "/>
   <polygon class="fil16" points="1692,4159 1692,4207 1563,4207 1563,4159 "/>
   <polygon class="fil16" points="1692,4297 1692,4344 1563,4344 1563,4297 "/>
  </g>
 </g>
</svg>
