<?xml version="1.0" encoding="UTF-8"?>
<!DOCTYPE svg PUBLIC "-//W3C//DTD SVG 1.1//EN" "http://www.w3.org/Graphics/SVG/1.1/DTD/svg11.dtd">
<!-- Creator: CorelDRAW X6 -->
<svg xmlns="http://www.w3.org/2000/svg" xml:space="preserve" width="50px" height="50px" version="1.1" style="shape-rendering:geometricPrecision; text-rendering:geometricPrecision; image-rendering:optimizeQuality; fill-rule:evenodd; clip-rule:evenodd"
viewBox="0 0 50 50"
 xmlns:xlink="http://www.w3.org/1999/xlink">
 <defs>
  <style type="text/css">
   <![CDATA[
    .fil0 {fill:white}
   ]]>
  </style>
 </defs>
 <g id="Layer_x0020_1">
  <metadata id="CorelCorpID_0Corel-Layer"/>
  <path class="fil0" d="M7 23l16 -16c1,-1 3,-1 4,0l16 16c1,1 1,3 0,4l-16 16c-1,1 -3,1 -4,0l-16 -16c-1,-1 -1,-3 0,-4zm12 -7l12 0c2,0 3,1 3,3l0 12c0,2 -1,3 -3,3l-12 0c-2,0 -3,-1 -3,-3l0 -12c0,-2 1,-3 3,-3z"/>
 </g>
</svg>
