<?xml version="1.0" encoding="UTF-8"?>
<!DOCTYPE svg PUBLIC "-//W3C//DTD SVG 1.1//EN" "http://www.w3.org/Graphics/SVG/1.1/DTD/svg11.dtd">
<!-- Creator: CorelDRAW X6 -->
<!-- Author: Antonio Serrano (asm.holguin@gmail.com) -->
<svg xmlns="http://www.w3.org/2000/svg" xml:space="preserve" width="40px" height="40px" version="1.1" style="shape-rendering:geometricPrecision; text-rendering:geometricPrecision; image-rendering:optimizeQuality; fill-rule:evenodd; clip-rule:evenodd"
viewBox="0 0 40 40"
 xmlns:xlink="http://www.w3.org/1999/xlink">
 <defs>
  <style type="text/css">
   <![CDATA[
    .fil0 {fill:white;fill-rule:nonzero}
   ]]>
  </style>
 </defs>
 <g id="Layer_x0020_1">
  <metadata id="CorelCorpID_0Corel-Layer"/>
  <path class="fil0" d="M15 31l2 0c1,0 1,-1 1,-1 0,0 0,0 0,0l0 -18 -5 0c0,0 0,0 0,0 0,0 0,0 0,0l-2 4 -1 0 0 -6 20 0 0 6 -1 0 -1 -4c0,0 0,0 0,0 0,0 -1,0 -1,0l-4 0 0 18c0,0 0,0 0,0 0,0 0,1 0,1l3 0 0 1 -11 0 0 -1z"/>
 </g>
</svg>
