<?xml version="1.0" encoding="UTF-8"?>
<!DOCTYPE svg PUBLIC "-//W3C//DTD SVG 1.1//EN" "http://www.w3.org/Graphics/SVG/1.1/DTD/svg11.dtd">
<!-- Creator: CorelDRAW X6 -->
<svg xmlns="http://www.w3.org/2000/svg" xml:space="preserve" width="50px" height="50px" version="1.1" style="shape-rendering:geometricPrecision; text-rendering:geometricPrecision; image-rendering:optimizeQuality; fill-rule:evenodd; clip-rule:evenodd"
viewBox="0 0 50 50"
 xmlns:xlink="http://www.w3.org/1999/xlink">
 <defs>
  <style type="text/css">
   <![CDATA[
    .fil0 {fill:white;fill-rule:nonzero}
   ]]>
  </style>
 </defs>
 <g id="Layer_x0020_1">
  <metadata id="CorelCorpID_0Corel-Layer"/>
  <path class="fil0" d="M17 41l4 -1c0,0 0,-1 0,-1 1,0 1,0 1,-1l0 -26 -7 0c-1,0 -1,0 -1,0 0,0 0,0 0,0l-2 6 -2 0 0 -9 30 0 0 9 -2 0 -2 -6c0,0 0,0 0,0 0,0 0,0 -1,0l-7 0 0 26c0,1 0,1 1,1 0,0 0,1 0,1l4 1 0 1 -16 0 0 -1z"/>
 </g>
</svg>
