<?xml version="1.0" encoding="UTF-8"?>
<!DOCTYPE svg PUBLIC "-//W3C//DTD SVG 1.1//EN" "http://www.w3.org/Graphics/SVG/1.1/DTD/svg11.dtd">
<!-- Creator: CorelDRAW X6 -->
<!-- Author: Antonio Serrano (asm.holguin@gmail.com) -->
<svg xmlns="http://www.w3.org/2000/svg" xml:space="preserve" width="50px" height="50px" version="1.1" style="shape-rendering:geometricPrecision; text-rendering:geometricPrecision; image-rendering:optimizeQuality; fill-rule:evenodd; clip-rule:evenodd"
viewBox="0 0 50 50"
 xmlns:xlink="http://www.w3.org/1999/xlink">
 <defs>
  <style type="text/css">
   <![CDATA[
    .fil0 {fill:white}
   ]]>
  </style>
 </defs>
 <g id="Layer_x0020_1">
  <metadata id="CorelCorpID_0Corel-Layer"/>
  <path class="fil0" d="M9 21l32 0c1,0 2,1 2,3l0 2c0,2 -1,3 -2,3l-32 0c-1,0 -2,-1 -2,-3l0 -2c0,-2 1,-3 2,-3zm0 14l32 0c1,0 2,1 2,2l0 3c0,1 -1,2 -2,2l-32 0c-1,0 -2,-1 -2,-2l0 -3c0,-1 1,-2 2,-2zm0 -27l32 0c1,0 2,1 2,2l0 3c0,1 -1,2 -2,2l-32 0c-1,0 -2,-1 -2,-2l0 -3c0,-1 1,-2 2,-2z"/>
 </g>
</svg>
