<?xml version="1.0" encoding="UTF-8"?>
<!DOCTYPE svg PUBLIC "-//W3C//DTD SVG 1.1//EN" "http://www.w3.org/Graphics/SVG/1.1/DTD/svg11.dtd">
<!-- Creator: CorelDRAW X6 -->
<svg xmlns="http://www.w3.org/2000/svg" xml:space="preserve" width="50px" height="50px" version="1.1" style="shape-rendering:geometricPrecision; text-rendering:geometricPrecision; image-rendering:optimizeQuality; fill-rule:evenodd; clip-rule:evenodd"
viewBox="0 0 50 50"
 xmlns:xlink="http://www.w3.org/1999/xlink">
 <defs>
  <style type="text/css">
   <![CDATA[
    .fil0 {fill:white}
   ]]>
  </style>
 </defs>
 <g id="Layer_x0020_1">
  <metadata id="CorelCorpID_0Corel-Layer"/>
  <path class="fil0" d="M8 21l34 0c2,0 3,1 3,2l0 4c0,1 -1,2 -3,2l-34 0c-2,0 -3,-1 -3,-2l0 -4c0,-1 1,-2 3,-2zm0 15l34 0c2,0 3,1 3,2l0 4c0,1 -1,2 -3,2l-34 0c-2,0 -3,-1 -3,-2l0 -4c0,-1 1,-2 3,-2zm0 -30l34 0c2,0 3,1 3,2l0 4c0,1 -1,2 -3,2l-34 0c-2,0 -3,-1 -3,-2l0 -4c0,-1 1,-2 3,-2z"/>
 </g>
</svg>
