<?xml version="1.0" encoding="UTF-8"?>
<!DOCTYPE svg PUBLIC "-//W3C//DTD SVG 1.1//EN" "http://www.w3.org/Graphics/SVG/1.1/DTD/svg11.dtd">
<!-- Creator: CorelDRAW X6 -->
<svg xmlns="http://www.w3.org/2000/svg" xml:space="preserve" width="50px" height="50px" version="1.1" style="shape-rendering:geometricPrecision; text-rendering:geometricPrecision; image-rendering:optimizeQuality; fill-rule:evenodd; clip-rule:evenodd"
viewBox="0 0 50 50"
 xmlns:xlink="http://www.w3.org/1999/xlink">
 <defs>
  <style type="text/css">
   <![CDATA[
    .str0 {stroke:white;stroke-width:1.99967}
    .fil0 {fill:white}
   ]]>
  </style>
 </defs>
 <g id="Layer_x0020_1">
  <metadata id="CorelCorpID_0Corel-Layer"/>
  <path class="fil0 str0" d="M28 10c2,0 4,1 6,2l2 -2c1,-1 2,-1 3,0l1 1c1,1 1,2 0,3l-2 2c1,2 2,4 2,6l4 0c1,0 2,1 2,2l0 2c0,1 -1,2 -2,2l-3 0c-1,2 -2,4 -3,6l2 2c1,1 1,2 0,3l-1 1c-1,1 -2,1 -3,0l-2 -2c-2,1 -4,2 -6,2l0 3c0,1 -1,2 -2,2l-2 0c-1,0 -2,-1 -2,-2l0 -3c-2,0 -4,-1 -6,-2l-2 2c-1,1 -2,1 -3,0l-1 -1c-1,-1 -1,-2 0,-3l2 -2c-1,-2 -2,-4 -3,-6l-3 0c-1,0 -1,-1 -1,-2l0 -2c0,-1 0,-2 1,-2l4 0c0,-2 1,-4 2,-6l-2 -2c-1,-1 -1,-2 0,-3l1 -1c1,-1 2,-1 3,0l2 2c2,-1 4,-2 6,-2l0 -4c0,-1 1,-2 2,-2l2 0c1,0 2,1 2,2l0 4zm-3 3c6,0 12,6 12,12 0,6 -6,12 -12,12 -6,0 -12,-6 -12,-12 0,-6 6,-12 12,-12z"/>
 </g>
</svg>
