<?xml version="1.0" encoding="UTF-8"?>
<!DOCTYPE svg PUBLIC "-//W3C//DTD SVG 1.1//EN" "http://www.w3.org/Graphics/SVG/1.1/DTD/svg11.dtd">
<!-- Creator: CorelDRAW X6 -->
<svg xmlns="http://www.w3.org/2000/svg" xml:space="preserve" width="7.67717in" height="5.11811in" version="1.1" style="shape-rendering:geometricPrecision; text-rendering:geometricPrecision; image-rendering:optimizeQuality; fill-rule:evenodd; clip-rule:evenodd"
viewBox="0 0 7677 5118"
 xmlns:xlink="http://www.w3.org/1999/xlink">
 <defs>
  <style type="text/css">
   <![CDATA[
    .str9 {stroke:#1A1A1A;stroke-width:3}
    .str0 {stroke:white;stroke-width:3}
    .str1 {stroke:#333333;stroke-width:7.87402}
    .str4 {stroke:#999999;stroke-width:29.5276}
    .str3 {stroke:#E3B14D;stroke-width:29.5276}
    .str8 {stroke:#333333;stroke-width:39.3701;stroke-linecap:round;stroke-linejoin:round}
    .str2 {stroke:gray;stroke-width:39.3701;stroke-linecap:round;stroke-linejoin:round}
    .str6 {stroke:#B3B3B3;stroke-width:39.3701;stroke-linecap:round;stroke-linejoin:round}
    .str5 {stroke:#1A1A1A;stroke-width:78.7402}
    .str7 {stroke:gray;stroke-width:78.7402}
    .fil6 {fill:none}
    .fil13 {fill:black}
    .fil20 {fill:blue}
    .fil17 {fill:#009933}
    .fil4 {fill:#1A1A1A}
    .fil14 {fill:#32366B}
    .fil8 {fill:#333333}
    .fil5 {fill:#4D4D4D}
    .fil18 {fill:#666666}
    .fil2 {fill:gray}
    .fil11 {fill:#867903}
    .fil7 {fill:#999999}
    .fil1 {fill:#B3B3B3}
    .fil10 {fill:#CCCC33}
    .fil16 {fill:#CCCCCC}
    .fil12 {fill:#E3B14D}
    .fil0 {fill:#E6E6E6}
    .fil3 {fill:whitesmoke}
    .fil19 {fill:red}
    .fil9 {fill:#FFFF66}
    .fil15 {fill:white}
   ]]>
  </style>
 </defs>
 <g id="Layer_x0020_1">
  <metadata id="CorelCorpID_0Corel-Layer"/>
  <g id="_268861904">
   <g>
    <circle class="fil0" transform="matrix(4.84773E-014 -1.8304 1.8304 4.84773E-014 791.268 2561.07)" r="197"/>
    <circle class="fil1" transform="matrix(3.2576E-014 -1.23 1.23 3.2576E-014 791.268 2561.07)" r="197"/>
    <circle class="fil2" transform="matrix(1.76281E-014 -0.6656 0.6656 1.76281E-014 791.268 2561.07)" r="197"/>
    <circle class="fil3" transform="matrix(1.45432E-014 -0.54912 0.54912 1.45432E-014 791.268 2561.07)" r="197"/>
   </g>
   <path class="fil3 str0" d="M1092 3623l0 -2082c0,-66 33,-110 76,-110l711 0c10,0 2,2292 2,2292 0,0 -642,0 -713,0 -49,0 -76,-47 -76,-100z"/>
   <rect class="fil4 str1" x="1348" y="1535" width="182" height="535" rx="23" ry="19"/>
   <g>
    <polygon class="fil0" points="5675,1849 5675,3274 5456,3217 5456,1905 "/>
    <g>
     <circle class="fil5" transform="matrix(2.49092E-014 -0.940519 0.940523 2.49093E-014 5565.8 3112.26)" r="80"/>
     <path class="fil6 str2" d="M5525 3112l82 0m-41 -41l0 82"/>
    </g>
    <rect class="fil7" transform="matrix(2.51603E-014 -0.950001 1.03762 2.74809E-014 5675.49 3061.03)" width="383" height="178"/>
    <rect class="fil1" transform="matrix(2.51603E-014 -0.950001 1.03762 2.74809E-014 5675.49 2425.21)" width="383" height="178"/>
    <g>
     <circle class="fil5" transform="matrix(2.49092E-014 -0.940519 0.940523 2.49093E-014 5565.8 2009.89)" r="80"/>
     <path class="fil6 str2" d="M5525 2010l82 0m-41 -41l0 82"/>
    </g>
   </g>
   <g>
    <polygon class="fil0" points="282,2587 675,3957 871,3842 509,2580 "/>
    <g>
     <circle class="fil5" transform="matrix(-0.259242 -0.904085 -0.904088 0.259243 584.242 3241.43)" r="80"/>
     <path class="fil6 str2" d="M624 3230l-79 23m28 -51l23 79"/>
    </g>
    <rect class="fil7" transform="matrix(-0.261856 -0.9132 -0.997423 0.286006 616.614 3752.25)" width="383" height="178"/>
    <rect class="fil1" transform="matrix(-0.261856 -0.9132 -0.997423 0.286006 441.356 3141.06)" width="383" height="178"/>
   </g>
   <g>
    <polygon class="fil0" points="282,2533 675,1163 871,1277 509,2539 "/>
    <g>
     <circle class="fil5" transform="matrix(-0.259242 0.904085 -0.904088 -0.259243 584.242 1878.04)" r="80"/>
     <path class="fil6 str2" d="M624 1889l-79 -22m28 51l23 -80"/>
    </g>
    <rect class="fil7" transform="matrix(-0.261856 0.9132 -0.997423 -0.286006 616.614 1367.22)" width="383" height="178"/>
    <rect class="fil1" transform="matrix(-0.261856 0.9132 -0.997423 -0.286006 441.356 1978.42)" width="383" height="178"/>
   </g>
   <g>
    <g>
     <polygon class="fil2" points="3758,3831 3758,4152 3931,4152 3931,3831 "/>
     <path class="fil4" d="M2997 4882l0 -633c0,-53 44,-97 97,-97l1514 0c54,0 97,44 97,97l0 633c0,54 -43,98 -97,98l-1514 0c-53,0 -97,-44 -97,-98z"/>
     <path class="fil8" d="M2997 4579l0 92 1708 0 0 -92 -1708 0zm0 -118l0 92 1708 0 0 -92 -1708 0zm1439 -34l59 -196 169 0 -59 196 -169 0zm106 -196l-47 157 74 0 47 -157 -74 0zm-307 196l59 -196 169 0 -59 196 -169 0zm107 -196l-48 157 74 0 48 -157 -74 0zm-308 196l59 -196 170 0 -59 196 -170 0zm107 -196l-47 157 74 0 47 -157 -74 0zm-308 196l59 -196 170 0 -59 196 -170 0zm107 -196l-47 157 74 0 47 -157 -74 0zm-308 196l59 -196 170 0 -59 196 -170 0zm107 -196l-47 157 74 0 47 -157 -74 0zm-307 196l59 -196 169 0 -59 196 -169 0zm106 -196l-47 157 74 0 47 -157 -74 0zm-307 196l59 -196 170 0 -60 196 -169 0zm107 -196l-48 157 74 0 48 -157 -74 0zm-308 196l59 -196 170 0 -59 196 -170 0zm107 -196l-47 157 74 0 47 -157 -74 0zm1299 472l59 197 169 0 -59 -197 -169 0zm106 197l-47 -157 74 0 47 157 -74 0zm-307 -197l59 197 169 0 -59 -197 -169 0zm107 197l-48 -157 74 0 48 157 -74 0zm-308 -197l59 197 170 0 -59 -197 -170 0zm107 197l-47 -157 74 0 47 157 -74 0zm-308 -197l59 197 170 0 -59 -197 -170 0zm107 197l-47 -157 74 0 47 157 -74 0zm-308 -197l59 197 170 0 -59 -197 -170 0zm107 197l-47 -157 74 0 47 157 -74 0zm-307 -197l59 197 169 0 -59 -197 -169 0zm106 197l-47 -157 74 0 47 157 -74 0zm-307 -197l59 197 170 0 -60 -197 -169 0zm107 197l-48 -157 74 0 48 157 -74 0zm-308 -197l59 197 170 0 -59 -197 -170 0zm107 197l-47 -157 74 0 47 157 -74 0z"/>
    </g>
    <g>
     <polygon class="fil2" points="3758,1287 3758,966 3931,966 3931,1287 "/>
     <path class="fil4" d="M2997 236l0 633c0,53 44,97 97,97l1514 0c54,0 97,-44 97,-97l0 -633c0,-54 -43,-97 -97,-97l-1514 0c-53,0 -97,43 -97,97z"/>
     <path class="fil8" d="M2997 539l0 -92 1708 0 0 92 -1708 0zm0 118l0 -91 1708 0 0 91 -1708 0zm1439 34l59 197 169 0 -59 -197 -169 0zm106 197l-47 -158 74 0 47 158 -74 0zm-307 -197l59 197 169 0 -59 -197 -169 0zm107 197l-48 -158 74 0 48 158 -74 0zm-308 -197l59 197 170 0 -59 -197 -170 0zm107 197l-47 -158 74 0 47 158 -74 0zm-308 -197l59 197 170 0 -59 -197 -170 0zm107 197l-47 -158 74 0 47 158 -74 0zm-308 -197l59 197 170 0 -59 -197 -170 0zm107 197l-47 -158 74 0 47 158 -74 0zm-307 -197l59 197 169 0 -59 -197 -169 0zm106 197l-47 -158 74 0 47 158 -74 0zm-307 -197l59 197 170 0 -60 -197 -169 0zm107 197l-48 -158 74 0 48 158 -74 0zm-308 -197l59 197 170 0 -59 -197 -170 0zm107 197l-47 -158 74 0 47 158 -74 0zm1299 -473l59 -196 169 0 -59 196 -169 0zm106 -196l-47 157 74 0 47 -157 -74 0zm-307 196l59 -196 169 0 -59 196 -169 0zm107 -196l-48 157 74 0 48 -157 -74 0zm-308 196l59 -196 170 0 -59 196 -170 0zm107 -196l-47 157 74 0 47 -157 -74 0zm-308 196l59 -196 170 0 -59 196 -170 0zm107 -196l-47 157 74 0 47 -157 -74 0zm-308 196l59 -196 170 0 -59 196 -170 0zm107 -196l-47 157 74 0 47 -157 -74 0zm-307 196l59 -196 169 0 -59 196 -169 0zm106 -196l-47 157 74 0 47 -157 -74 0zm-307 196l59 -196 170 0 -60 196 -169 0zm107 -196l-48 157 74 0 48 -157 -74 0zm-308 196l59 -196 170 0 -59 196 -170 0zm107 -196l-47 157 74 0 47 -157 -74 0z"/>
    </g>
   </g>
   <g>
    <rect class="fil8" transform="matrix(-2.64845E-014 1 -0.460485 -1.21957E-014 3407.39 3257.13)" width="753" height="1068" rx="60" ry="60"/>
    <rect class="fil9" transform="matrix(-2.64845E-014 1 -1.10608 -2.92939E-014 4588.5 3257.13)" width="753" height="1068" rx="60" ry="60"/>
    <rect class="fil10" transform="matrix(-2.19804E-014 0.829932 -0.553038 -1.4647E-014 4195.2 3385.27)" width="753" height="1068"/>
    <rect class="fil10" transform="matrix(-2.54644E-015 0.096148 -0.128143 -3.39381E-015 4481.64 3469.73)" width="753" height="1068"/>
    <rect class="fil10" transform="matrix(-2.54644E-015 0.096148 -0.128143 -3.39381E-015 4481.64 3753.19)" width="753" height="1068"/>
   </g>
   <g id="Board">
    <path class="fil11" d="M1171 3512l0 -1206c0,-64 53,-118 118,-118l1429 0c65,0 118,54 118,118l0 1206c0,65 -53,118 -118,118l-1429 0c-65,0 -118,-53 -118,-118z"/>
    <path class="fil12" d="M1237 3451l0 -1084c0,-59 48,-107 107,-107l1319 0c59,0 107,48 107,107l0 1084c0,59 -48,107 -107,107l-1319 0c-59,0 -107,-48 -107,-107zm25 -18l0 -1048c0,-57 46,-103 103,-103l1277 0c56,0 103,46 103,103l0 1048c0,57 -47,103 -103,103l-1277 0c-57,0 -103,-46 -103,-103z"/>
    <path class="fil12" d="M1531 3412c0,-29 24,-53 53,-53 29,0 53,24 53,53 0,29 -24,53 -53,53 -29,0 -53,-24 -53,-53z"/>
    <path class="fil12" d="M1385 3412c0,-29 24,-53 53,-53 29,0 53,24 53,53 0,29 -24,53 -53,53 -29,0 -53,-24 -53,-53z"/>
    <path class="fil12" d="M1677 3412c0,-29 23,-53 53,-53 29,0 52,24 52,53 0,29 -23,53 -52,53 -30,0 -53,-24 -53,-53z"/>
    <path class="fil12" d="M1940 3412c0,-29 24,-53 53,-53 29,0 53,24 53,53 0,29 -24,53 -53,53 -29,0 -53,-24 -53,-53z"/>
    <path class="fil12" d="M2086 3412c0,-29 24,-53 53,-53 29,0 53,24 53,53 0,29 -24,53 -53,53 -29,0 -53,-24 -53,-53z"/>
    <path class="fil12" d="M1385 2416c0,-29 24,-53 53,-53 29,0 53,24 53,53 0,29 -24,53 -53,53 -29,0 -53,-24 -53,-53z"/>
    <path class="fil12" d="M1385 2570c0,-29 24,-53 53,-53 29,0 53,24 53,53 0,29 -24,53 -53,53 -29,0 -53,-24 -53,-53z"/>
    <polyline class="fil6 str3" points="1426,3412 1338,3319 1338,2499 1426,2416 "/>
    <polyline class="fil6 str3" points="1584,3412 1435,3260 1438,2570 "/>
    <path class="fil12" d="M1677 2420c0,-29 23,-53 53,-53 29,0 52,24 52,53 0,29 -23,53 -52,53 -30,0 -53,-24 -53,-53z"/>
    <line class="fil6 str3" x1="1730" y1="3412" x2="1730" y2= "2420" />
    <path class="fil1" d="M2004 2382l0 -213 382 0 0 213 -208 0 44 0 0 -61 -47 0 0 0 -79 0 0 0 -45 0 0 61 33 0 -80 0zm279 0l0 -61 57 0 0 61 -57 0z"/>
    <polygon class="fil13" points="2195,2169 2195,2082 2068,2082 2068,2169 "/>
    <path class="fil12" d="M1974 2420c0,-29 23,-53 52,-53 30,0 53,24 53,53 0,29 -23,53 -53,53 -29,0 -52,-24 -52,-53z"/>
    <path class="fil12" d="M2197 2423c0,-29 24,-53 53,-53 29,0 53,24 53,53 0,29 -24,53 -53,53 -29,0 -53,-24 -53,-53z"/>
    <path class="fil12" d="M2311 2423c0,-29 24,-53 53,-53 29,0 53,24 53,53 0,29 -24,53 -53,53 -29,0 -53,-24 -53,-53z"/>
    <polyline class="fil6 str3" points="2364,2423 2364,2536 2489,2661 "/>
    <polyline class="fil6 str3" points="2139,3412 2140,2798 2190,2749 2489,2749 "/>
    <path class="fil14" d="M2341 2680c0,-81 66,-147 148,-147 81,0 147,66 147,147 0,82 -66,148 -147,148 -82,0 -148,-66 -148,-148z"/>
    <path class="fil15" d="M2378 2680c0,-61 50,-110 111,-110 61,0 111,49 111,110 0,62 -50,111 -111,111 -61,0 -111,-49 -111,-111z"/>
    <line class="fil6 str4" x1="2398" y1="2680" x2="2580" y2= "2680" />
    <line class="fil6 str4" x1="2489" y1="2771" x2="2489" y2= "2589" />
    <polyline class="fil6 str3" points="2250,2391 2250,2562 1993,2819 1993,3380 "/>
    <polygon class="fil1" points="1690,3136 1690,3090 1768,3090 1768,3136 "/>
    <polygon class="fil1" points="1954,3136 1954,3090 2032,3090 2032,3136 "/>
    <polygon class="fil1" points="1691,2718 1691,2671 1768,2671 1768,2718 "/>
    <polygon class="fil1" points="1953,2718 1953,2671 2031,2671 2031,2718 "/>
    <polygon class="fil1" points="1824,2718 1824,2672 1902,2672 1902,2718 "/>
    <polygon class="fil13" points="1568,3090 1568,2718 2061,2718 2061,3090 "/>
    <polygon class="fil1" points="1820,3136 1820,3090 1898,3090 1898,3136 "/>
    <path class="fil13" d="M2488 2426l0 -145c0,-22 17,-39 39,-39l206 0c22,0 39,17 39,39l0 145c0,21 -17,39 -39,39l-206 0c-22,0 -39,-18 -39,-39z"/>
    <path class="fil1" d="M2519 2355c0,-24 19,-44 43,-44 24,0 44,20 44,44 0,24 -20,43 -44,43 -24,0 -43,-19 -43,-43z"/>
    <path class="fil1" d="M2657 2355c0,-24 19,-44 43,-44 24,0 44,20 44,44 0,24 -20,43 -44,43 -24,0 -43,-19 -43,-43z"/>
   </g>
   <g>
    <rect class="fil8" transform="matrix(2.64845E-014 -1 -0.460485 -1.21957E-014 3407.39 1864.93)" width="753" height="1068" rx="60" ry="60"/>
    <rect class="fil9" transform="matrix(2.64845E-014 -1 -1.10608 -2.92939E-014 4588.5 1864.93)" width="753" height="1068" rx="60" ry="60"/>
    <rect class="fil10" transform="matrix(2.19804E-014 -0.829932 -0.553038 -1.4647E-014 4195.2 1736.79)" width="753" height="1068"/>
    <rect class="fil10" transform="matrix(2.54644E-015 -0.096148 -0.128143 -3.39381E-015 4481.64 1652.33)" width="753" height="1068"/>
    <rect class="fil10" transform="matrix(2.54644E-015 -0.096148 -0.128143 -3.39381E-015 4481.64 1368.87)" width="753" height="1068"/>
   </g>
   <g>
    <polygon class="fil0" points="4745,701 5661,1793 5457,1891 4613,885 "/>
    <g>
     <circle class="fil5" transform="matrix(-0.604554 -0.720479 0.72048 -0.604554 5118.76 1317.56)" r="80"/>
     <path class="fil6 str2" d="M5087 1344l63 -53m-58 -5l53 63"/>
    </g>
    <rect class="fil7" transform="matrix(-0.610649 -0.727743 0.794859 -0.666965 5524.15 1630.04)" width="383" height="178"/>
    <rect class="fil1" transform="matrix(-0.610649 -0.727743 0.794859 -0.666965 5115.44 1142.97)" width="383" height="178"/>
   </g>
   <g>
    <polygon class="fil0" points="4745,4420 5661,3329 5457,3231 4613,4236 "/>
    <g>
     <circle class="fil5" transform="matrix(-0.604554 0.720479 0.72048 0.604554 5118.76 3804.11)" r="80"/>
     <path class="fil6 str2" d="M5087 3778l63 53m-58 5l53 -63"/>
    </g>
    <rect class="fil7" transform="matrix(-0.610649 0.727743 0.794859 0.666965 5524.15 3491.62)" width="383" height="178"/>
    <rect class="fil1" transform="matrix(-0.610649 0.727743 0.794859 0.666965 5115.44 3978.69)" width="383" height="178"/>
   </g>
   <path class="fil6 str5" d="M2102 790c-3,244 -3,244 -3,-72 0,-129 19,-160 143,-179l284 0c134,0 135,122 134,174 -3,296 0,2296 0,2489 -1,48 -9,93 -21,116 -31,62 -107,54 -166,54"/>
   <g>
    <circle class="fil0" transform="matrix(3.97268E-014 -1.5 1.5 3.97268E-014 3976.31 2561.07)" r="197"/>
    <polygon class="fil16" points="3788,2561 3835,2479 3882,2398 3976,2398 4071,2398 4118,2479 4165,2561 4118,2643 4071,2725 3976,2725 3882,2725 3835,2643 "/>
    <circle class="fil2" transform="matrix(1.44461E-014 -0.545455 0.545455 1.44461E-014 3976.31 2561.07)" r="197"/>
    <circle class="fil3" transform="matrix(1.1918E-014 -0.45 0.45 1.1918E-014 3976.31 2561.07)" r="197"/>
   </g>
   <g id="Raspberry_x0020_Pi">
    <g id="Raspberry">
     <path class="fil0" d="M1882 1354l1484 0c87,0 157,71 157,158l0 2161c0,86 -70,157 -157,157l-1484 0c-87,0 -158,-71 -158,-157l0 -2161c0,-87 71,-158 158,-158z"/>
     <path class="fil17" d="M1956 1468l1336 0c78,0 141,65 141,143l0 1962c0,79 -63,143 -141,143l-1336 0c-78,0 -142,-64 -142,-143l0 -1962c0,-78 64,-143 142,-143z"/>
     <polygon class="fil16" points="2307,2748 2815,2748 2815,3257 2307,3257 "/>
     <polygon class="fil8" points="2330,2771 2792,2771 2792,3234 2330,3234 "/>
     <path class="fil8" d="M1907 2692l242 0 0 898 -242 0 0 -898zm77 44c17,0 32,15 32,32 0,17 -15,31 -32,31 -17,0 -31,-14 -31,-31 0,-17 14,-32 31,-32zm91 0c17,0 31,15 31,32 0,17 -14,31 -31,31 -18,0 -32,-14 -32,-31 0,-17 14,-32 32,-32zm-91 95c17,0 32,14 32,31 0,18 -15,32 -32,32 -17,0 -31,-14 -31,-32 0,-17 14,-31 31,-31zm91 0c17,0 31,14 31,31 0,18 -14,32 -31,32 -18,0 -32,-14 -32,-32 0,-17 14,-31 32,-31zm-91 90c17,0 32,15 32,32 0,17 -15,31 -32,31 -17,0 -31,-14 -31,-31 0,-17 14,-32 31,-32zm91 0c17,0 31,15 31,32 0,17 -14,31 -31,31 -18,0 -32,-14 -32,-31 0,-17 14,-32 32,-32zm-91 95c17,0 32,14 32,31 0,18 -15,32 -32,32 -17,0 -31,-14 -31,-32 0,-17 14,-31 31,-31zm91 0c17,0 31,14 31,31 0,18 -14,32 -31,32 -18,0 -32,-14 -32,-32 0,-17 14,-31 32,-31zm-91 94c17,0 32,15 32,32 0,17 -15,31 -32,31 -17,0 -31,-14 -31,-31 0,-17 14,-32 31,-32zm91 0c17,0 31,15 31,32 0,17 -14,31 -31,31 -18,0 -32,-14 -32,-31 0,-17 14,-32 32,-32zm-91 91c17,0 32,14 32,31 0,18 -15,32 -32,32 -17,0 -31,-14 -31,-32 0,-17 14,-31 31,-31zm91 0c17,0 31,14 31,31 0,18 -14,32 -31,32 -18,0 -32,-14 -32,-32 0,-17 14,-31 32,-31zm-91 94c17,0 32,15 32,32 0,17 -15,31 -32,31 -17,0 -31,-14 -31,-31 0,-17 14,-32 31,-32zm91 0c17,0 31,15 31,32 0,17 -14,31 -31,31 -18,0 -32,-14 -32,-31 0,-17 14,-32 32,-32zm-91 95c17,0 32,14 32,31 0,18 -15,32 -32,32 -17,0 -31,-14 -31,-32 0,-17 14,-31 31,-31zm91 0c17,0 31,14 31,31 0,18 -14,32 -31,32 -18,0 -32,-14 -32,-32 0,-17 14,-31 32,-31zm-91 91c17,0 32,14 32,31 0,17 -15,31 -32,31 -17,0 -31,-14 -31,-31 0,-17 14,-31 31,-31zm91 0c17,0 31,14 31,31 0,17 -14,31 -31,31 -18,0 -32,-14 -32,-31 0,-17 14,-31 32,-31z"/>
     <polygon class="fil1" points="1897,1354 2305,1354 2305,1726 1897,1726 "/>
     <polygon class="fil16" points="1897,1354 2305,1354 2305,1239 1897,1239 "/>
     <polygon class="fil18" points="1999,1305 2049,1305 2049,1470 1999,1470 "/>
     <polygon class="fil18" points="2153,1305 2202,1305 2202,1470 2153,1470 "/>
     <polygon class="fil1" points="2374,1354 2782,1354 2782,1726 2374,1726 "/>
     <polygon class="fil16" points="2374,1354 2782,1354 2782,1239 2374,1239 "/>
     <polygon class="fil18" points="2476,1305 2525,1305 2525,1470 2476,1470 "/>
     <polygon class="fil18" points="2629,1305 2679,1305 2679,1470 2629,1470 "/>
     <polygon class="fil1" points="2858,1354 3370,1354 3370,1849 2858,1849 "/>
     <polygon class="fil16" points="2858,1354 3370,1354 3370,1296 2858,1296 "/>
     <polygon class="fil16" points="2310,2011 2564,2011 2564,2265 2310,2265 "/>
     <polygon class="fil8" points="2333,2034 2541,2034 2541,2242 2333,2242 "/>
     <polygon class="fil8" points="2321,3521 2927,3521 2927,3667 2321,3667 "/>
     <polygon class="fil1" points="2348,3547 2899,3547 2899,3641 2348,3641 "/>
     <polygon class="fil8" points="2771,2337 3377,2337 3377,2484 2771,2484 "/>
     <polygon class="fil1" points="2798,2364 3349,2364 3349,2457 2798,2457 "/>
     <polygon class="fil8" points="3115,1991 3519,1991 3519,2222 3115,2222 "/>
     <polygon class="fil13" points="3587,2042 3519,2042 3519,2171 3587,2171 "/>
     <polygon class="fil1" points="3328,2036 3474,2036 3474,2177 3328,2177 "/>
     <polygon class="fil1" points="3526,2593 3526,3177 3227,3177 3227,2593 "/>
     <polygon class="fil16" points="3526,2593 3526,3177 3619,3177 3619,2593 "/>
     <polygon class="fil18" points="3566,2664 3566,2735 3433,2735 3433,2664 "/>
     <polygon class="fil18" points="3566,3045 3566,3116 3433,3116 3433,3045 "/>
     <polygon class="fil8" points="2798,3716 2450,3716 2450,3830 2798,3830 "/>
     <polygon class="fil13" points="2798,3830 2450,3830 2450,3915 2798,3915 "/>
    </g>
    <g id="Rpi">
     <path class="fil0" d="M2243 2501c-50,51 -33,82 -21,142 54,8 75,-6 97,-35l86 45c80,48 203,-53 214,-132 5,-38 -19,-63 -34,-90 -32,-42 -18,-33 -66,-60 -81,-29 -59,-34 -183,26 -17,-16 -82,-78 -110,-26 -13,24 -17,73 -1,104 1,2 2,4 3,6l15 20z"/>
     <path class="fil17" d="M2316 2537c-21,3 -15,0 -29,10l-20 20c14,-37 18,-19 19,-53 -93,-6 -64,178 18,88 25,-27 18,-36 12,-65z"/>
     <path class="fil17" d="M2281 2487l3 -11c0,-15 2,-3 -3,-18 -6,-15 -10,-16 -16,-38 47,57 18,40 50,46 16,-34 7,-65 -29,-83 -74,-36 -66,113 -5,104z"/>
     <path class="fil17" d="M2465 2542c-27,-25 -97,-43 -84,21 9,41 93,73 84,-21z"/>
     <path class="fil17" d="M2472 2527c27,55 92,13 71,-38 -21,-50 -97,-17 -71,38z"/>
     <path class="fil17" d="M2468 2427c-42,-29 -98,-8 -85,39 12,42 89,40 85,-39z"/>
     <path class="fil17" d="M2559 2448c12,-41 -26,-60 -71,-55 0,24 3,35 21,50 42,35 50,5 50,5z"/>
     <path class="fil17" d="M2555 2575c-1,-1 -5,-34 -50,2 -14,12 -19,21 -18,42 39,16 77,-11 68,-44z"/>
     <path class="fil17" d="M2350 2543c33,-20 37,-56 2,-77 -24,22 -36,67 -2,77z"/>
     <path class="fil17" d="M2572 2547c30,7 49,-52 2,-79 -14,31 -16,45 -2,79z"/>
     <path class="fil17" d="M2476 2645c-12,-21 14,-12 -27,-25 -20,-7 -26,-2 -40,2 16,37 32,28 67,23z"/>
     <path class="fil17" d="M2480 2383c-5,-5 -2,-7 -15,-12 -12,-5 -13,-6 -26,-3 -19,5 -22,15 -27,27 35,4 44,4 68,-12z"/>
     <path class="fil17" d="M2392 2396c-37,8 -45,16 -52,56 33,-12 34,-19 52,-56z"/>
     <path class="fil17" d="M2384 2616c-15,-34 -19,-44 -47,-58 2,41 9,49 47,58z"/>
    </g>
   </g>
   <rect class="fil4 str1" transform="matrix(-3.55922E-014 1.34388 1.11821 2.96154E-014 2349.76 1113.78)" width="116" height="408" rx="15" ry="15"/>
   <g>
    <path class="fil5" d="M4338 2063l96 0c0,-53 -43,-95 -96,-95 -52,0 -95,42 -95,95l95 0zm0 -568l96 0c0,52 -43,95 -96,95 -52,0 -95,-43 -95,-95l95 0zm-577 19l0 264 0 2 0 263c0,11 9,20 20,20l794 0c10,0 19,-9 19,-20l0 -263 0 -2 0 -264c0,-11 -9,-19 -19,-19l-794 0c-11,0 -20,8 -20,19z"/>
    <g>
     <circle class="fil2" transform="matrix(-0.604554 -0.720479 0.72048 -0.604554 4414.06 1778.76)" r="80"/>
     <path class="fil6 str6" d="M4383 1805l63 -53m-58 -5l53 63"/>
    </g>
   </g>
   <g>
    <path class="fil5" d="M4338 3638l96 0c0,-53 -43,-95 -96,-95 -52,0 -95,42 -95,95l95 0zm0 -569l96 0c0,53 -43,95 -96,95 -52,0 -95,-42 -95,-95l95 0zm-577 20l0 263 0 3 0 263c0,11 9,20 20,20l794 0c10,0 19,-9 19,-20l0 -263 0 -3 0 -263c0,-11 -9,-20 -19,-20l-794 0c-11,0 -20,9 -20,20z"/>
    <g>
     <circle class="fil2" transform="matrix(-0.604554 -0.720479 0.72048 -0.604554 4414.06 3353.56)" r="80"/>
     <path class="fil6 str6" d="M4383 3380l63 -53m-58 -5l53 63"/>
    </g>
   </g>
   <path class="fil6 str7" d="M4594 3357l72 0c129,-1 178,-23 178,-143l0 -119c0,-93 -39,-136 -166,-137l-1281 0"/>
   <path class="fil6 str7" d="M4594 1776l72 1c129,0 178,22 178,142l0 119c0,93 -39,137 -166,138l-983 0c-166,0 -151,-227 -312,-227l-709 0"/>
   <path class="fil6 str8" d="M4026 4068c277,0 383,23 472,90 162,122 73,376 222,372 306,-34 490,-211 699,-534 253,-419 398,-910 398,-1436m-5123 1516l3332 -8m-3332 9c-284,-436 -448,-956 -448,-1515 0,-559 164,-1080 448,-1516m3332 8c277,0 383,-23 472,-90 162,-121 73,-376 222,-372 306,34 490,211 699,534 253,419 398,910 398,1436m-5123 -1516l3332 8"/>
   <path class="fil4 str9" d="M1967 797l132 0c133,0 111,0 133,0 20,0 36,47 36,83 -1,55 59,106 59,159l0 49 0 100c0,46 4,83 -16,83l-423 0c-20,0 -16,-37 -16,-83l0 -149c0,-53 59,-105 59,-159 0,-37 16,-83 36,-83z"/>
   <g>
    <rect class="fil17" x="5487" y="2195" width="45.2923" height="732.094" rx="29" ry="24"/>
    <rect class="fil16" x="4527" y="2069" width="960" height="984" rx="28" ry="71"/>
    <polygon class="fil4" points="5571,2488 5613,2503 5613,2620 5571,2634 5571,2668 5530,2682 5530,2440 5571,2454 "/>
    <polygon class="fil19" points="5537,2773 5560,2783 5560,2812 5537,2823 "/>
   </g>
   <path class="fil3" d="M5487 2795c-457,-576 -2152,-1427 -2667,-376l497 0c195,-716 1415,-531 2170,-86l0 462z"/>
   <path class="fil20" d="M1405 1991c0,-18 15,-33 34,-33 18,0 34,15 34,33 0,19 -16,34 -34,34 -19,0 -34,-15 -34,-34zm0 -126c0,-18 15,-33 34,-33 18,0 34,15 34,33 0,19 -16,34 -34,34 -19,0 -34,-15 -34,-34zm0 -126c0,-18 15,-33 34,-33 18,0 34,15 34,33 0,19 -16,34 -34,34 -19,0 -34,-15 -34,-34zm0 -126c0,-18 15,-33 34,-33 18,0 34,15 34,33 0,19 -16,34 -34,34 -19,0 -34,-15 -34,-34z"/>
  </g>
 </g>
</svg>
