<?xml version="1.0" encoding="UTF-8"?>
<!DOCTYPE svg PUBLIC "-//W3C//DTD SVG 1.1//EN" "http://www.w3.org/Graphics/SVG/1.1/DTD/svg11.dtd">
<!-- Creator: CorelDRAW X6 -->
<svg xmlns="http://www.w3.org/2000/svg" xml:space="preserve" width="7.28346in" height="7.67717in" version="1.1" style="shape-rendering:geometricPrecision; text-rendering:geometricPrecision; image-rendering:optimizeQuality; fill-rule:evenodd; clip-rule:evenodd"
viewBox="0 0 7283 7677"
 xmlns:xlink="http://www.w3.org/1999/xlink">
 <defs>
  <style type="text/css">
   <![CDATA[
    .str8 {stroke:#1A1A1A;stroke-width:3}
    .str0 {stroke:white;stroke-width:3}
    .str6 {stroke:#B3B3B3;stroke-width:9.84252}
    .str5 {stroke:#333333;stroke-width:39.3701}
    .str4 {stroke:#4D4D4D;stroke-width:39.3701}
    .str3 {stroke:#666666;stroke-width:39.3701}
    .str2 {stroke:#B3B3B3;stroke-width:39.3701}
    .str1 {stroke:#B3B3B3;stroke-width:59.0551}
    .str9 {stroke:#1A1A1A;stroke-width:78.7402}
    .str7 {stroke:#999999;stroke-width:78.7402}
    .fil4 {fill:none}
    .fil7 {fill:black}
    .fil11 {fill:#009933}
    .fil6 {fill:#1A1A1A}
    .fil0 {fill:#333333}
    .fil9 {fill:#587B8F}
    .fil10 {fill:#666666}
    .fil3 {fill:#7E7950}
    .fil14 {fill:maroon}
    .fil2 {fill:gray}
    .fil5 {fill:#B3B3B3}
    .fil12 {fill:#CCCCCC}
    .fil8 {fill:#E6E6E6}
    .fil1 {fill:whitesmoke}
    .fil13 {fill:red}
   ]]>
  </style>
 </defs>
 <g id="Layer_x0020_1">
  <metadata id="CorelCorpID_0Corel-Layer"/>
  <path class="fil0" d="M3049 2169l0 3377c0,65 -53,118 -118,118l-1801 0c-65,0 -118,-53 -118,-118l0 -3377c0,-65 53,-118 118,-118l1801 0c65,0 118,53 118,118z"/>
  <path class="fil1 str0" d="M1159 2209l0 3282c0,103 64,173 146,173l1351 0c19,0 4,-3613 4,-3613 0,0 -1220,0 -1355,0 -94,0 -146,73 -146,158z"/>
  <g id="Rigth_x0020_wheel">
   <polygon class="fil2" points="3758,6518 3758,6138 3546,6138 3546,6518 "/>
   <g id="Rueda_x0020_Der">
    <path class="fil3" d="M4672 6637l0 775c0,65 -54,119 -119,119l-1853 0c-65,0 -118,-54 -118,-119l0 -775c0,-65 53,-119 118,-119l1853 0c65,0 119,54 119,119z"/>
    <line class="fil4 str1" x1="4664" y1="7024" x2="2582" y2= "7024" />
    <path class="fil4 str2" d="M4560 7525l-187 -498m-24 498l-193 -516m-23 516l-193 -514m-19 514l-185 -495m-31 495l-185 -494m-26 494l-193 -516m-23 516l-193 -514m-19 514l-185 -495m-31 495l-185 -494m1986 212l-81 -216m-108 -503l-188 502m-23 -502l-194 520m-22 -520l-194 518m-17 -518l-187 499m-30 -499l-186 497m-25 -497l-194 520m-22 -520l-194 518m-17 -518l-187 499m-30 -499l-152 408m2041 -359l-170 453"/>
    <path class="fil5" d="M4567 6663c0,32 -25,57 -56,57 -31,0 -56,-25 -56,-57 0,-31 25,-56 56,-56 31,0 56,25 56,56zm-22 0c0,19 -15,35 -34,35 -19,0 -34,-16 -34,-35 0,-18 15,-34 34,-34 19,0 34,16 34,34z"/>
    <path class="fil5" d="M4496 6852c0,32 -25,57 -56,57 -31,0 -56,-25 -56,-57 0,-31 25,-56 56,-56 31,0 56,25 56,56zm-21 0c0,19 -16,35 -35,35 -19,0 -34,-16 -34,-35 0,-19 15,-34 34,-34 19,0 35,15 35,34z"/>
    <path class="fil5" d="M4146 6663c0,32 -25,57 -56,57 -31,0 -56,-25 -56,-57 0,-31 25,-56 56,-56 31,0 56,25 56,56zm-22 0c0,19 -15,35 -34,35 -19,0 -35,-16 -35,-35 0,-18 16,-34 35,-34 19,0 34,16 34,34z"/>
    <path class="fil5" d="M4075 6852c0,32 -25,57 -56,57 -31,0 -56,-25 -56,-57 0,-31 25,-56 56,-56 31,0 56,25 56,56zm-22 0c0,19 -15,35 -34,35 -19,0 -34,-16 -34,-35 0,-19 15,-34 34,-34 19,0 34,15 34,34z"/>
    <path class="fil5" d="M3721 6663c0,32 -25,57 -56,57 -31,0 -57,-25 -57,-57 0,-31 26,-56 57,-56 31,0 56,25 56,56zm-22 0c0,19 -15,35 -34,35 -19,0 -35,-16 -35,-35 0,-18 16,-34 35,-34 19,0 34,16 34,34z"/>
    <path class="fil5" d="M3650 6852c0,32 -25,57 -56,57 -31,0 -56,-25 -56,-57 0,-31 25,-56 56,-56 31,0 56,25 56,56zm-22 0c0,19 -15,35 -34,35 -19,0 -35,-16 -35,-35 0,-19 16,-34 35,-34 19,0 34,15 34,34z"/>
    <path class="fil5" d="M3292 6663c0,32 -25,57 -56,57 -32,0 -57,-25 -57,-57 0,-31 25,-56 57,-56 31,0 56,25 56,56zm-22 0c0,19 -16,35 -34,35 -19,0 -35,-16 -35,-35 0,-18 16,-34 35,-34 18,0 34,16 34,34z"/>
    <path class="fil5" d="M3221 6852c0,32 -25,57 -56,57 -31,0 -57,-25 -57,-57 0,-31 26,-56 57,-56 31,0 56,25 56,56zm-22 0c0,19 -15,35 -34,35 -19,0 -35,-16 -35,-35 0,-19 16,-34 35,-34 19,0 34,15 34,34z"/>
    <path class="fil5" d="M2867 6663c0,32 -26,57 -57,57 -31,0 -56,-25 -56,-57 0,-31 25,-56 56,-56 31,0 57,25 57,56zm-22 0c0,19 -16,35 -35,35 -19,0 -34,-16 -34,-35 0,-18 15,-34 34,-34 19,0 35,16 35,34z"/>
    <path class="fil5" d="M2796 6852c0,32 -25,57 -57,57 -31,0 -56,-25 -56,-57 0,-31 25,-56 56,-56 32,0 57,25 57,56zm-22 0c0,19 -16,35 -35,35 -19,0 -34,-16 -34,-35 0,-19 15,-34 34,-34 19,0 35,15 35,34z"/>
    <path class="fil5" d="M4449 7384c0,-31 -25,-56 -56,-56 -31,0 -56,25 -56,56 0,31 25,56 56,56 31,0 56,-25 56,-56zm-22 0c0,-19 -15,-34 -34,-34 -19,0 -34,15 -34,34 0,19 15,34 34,34 19,0 34,-15 34,-34z"/>
    <path class="fil5" d="M4378 7195c0,-31 -25,-56 -56,-56 -31,0 -56,25 -56,56 0,31 25,56 56,56 31,0 56,-25 56,-56zm-22 0c0,-19 -15,-34 -34,-34 -19,0 -34,15 -34,34 0,19 15,34 34,34 19,0 34,-15 34,-34z"/>
    <path class="fil5" d="M4028 7384c0,-31 -25,-56 -56,-56 -31,0 -57,25 -57,56 0,31 26,56 57,56 31,0 56,-25 56,-56zm-22 0c0,-19 -15,-34 -34,-34 -19,0 -35,15 -35,34 0,19 16,34 35,34 19,0 34,-15 34,-34z"/>
    <path class="fil5" d="M3957 7195c0,-31 -25,-56 -56,-56 -31,0 -56,25 -56,56 0,31 25,56 56,56 31,0 56,-25 56,-56zm-22 0c0,-19 -15,-34 -34,-34 -19,0 -35,15 -35,34 0,19 16,34 35,34 19,0 34,-15 34,-34z"/>
    <path class="fil5" d="M3603 7384c0,-31 -25,-56 -56,-56 -32,0 -57,25 -57,56 0,31 25,56 57,56 31,0 56,-25 56,-56zm-22 0c0,-19 -15,-34 -34,-34 -19,0 -35,15 -35,34 0,19 16,34 35,34 19,0 34,-15 34,-34z"/>
    <path class="fil5" d="M3532 7195c0,-31 -25,-56 -56,-56 -31,0 -57,25 -57,56 0,31 26,56 57,56 31,0 56,-25 56,-56zm-22 0c0,-19 -15,-34 -34,-34 -19,0 -35,15 -35,34 0,19 16,34 35,34 19,0 34,-15 34,-34z"/>
    <path class="fil5" d="M3174 7384c0,-31 -26,-56 -57,-56 -31,0 -56,25 -56,56 0,31 25,56 56,56 31,0 57,-25 57,-56zm-22 0c0,-19 -16,-34 -35,-34 -19,0 -34,15 -34,34 0,19 15,34 34,34 19,0 35,-15 35,-34z"/>
    <path class="fil5" d="M3103 7195c0,-31 -25,-56 -56,-56 -32,0 -57,25 -57,56 0,31 25,56 57,56 31,0 56,-25 56,-56zm-22 0c0,-19 -15,-34 -34,-34 -19,0 -35,15 -35,34 0,19 16,34 35,34 19,0 34,-15 34,-34z"/>
    <path class="fil5" d="M2748 7384c0,-31 -25,-56 -56,-56 -31,0 -56,25 -56,56 0,31 25,56 56,56 31,0 56,-25 56,-56zm-21 0c0,-19 -16,-34 -35,-34 -19,0 -34,15 -34,34 0,19 15,34 34,34 19,0 35,-15 35,-34z"/>
    <path class="fil5" d="M2678 7195c0,-31 -26,-56 -57,-56 -15,0 -29,6 -39,16l0 80c10,10 24,16 39,16 31,0 57,-25 57,-56zm-22 0c0,-19 -16,-34 -35,-34 -19,0 -34,15 -34,34 0,19 15,34 34,34 19,0 35,-15 35,-34z"/>
   </g>
  </g>
  <g id="Left_x0020_wheel">
   <polygon class="fil2" points="3756,1573 3756,1180 3545,1180 3545,1573 "/>
   <g id="Rueda_x0020_Izq">
    <path class="fil3" d="M4687 286l0 775c0,65 -53,119 -118,119l-1853 0c-65,0 -118,-54 -118,-119l0 -775c0,-65 53,-119 118,-119l1853 0c65,0 118,54 118,119z"/>
    <line class="fil4 str1" x1="4680" y1="674" x2="2598" y2= "674" />
    <path class="fil4 str2" d="M4576 1174l-187 -498m-24 498l-194 -516m-22 516l-193 -514m-19 514l-186 -495m-30 495l-185 -493m-26 493l-194 -516m-23 516l-192 -514m-19 514l-186 -495m-30 495l-185 -493m1986 211l-81 -216m-108 -503l-188 502m-23 -502l-195 520m-21 -520l-194 518m-18 -518l-187 499m-29 -499l-186 498m-25 -498l-195 520m-21 -520l-194 518m-18 -518l-187 499m-29 -499l-153 408m2041 -359l-169 453"/>
    <path class="fil5" d="M4583 313c0,31 -25,56 -56,56 -31,0 -56,-25 -56,-56 0,-31 25,-57 56,-57 31,0 56,26 56,57zm-22 0c0,19 -15,34 -34,34 -19,0 -35,-15 -35,-34 0,-19 16,-35 35,-35 19,0 34,16 34,35z"/>
    <path class="fil5" d="M4512 502c0,31 -25,56 -56,56 -31,0 -56,-25 -56,-56 0,-32 25,-57 56,-57 31,0 56,25 56,57zm-22 0c0,19 -15,34 -34,34 -19,0 -34,-15 -34,-34 0,-19 15,-35 34,-35 19,0 34,16 34,35z"/>
    <path class="fil5" d="M4162 313c0,31 -25,56 -56,56 -31,0 -57,-25 -57,-56 0,-31 26,-57 57,-57 31,0 56,26 56,57zm-22 0c0,19 -15,34 -34,34 -19,0 -35,-15 -35,-34 0,-19 16,-35 35,-35 19,0 34,16 34,35z"/>
    <path class="fil5" d="M4091 502c0,31 -25,56 -56,56 -31,0 -57,-25 -57,-56 0,-32 26,-57 57,-57 31,0 56,25 56,57zm-22 0c0,19 -15,34 -34,34 -19,0 -35,-15 -35,-34 0,-19 16,-35 35,-35 19,0 34,16 34,35z"/>
    <path class="fil5" d="M3737 313c0,31 -26,56 -57,56 -31,0 -56,-25 -56,-56 0,-31 25,-57 56,-57 31,0 57,26 57,57zm-22 0c0,19 -16,34 -35,34 -19,0 -34,-15 -34,-34 0,-19 15,-35 34,-35 19,0 35,16 35,35z"/>
    <path class="fil5" d="M3666 502c0,31 -25,56 -56,56 -32,0 -57,-25 -57,-56 0,-32 25,-57 57,-57 31,0 56,25 56,57zm-22 0c0,19 -16,34 -34,34 -19,0 -35,-15 -35,-34 0,-19 16,-35 35,-35 18,0 34,16 34,35z"/>
    <path class="fil5" d="M3307 313c0,31 -25,56 -56,56 -31,0 -56,-25 -56,-56 0,-31 25,-57 56,-57 31,0 56,26 56,57zm-21 0c0,19 -16,34 -35,34 -19,0 -34,-15 -34,-34 0,-19 15,-35 34,-35 19,0 35,16 35,35z"/>
    <path class="fil5" d="M3237 502c0,31 -26,56 -57,56 -31,0 -56,-25 -56,-56 0,-32 25,-57 56,-57 31,0 57,25 57,57zm-22 0c0,19 -16,34 -35,34 -19,0 -34,-15 -34,-34 0,-19 15,-35 34,-35 19,0 35,16 35,35z"/>
    <path class="fil5" d="M2882 313c0,31 -25,56 -56,56 -31,0 -56,-25 -56,-56 0,-31 25,-57 56,-57 31,0 56,26 56,57zm-22 0c0,19 -15,34 -34,34 -19,0 -34,-15 -34,-34 0,-19 15,-35 34,-35 19,0 34,16 34,35z"/>
    <path class="fil5" d="M2811 502c0,31 -25,56 -56,56 -31,0 -56,-25 -56,-56 0,-32 25,-57 56,-57 31,0 56,25 56,57zm-21 0c0,19 -16,34 -35,34 -19,0 -34,-15 -34,-34 0,-19 15,-35 34,-35 19,0 35,16 35,35z"/>
    <path class="fil5" d="M4465 1033c0,-31 -25,-56 -56,-56 -31,0 -57,25 -57,56 0,31 26,56 57,56 31,0 56,-25 56,-56zm-22 0c0,-19 -15,-34 -34,-34 -19,0 -35,15 -35,34 0,19 16,34 35,34 19,0 34,-15 34,-34z"/>
    <path class="fil5" d="M4394 844c0,-31 -25,-56 -56,-56 -31,0 -56,25 -56,56 0,31 25,56 56,56 31,0 56,-25 56,-56zm-22 0c0,-19 -15,-34 -34,-34 -19,0 -35,15 -35,34 0,19 16,34 35,34 19,0 34,-15 34,-34z"/>
    <path class="fil5" d="M4044 1033c0,-31 -25,-56 -57,-56 -31,0 -56,25 -56,56 0,31 25,56 56,56 32,0 57,-25 57,-56zm-22 0c0,-19 -16,-34 -35,-34 -19,0 -34,15 -34,34 0,19 15,34 34,34 19,0 35,-15 35,-34z"/>
    <path class="fil5" d="M3973 844c0,-31 -25,-56 -56,-56 -31,0 -57,25 -57,56 0,31 26,56 57,56 31,0 56,-25 56,-56zm-22 0c0,-19 -15,-34 -34,-34 -19,0 -35,15 -35,34 0,19 16,34 35,34 19,0 34,-15 34,-34z"/>
    <path class="fil5" d="M3619 1033c0,-31 -26,-56 -57,-56 -31,0 -56,25 -56,56 0,31 25,56 56,56 31,0 57,-25 57,-56zm-22 0c0,-19 -16,-34 -35,-34 -19,0 -34,15 -34,34 0,19 15,34 34,34 19,0 35,-15 35,-34z"/>
    <path class="fil5" d="M3548 844c0,-31 -26,-56 -57,-56 -31,0 -56,25 -56,56 0,31 25,56 56,56 31,0 57,-25 57,-56zm-22 0c0,-19 -16,-34 -35,-34 -19,0 -34,15 -34,34 0,19 15,34 34,34 19,0 35,-15 35,-34z"/>
    <path class="fil5" d="M3189 1033c0,-31 -25,-56 -56,-56 -31,0 -56,25 -56,56 0,31 25,56 56,56 31,0 56,-25 56,-56zm-21 0c0,-19 -16,-34 -35,-34 -19,0 -34,15 -34,34 0,19 15,34 34,34 19,0 35,-15 35,-34z"/>
    <path class="fil5" d="M3119 844c0,-31 -26,-56 -57,-56 -31,0 -56,25 -56,56 0,31 25,56 56,56 31,0 57,-25 57,-56zm-22 0c0,-19 -16,-34 -35,-34 -19,0 -34,15 -34,34 0,19 15,34 34,34 19,0 35,-15 35,-34z"/>
    <path class="fil5" d="M2764 1033c0,-31 -25,-56 -56,-56 -31,0 -56,25 -56,56 0,31 25,56 56,56 31,0 56,-25 56,-56zm-22 0c0,-19 -15,-34 -34,-34 -19,0 -34,15 -34,34 0,19 15,34 34,34 19,0 34,-15 34,-34z"/>
    <path class="fil5" d="M2693 844c0,-31 -25,-56 -56,-56 -15,0 -29,6 -39,16l0 80c10,10 24,16 39,16 31,0 56,-25 56,-56zm-22 0c0,-19 -15,-34 -34,-34 -19,0 -34,15 -34,34 0,19 15,34 34,34 19,0 34,-15 34,-34z"/>
   </g>
  </g>
  <g id="_268873184">
   <circle class="fil0 str3" cx="3645" cy="3857" r="197"/>
   <polyline class="fil4 str4" points="5896,6491 4841,6491 4126,6235 3175,6235 2427,6491 1397,6491 "/>
   <polyline class="fil4 str4" points="5896,1219 4841,1219 4126,1475 3175,1475 2427,1219 1397,1219 "/>
   <circle class="fil4 str5" cx="3645" cy="3857" r="3465"/>
  </g>
  <g id="Rigth_x0020_motor">
   <rect class="fil6" x="3278" y="5721" width="753" height="492" rx="60" ry="28"/>
   <rect class="fil5" x="3278" y="4540" width="753" height="1181" rx="60" ry="67"/>
   <rect class="fil6" x="3278" y="3936" width="753" height="603" rx="60" ry="34"/>
   <rect class="fil2" x="3406" y="4933" width="625" height="591"/>
   <rect class="fil2" x="3491" y="4647" width="72.4449" height="136.835"/>
   <rect class="fil2" x="3774" y="4647" width="72.4449" height="136.835"/>
  </g>
  <g id="Left_x0020_motor">
   <rect class="fil6" x="3278" y="1495" width="753" height="492" rx="60" ry="28"/>
   <rect class="fil5" x="3278" y="1987" width="753" height="1181" rx="60" ry="67"/>
   <rect class="fil6" x="3278" y="3169" width="753" height="603" rx="60" ry="34"/>
   <rect class="fil2" x="3406" y="2184" width="625" height="591"/>
   <rect class="fil2" x="3491" y="2925" width="72.4449" height="136.835"/>
   <rect class="fil2" x="3774" y="2925" width="72.4449" height="136.835"/>
  </g>
  <g id="Arduino">
   <path class="fil5" d="M5038 4467l0 -212 -407 0 0 212 221 0 -46 0 0 -60 50 0 0 -1 83 0 0 1 49 0 0 60 -35 0 85 0zm-297 0l0 -60 -61 0 0 60 61 0z"/>
   <polygon class="fil7" points="4834,4259 4834,4172 4969,4172 4969,4259 "/>
   <rect class="fil8" x="3657" y="4341" width="1825" height="1442" rx="39" ry="39"/>
   <path class="fil9" d="M3813 4340l150 0c-123,36 -212,121 -212,255 0,133 140,269 314,269 173,0 314,-136 314,-269 0,-134 -89,-219 -213,-255l284 0c28,34 51,72 69,114 17,-42 42,-80 73,-114l279 0c-123,36 -212,121 -212,255 0,133 140,269 314,269 173,0 314,-136 314,-269 0,-134 -89,-219 -213,-255l279 0c64,70 103,92 103,255 0,162 -245,413 -483,413 -238,0 -387,-113 -454,-272 -68,159 -257,272 -454,272 -198,0 -319,-110 -409,-232l0 -398c11,-12 23,-24 37,-38l120 0z"/>
   <path class="fil2 str6" d="M5429 5693c0,14 -12,26 -27,26 -14,0 -26,-12 -26,-26 0,-15 12,-27 26,-27 15,0 27,12 27,27zm-79 0c0,14 -12,26 -26,26 -15,0 -27,-12 -27,-26 0,-15 12,-27 27,-27 14,0 26,12 26,27zm-79 0c0,14 -11,26 -26,26 -15,0 -27,-12 -27,-26 0,-15 12,-27 27,-27 15,0 26,12 26,27zm-78 0c0,14 -12,26 -27,26 -15,0 -26,-12 -26,-26 0,-15 11,-27 26,-27 15,0 27,12 27,27zm-79 0c0,14 -12,26 -27,26 -14,0 -26,-12 -26,-26 0,-15 12,-27 26,-27 15,0 27,12 27,27zm-79 0c0,14 -12,26 -26,26 -15,0 -27,-12 -27,-26 0,-15 12,-27 27,-27 14,0 26,12 26,27zm-79 0c0,14 -11,26 -26,26 -15,0 -27,-12 -27,-26 0,-15 12,-27 27,-27 15,0 26,12 26,27zm-78 0c0,14 -12,26 -27,26 -14,0 -26,-12 -26,-26 0,-15 12,-27 26,-27 15,0 27,12 27,27zm-79 0c0,14 -12,26 -27,26 -14,0 -26,-12 -26,-26 0,-15 12,-27 26,-27 15,0 27,12 27,27zm-79 0c0,14 -12,26 -26,26 -15,0 -27,-12 -27,-26 0,-15 12,-27 27,-27 14,0 26,12 26,27zm-79 0c0,14 -11,26 -26,26 -15,0 -27,-12 -27,-26 0,-15 12,-27 27,-27 15,0 26,12 26,27zm-78 0c0,14 -12,26 -27,26 -14,0 -26,-12 -26,-26 0,-15 12,-27 26,-27 15,0 27,12 27,27zm-77 0c0,14 -12,26 -27,26 -14,0 -26,-12 -26,-26 0,-15 12,-27 26,-27 15,0 27,12 27,27zm-79 0c0,14 -12,26 -26,26 -15,0 -27,-12 -27,-26 0,-15 12,-27 27,-27 14,0 26,12 26,27zm-79 0c0,14 -11,26 -26,26 -15,0 -27,-12 -27,-26 0,-15 12,-27 27,-27 15,0 26,12 26,27zm-78 0c0,14 -12,26 -27,26 -15,0 -26,-12 -26,-26 0,-15 11,-27 26,-27 15,0 27,12 27,27zm1179 -827c0,15 -12,27 -27,27 -14,0 -26,-12 -26,-27 0,-15 12,-26 26,-26 15,0 27,11 27,26zm-79 0c0,15 -12,27 -26,27 -15,0 -27,-12 -27,-27 0,-15 12,-26 27,-26 14,0 26,11 26,26zm-79 0c0,15 -11,27 -26,27 -15,0 -27,-12 -27,-27 0,-15 12,-26 27,-26 15,0 26,11 26,26zm-78 0c0,15 -12,27 -27,27 -15,0 -26,-12 -26,-27 0,-15 11,-26 26,-26 15,0 27,11 27,26zm-79 0c0,15 -12,27 -27,27 -14,0 -26,-12 -26,-27 0,-15 12,-26 26,-26 15,0 27,11 27,26zm-79 0c0,15 -12,27 -26,27 -15,0 -27,-12 -27,-27 0,-15 12,-26 27,-26 14,0 26,11 26,26zm-79 0c0,15 -11,27 -26,27 -15,0 -27,-12 -27,-27 0,-15 12,-26 27,-26 15,0 26,11 26,26zm-78 0c0,15 -12,27 -27,27 -14,0 -26,-12 -26,-27 0,-15 12,-26 26,-26 15,0 27,11 27,26zm-79 0c0,15 -12,27 -27,27 -14,0 -26,-12 -26,-27 0,-15 12,-26 26,-26 15,0 27,11 27,26zm-79 0c0,15 -12,27 -26,27 -15,0 -27,-12 -27,-27 0,-15 12,-26 27,-26 14,0 26,11 26,26zm-79 0c0,15 -11,27 -26,27 -15,0 -27,-12 -27,-27 0,-15 12,-26 27,-26 15,0 26,11 26,26zm-78 0c0,15 -12,27 -27,27 -14,0 -26,-12 -26,-27 0,-15 12,-26 26,-26 15,0 27,11 27,26zm-156 689c0,15 -12,27 -26,27 -15,0 -27,-12 -27,-27 0,-15 12,-27 27,-27 14,0 26,12 26,27zm-79 0c0,15 -11,27 -26,27 -15,0 -27,-12 -27,-27 0,-15 12,-27 27,-27 15,0 26,12 26,27zm-78 0c0,15 -12,27 -27,27 -15,0 -26,-12 -26,-27 0,-15 11,-27 26,-27 15,0 27,12 27,27zm1179 -1130c0,15 -12,27 -27,27 -14,0 -26,-12 -26,-27 0,-15 12,-26 26,-26 15,0 27,11 27,26zm-79 0c0,15 -12,27 -26,27 -15,0 -27,-12 -27,-27 0,-15 12,-26 27,-26 14,0 26,11 26,26zm-79 0c0,15 -11,27 -26,27 -15,0 -27,-12 -27,-27 0,-15 12,-26 27,-26 15,0 26,11 26,26zm-78 0c0,15 -12,27 -27,27 -15,0 -26,-12 -26,-27 0,-15 11,-26 26,-26 15,0 27,11 27,26zm-79 0c0,15 -12,27 -27,27 -14,0 -26,-12 -26,-27 0,-15 12,-26 26,-26 15,0 27,11 27,26zm-79 0c0,15 -12,27 -26,27 -15,0 -27,-12 -27,-27 0,-15 12,-26 27,-26 14,0 26,11 26,26zm-79 0c0,15 -11,27 -26,27 -15,0 -27,-12 -27,-27 0,-15 12,-26 27,-26 15,0 26,11 26,26zm-78 0c0,15 -12,27 -27,27 -14,0 -26,-12 -26,-27 0,-15 12,-26 26,-26 15,0 27,11 27,26zm-79 0c0,15 -12,27 -27,27 -14,0 -26,-12 -26,-27 0,-15 12,-26 26,-26 15,0 27,11 27,26zm-79 0c0,15 -12,27 -26,27 -15,0 -27,-12 -27,-27 0,-15 12,-26 27,-26 14,0 26,11 26,26zm-79 0c0,15 -11,27 -26,27 -15,0 -27,-12 -27,-27 0,-15 12,-26 27,-26 15,0 26,11 26,26zm-78 0c0,15 -12,27 -27,27 -14,0 -26,-12 -26,-27 0,-15 12,-26 26,-26 15,0 27,11 27,26zm-77 0c0,15 -12,27 -27,27 -14,0 -26,-12 -26,-27 0,-15 12,-26 26,-26 15,0 27,11 27,26zm-79 0c0,15 -12,27 -26,27 -15,0 -27,-12 -27,-27 0,-15 12,-26 27,-26 14,0 26,11 26,26zm-79 0c0,15 -11,27 -26,27 -15,0 -27,-12 -27,-27 0,-15 12,-26 27,-26 15,0 26,11 26,26zm-78 0c0,15 -12,27 -27,27 -15,0 -26,-12 -26,-27 0,-15 11,-26 26,-26 15,0 27,11 27,26zm157 1036c0,14 -12,26 -26,26 -15,0 -27,-12 -27,-26 0,-15 12,-27 27,-27 14,0 26,12 26,27zm-79 0c0,14 -11,26 -26,26 -15,0 -27,-12 -27,-26 0,-15 12,-27 27,-27 15,0 26,12 26,27zm-78 0c0,14 -12,26 -27,26 -15,0 -26,-12 -26,-26 0,-15 11,-27 26,-27 15,0 27,12 27,27zm-342 -23c0,29 -23,53 -52,53 -30,0 -53,-24 -53,-53 0,-29 23,-53 53,-53 29,0 52,24 52,53zm-102 106c0,29 -24,53 -53,53 -29,0 -53,-24 -53,-53 0,-29 24,-53 53,-53 29,0 53,24 53,53zm0 -220c0,29 -24,53 -53,53 -29,0 -53,-24 -53,-53 0,-30 24,-53 53,-53 29,0 53,23 53,53zm146 -741c0,30 -23,53 -53,53 -29,0 -53,-23 -53,-53 0,-29 24,-52 53,-52 30,0 53,23 53,52zm-153 154c0,29 -24,53 -53,53 -29,0 -53,-24 -53,-53 0,-29 24,-53 53,-53 29,0 53,24 53,53zm0 -154c0,30 -24,53 -53,53 -29,0 -53,-23 -53,-53 0,-29 24,-52 53,-52 29,0 53,23 53,52zm153 154c0,29 -23,53 -53,53 -29,0 -53,-24 -53,-53 0,-29 24,-53 53,-53 30,0 53,24 53,53z"/>
   <path class="fil10" d="M5096 5429c46,0 85,25 100,61 15,-36 54,-61 101,-61 59,0 106,41 106,92 0,50 -47,91 -106,91 -47,0 -86,-25 -101,-60 -15,35 -54,60 -100,60 -59,0 -107,-41 -107,-91 0,-51 48,-92 107,-92zm-11 133l0 -31 -31 0 0 -21 31 0 0 -31 21 0 0 31 32 0 0 21 -32 0 0 31 -21 0zm106 -57l0 0 0 0 0 0zm0 32l0 0 0 0 0 0zm106 -76c38,0 69,27 69,60 0,33 -31,59 -69,59 -39,0 -70,-26 -70,-59 0,-33 31,-60 70,-60zm-201 0c38,0 69,27 69,60 0,33 -31,59 -69,59 -39,0 -70,-26 -70,-59 0,-33 31,-60 70,-60z"/>
  </g>
  <path class="fil4 str7" d="M944 2557l0 168c0,34 3,52 24,75 22,21 41,26 75,27l2304 0"/>
  <g id="Raspberry_x0020_Pi">
   <g id="Raspberry">
    <path class="fil8" d="M5413 1784l0 1484c0,87 -71,157 -158,157l-2160 0c-87,0 -158,-70 -158,-157l0 -1484c0,-87 71,-158 158,-158l2160 0c87,0 158,71 158,158z"/>
    <path class="fil11" d="M5299 1858l0 1336c0,78 -65,141 -143,141l-1962 0c-78,0 -143,-63 -143,-141l0 -1336c0,-78 65,-142 143,-142l1962 0c78,0 143,64 143,142z"/>
    <polygon class="fil12" points="4019,2209 4019,2717 3510,2717 3510,2209 "/>
    <polygon class="fil0" points="3996,2232 3996,2694 3534,2694 3534,2232 "/>
    <path class="fil0" d="M4076 1810l0 241 -899 0 0 -241 899 0zm-45 76c0,17 -14,32 -32,32 -17,0 -31,-15 -31,-32 0,-17 14,-31 31,-31 18,0 32,14 32,31zm0 91c0,17 -14,31 -32,31 -17,0 -31,-14 -31,-31 0,-18 14,-32 31,-32 18,0 32,14 32,32zm-95 -91c0,17 -14,32 -31,32 -18,0 -32,-15 -32,-32 0,-17 14,-31 32,-31 17,0 31,14 31,31zm0 91c0,17 -14,31 -31,31 -18,0 -32,-14 -32,-31 0,-18 14,-32 32,-32 17,0 31,14 31,32zm-90 -91c0,17 -14,32 -32,32 -17,0 -31,-15 -31,-32 0,-17 14,-31 31,-31 18,0 32,14 32,31zm0 91c0,17 -14,31 -32,31 -17,0 -31,-14 -31,-31 0,-18 14,-32 31,-32 18,0 32,14 32,32zm-95 -91c0,17 -14,32 -31,32 -18,0 -32,-15 -32,-32 0,-17 14,-31 32,-31 17,0 31,14 31,31zm0 91c0,17 -14,31 -31,31 -18,0 -32,-14 -32,-31 0,-18 14,-32 32,-32 17,0 31,14 31,32zm-94 -91c0,17 -14,32 -32,32 -17,0 -31,-15 -31,-32 0,-17 14,-31 31,-31 18,0 32,14 32,31zm0 91c0,17 -14,31 -32,31 -17,0 -31,-14 -31,-31 0,-18 14,-32 31,-32 18,0 32,14 32,32zm-91 -91c0,17 -14,32 -31,32 -18,0 -32,-15 -32,-32 0,-17 14,-31 32,-31 17,0 31,14 31,31zm0 91c0,17 -14,31 -31,31 -18,0 -32,-14 -32,-31 0,-18 14,-32 32,-32 17,0 31,14 31,32zm-94 -91c0,17 -14,32 -32,32 -17,0 -31,-15 -31,-32 0,-17 14,-31 31,-31 18,0 32,14 32,31zm0 91c0,17 -14,31 -32,31 -17,0 -31,-14 -31,-31 0,-18 14,-32 31,-32 18,0 32,14 32,32zm-95 -91c0,17 -14,32 -31,32 -18,0 -32,-15 -32,-32 0,-17 14,-31 32,-31 17,0 31,14 31,31zm0 91c0,17 -14,31 -31,31 -18,0 -32,-14 -32,-31 0,-18 14,-32 32,-32 17,0 31,14 31,32zm-90 -91c0,17 -14,32 -32,32 -17,0 -31,-15 -31,-32 0,-17 14,-31 31,-31 18,0 32,14 32,31zm0 91c0,17 -14,31 -32,31 -17,0 -31,-14 -31,-31 0,-18 14,-32 31,-32 18,0 32,14 32,32z"/>
    <polygon class="fil5" points="5413,1800 5413,2207 5042,2207 5042,1800 "/>
    <polygon class="fil12" points="5413,1800 5413,2207 5528,2207 5528,1800 "/>
    <polygon class="fil10" points="5462,1901 5462,1951 5297,1951 5297,1901 "/>
    <polygon class="fil10" points="5462,2055 5462,2104 5297,2104 5297,2055 "/>
    <polygon class="fil5" points="5413,2276 5413,2684 5042,2684 5042,2276 "/>
    <polygon class="fil12" points="5413,2276 5413,2684 5528,2684 5528,2276 "/>
    <polygon class="fil10" points="5462,2378 5462,2427 5297,2427 5297,2378 "/>
    <polygon class="fil10" points="5462,2531 5462,2581 5297,2581 5297,2531 "/>
    <polygon class="fil5" points="5413,2760 5413,3272 4918,3272 4918,2760 "/>
    <polygon class="fil12" points="5413,2760 5413,3272 5471,3272 5471,2760 "/>
    <polygon class="fil12" points="4756,2212 4756,2466 4502,2466 4502,2212 "/>
    <polygon class="fil0" points="4733,2235 4733,2443 4525,2443 4525,2235 "/>
    <polygon class="fil0" points="3247,2223 3247,2829 3100,2829 3100,2223 "/>
    <polygon class="fil5" points="3220,2250 3220,2802 3127,2802 3127,2250 "/>
    <polygon class="fil0" points="4430,2673 4430,3279 4283,3279 4283,2673 "/>
    <polygon class="fil5" points="4403,2700 4403,3252 4310,3252 4310,2700 "/>
    <polygon class="fil0" points="4776,3017 4776,3421 4545,3421 4545,3017 "/>
    <polygon class="fil7" points="4725,3489 4725,3421 4596,3421 4596,3489 "/>
    <polygon class="fil5" points="4731,3230 4731,3376 4590,3376 4590,3230 "/>
    <polygon class="fil5" points="4174,3428 3590,3428 3590,3129 4174,3129 "/>
    <polygon class="fil12" points="4174,3428 3590,3428 3590,3521 4174,3521 "/>
    <polygon class="fil10" points="4103,3468 4032,3468 4032,3335 4103,3335 "/>
    <polygon class="fil10" points="3722,3468 3651,3468 3651,3335 3722,3335 "/>
    <polygon class="fil0" points="3051,2700 3051,2352 2937,2352 2937,2700 "/>
    <polygon class="fil7" points="2937,2700 2937,2352 2852,2352 2852,2700 "/>
   </g>
   <g id="Rpi">
    <path class="fil8" d="M4266 2145c-51,-50 -81,-33 -142,-21 -8,54 6,75 35,97l-44 86c-49,80 52,203 131,214 38,5 63,-19 90,-34 42,-32 33,-18 60,-65 29,-82 34,-60 -26,-184 16,-17 78,-82 26,-110 -23,-13 -73,-17 -104,-1 -2,1 -4,2 -6,3l-20 15z"/>
    <path class="fil11" d="M4230 2218c-3,-21 0,-14 -10,-29l-19 -20c36,14 18,18 53,19 5,-93 -179,-64 -89,18 27,25 36,18 65,12z"/>
    <path class="fil11" d="M4280 2183l11 3c15,0 3,3 18,-3 16,-5 16,-10 38,-16 -57,47 -39,18 -46,50 34,16 65,7 83,-29 37,-74 -113,-66 -104,-5z"/>
    <path class="fil11" d="M4226 2367c24,-27 42,-97 -22,-84 -41,9 -73,93 22,84z"/>
    <path class="fil11" d="M4240 2374c-55,27 -13,92 38,71 50,-21 17,-97 -38,-71z"/>
    <path class="fil11" d="M4340 2370c30,-42 9,-98 -39,-85 -42,12 -40,89 39,85z"/>
    <path class="fil11" d="M4319 2461c41,12 60,-26 55,-71 -24,0 -35,3 -50,21 -35,42 -5,50 -5,50z"/>
    <path class="fil11" d="M4192 2457c1,-1 34,-5 -2,-50 -12,-14 -21,-19 -42,-18 -15,39 11,77 44,68z"/>
    <path class="fil11" d="M4224 2252c20,33 57,37 77,2 -22,-24 -67,-36 -77,-2z"/>
    <path class="fil11" d="M4220 2474c-7,30 52,49 79,2 -31,-14 -45,-16 -79,-2z"/>
    <path class="fil11" d="M4122 2378c21,-12 12,14 25,-27 7,-20 2,-26 -2,-40 -36,16 -28,32 -23,67z"/>
    <path class="fil11" d="M4384 2382c5,-5 7,-2 12,-15 5,-12 6,-13 3,-26 -5,-19 -15,-22 -27,-27 -4,35 -4,44 12,68z"/>
    <path class="fil11" d="M4371 2294c-8,-37 -16,-45 -55,-52 11,33 18,35 55,52z"/>
    <path class="fil11" d="M4151 2286c34,-15 44,-18 58,-47 -41,2 -49,9 -58,47z"/>
   </g>
  </g>
  <path class="fil1" d="M6181 3854c-44,-79 -72,-121 -147,-198 -74,-80 -113,-111 -258,-208l0 0c-268,-217 -478,-374 -805,-541 -253,-101 -327,-130 -617,-180l0 497c292,11 461,20 825,75 250,36 288,58 597,149l0 0c164,52 271,88 413,171 143,83 187,123 319,235l-327 0z"/>
  <g id="Webcam">
   <rect class="fil11" x="6861" y="3485" width="45.2923" height="732.094" rx="29" ry="24"/>
   <rect class="fil6" x="5691" y="3359" width="1169" height="984" rx="34" ry="71"/>
   <rect class="fil8" x="5828" y="3686" width="895" height="329" rx="24" ry="24"/>
   <polygon class="fil6" points="6944,3778 6987,3793 6987,3910 6944,3924 6944,3958 6904,3972 6904,3730 6944,3744 "/>
   <polygon class="fil13" points="6911,4062 6934,4073 6934,4102 6911,4112 "/>
  </g>
  <g id="_268885256">
   <circle class="fil7" cx="5752" cy="1661" r="217"/>
   <polygon class="fil12" points="5752,1523 5812,1558 5872,1592 5872,1661 5872,1731 5812,1765 5752,1800 5692,1765 5632,1731 5632,1661 5632,1592 5692,1558 "/>
   <circle class="fil2" cx="5752" cy="1661" r="79"/>
   <circle class="fil1" cx="5752" cy="1661" r="65"/>
  </g>
  <g id="_268884560">
   <circle class="fil7" cx="1512" cy="1661" r="217"/>
   <polygon class="fil12" points="1512,1523 1572,1558 1632,1592 1632,1661 1632,1731 1572,1765 1512,1800 1452,1765 1392,1731 1392,1661 1392,1592 1452,1558 "/>
   <circle class="fil2" cx="1512" cy="1661" r="79"/>
   <circle class="fil1" cx="1512" cy="1661" r="65"/>
  </g>
  <g id="_268882928">
   <circle class="fil7" cx="5752" cy="6067" r="217"/>
   <polygon class="fil12" points="5752,5929 5812,5963 5872,5998 5872,6067 5872,6136 5812,6171 5752,6205 5692,6171 5632,6136 5632,6067 5632,5998 5692,5963 "/>
   <circle class="fil2" cx="5752" cy="6067" r="79"/>
   <circle class="fil1" cx="5752" cy="6067" r="65"/>
  </g>
  <g id="_268881872">
   <circle class="fil7" cx="1512" cy="6067" r="217"/>
   <polygon class="fil12" points="1512,5929 1572,5963 1632,5998 1632,6067 1632,6136 1572,6171 1512,6205 1452,6171 1392,6136 1392,6067 1392,5998 1452,5963 "/>
   <circle class="fil2" cx="1512" cy="6067" r="79"/>
   <circle class="fil1" cx="1512" cy="6067" r="65"/>
  </g>
  <path class="fil6 str8" d="M5681 2268l0 426c0,22 -18,40 -39,40l-147 0c-22,0 -40,-18 -40,-40l0 -426c0,-22 18,-40 40,-40l147 0c21,0 39,18 39,40z"/>
  <path class="fil4 str9" d="M3633 5491c-16,0 -168,0 -181,-1 -94,-5 -119,-33 -136,-142l0 -1328c0,-133 122,-134 173,-134 297,4 1962,1 2155,1 51,-4 85,-5 116,-39 35,-37 33,-76 33,-134l0 -1026c-4,-57 -5,-77 -30,-139 -31,-50 -45,-65 -88,-69l0 0"/>
  <path class="fil6 str8" d="M3655 5420l0 141c0,22 -18,39 -39,39l-72 0c-21,0 -39,-17 -39,-39l0 -141c0,-21 18,-39 39,-39l72 0c21,0 39,18 39,39z"/>
  <polygon class="fil14" points="910,2276 1012,2276 1012,2562 869,2562 869,2324 "/>
  <path class="fil4 str3" d="M3808 3968c-58,85 -171,112 -262,60 -59,-34 -93,-94 -98,-157m30 -118c56,-89 173,-119 265,-66 56,32 90,88 97,147"/>
 </g>
</svg>
