<?xml version="1.0" encoding="UTF-8"?>
<!DOCTYPE svg PUBLIC "-//W3C//DTD SVG 1.1//EN" "http://www.w3.org/Graphics/SVG/1.1/DTD/svg11.dtd">
<!-- Creator: CorelDRAW X6 -->
<svg xmlns="http://www.w3.org/2000/svg" xml:space="preserve" width="28.5in" height="32in" version="1.1" style="shape-rendering:geometricPrecision; text-rendering:geometricPrecision; image-rendering:optimizeQuality; fill-rule:evenodd; clip-rule:evenodd"
viewBox="0 0 28500 32000"
 xmlns:xlink="http://www.w3.org/1999/xlink">
 <defs>
  <style type="text/css">
   <![CDATA[
    .str8 {stroke:black;stroke-width:9.37795}
    .str0 {stroke:black;stroke-width:24.6142}
    .str2 {stroke:#CCCCCC;stroke-width:61.5315}
    .str1 {stroke:white;stroke-width:61.5315}
    .str6 {stroke:#999999;stroke-width:92.2953}
    .str5 {stroke:#E3B14D;stroke-width:92.2953}
    .str4 {stroke:#B3B3B3;stroke-width:123.063}
    .str3 {stroke:#B3B3B3;stroke-width:184.594}
    .str9 {stroke:black;stroke-width:307.654}
    .str7 {stroke:#CCCCCC;stroke-width:307.654}
    .fil9 {fill:none}
    .fil3 {fill:black}
    .fil6 {fill:blue}
    .fil18 {fill:#008095}
    .fil20 {fill:#112D37}
    .fil17 {fill:#32366B}
    .fil12 {fill:#4D4D4D}
    .fil21 {fill:#54737A}
    .fil1 {fill:#588664}
    .fil2 {fill:#627267}
    .fil4 {fill:#666666}
    .fil14 {fill:#7E7950}
    .fil0 {fill:gray}
    .fil15 {fill:#867903}
    .fil13 {fill:#999999}
    .fil11 {fill:#B3B3B3}
    .fil19 {fill:#CCCCCC}
    .fil16 {fill:#E3B14D}
    .fil5 {fill:#E6E6E6}
    .fil10 {fill:red}
    .fil8 {fill:white}
    .fil7 {fill:white;fill-rule:nonzero}
   ]]>
  </style>
 </defs>
 <g id="Layer_x0020_1">
  <metadata id="CorelCorpID_0Corel-Layer"/>
  <g id="_112280112">
   <polygon class="fil0" points="14486,5135 14486,3979 13830,3979 13830,5135 "/>
   <polygon class="fil0" points="14486,28031 14486,26833 13830,26833 13830,28031 "/>
   <path class="fil1 str0" d="M16100 6052l0 19865c0,510 -406,916 -916,916l-12334 0c-510,0 -927,-406 -927,-916l0 -19865c0,-500 417,-917 927,-917l12334 0c510,0 916,417 916,917z"/>
   <path class="fil2" d="M14882 10844l0 10552c0,208 -167,375 -365,375l-5635 0c-198,0 -365,-167 -365,-375l0 -10552c0,-209 167,-375 365,-375l5635 0c198,0 365,166 365,375z"/>
   <g id="Powerbank">
    <path class="fil3" d="M14642 20552l0 3708c0,542 -437,990 -979,990l-5729 0c-531,0 -979,-448 -979,-990l0 -3708c0,-542 448,-989 979,-989l5729 0c542,0 979,447 979,989z"/>
    <path class="fil4" d="M14257 20823l0 3167c0,458 -375,833 -834,833l-5250 0c-458,0 -833,-375 -833,-833l0 -3167c0,-458 375,-833 833,-833l5250 0c459,0 834,375 834,833z"/>
    <path class="fil3" d="M14069 20958l0 2896c0,427 -344,771 -771,771l-5000 0c-416,0 -770,-344 -770,-771l0 -2896c0,-427 354,-770 770,-770l5000 0c427,0 771,343 771,770z"/>
    <path class="fil5" d="M9465 21490l0 1833c0,156 -125,281 -281,281l-969 0c-156,0 -292,-125 -292,-281l0 -1833c0,-157 136,-282 292,-282l969 0c156,0 281,125 281,282z"/>
    <path class="fil3" d="M9194 21635l0 1542c0,104 -83,188 -187,188l-625 0c-104,0 -188,-84 -188,-188l0 -1542c0,-104 84,-187 188,-187l625 0c104,0 187,83 187,187z"/>
    <path class="fil0" d="M9090 21698l0 1427c0,83 -62,146 -146,146l-500 0c-83,0 -146,-63 -146,-146l0 -1427c0,-83 63,-156 146,-156l500 0c84,0 146,73 146,156z"/>
    <path class="fil3" d="M9048 21729l0 1365c0,73 -62,135 -135,135l-448 0c-73,0 -125,-62 -125,-135l0 -1365c0,-73 52,-135 125,-135l448 0c73,0 135,62 135,135z"/>
    <path class="fil6" d="M9423 22406c0,63 -41,104 -104,104 -52,0 -104,-41 -104,-104 0,-52 52,-104 104,-104 63,0 104,52 104,104z"/>
    <path class="fil6" d="M8163 23042c0,62 -42,104 -104,104 -52,0 -104,-42 -104,-104 0,-52 52,-104 104,-104 62,0 104,52 104,104z"/>
    <path class="fil6" d="M8163 21771c0,62 -42,104 -104,104 -52,0 -104,-42 -104,-104 0,-52 52,-104 104,-104 62,0 104,52 104,104z"/>
    <path class="fil6" d="M8163 22406c0,63 -42,104 -94,104 -62,0 -104,-41 -104,-104 0,-52 42,-104 104,-104 52,0 94,52 94,104z"/>
    <path class="fil5" d="M13413 21740l0 1312c0,156 -125,271 -271,271l-927 0c-146,0 -271,-115 -271,-271l0 -1312c0,-146 125,-271 271,-271l927 0c146,0 271,125 271,271z"/>
    <path class="fil3" d="M13350 21781l0 1229c0,136 -114,250 -250,250l-843 0c-136,0 -250,-114 -250,-250l0 -1229c0,-135 114,-250 250,-250l843 0c136,0 250,115 250,250z"/>
    <path class="fil7 str1" d="M12319 22625l0 385 354 0 0 -385c0,-31 -10,-42 -20,-52 -11,-10 -42,-21 -84,-21l-146 0c-31,0 -62,11 -83,21 -10,10 -21,21 -21,52l0 0zm875 500l-1000 0 0 -542c0,-52 11,-83 42,-114 31,-21 83,-31 146,-31l229 0c73,0 114,10 146,31 31,31 52,62 52,114l0 94 385 -302 0 167 -385 271 0 197 385 0 0 115 0 0zm-864 -1375l0 469 281 0 0 -417c0,-62 10,-104 52,-125 31,-21 94,-42 187,-42l115 0c83,0 156,21 188,42 31,21 41,63 41,125l0 573c0,167 -31,167 -73,188 -21,10 -62,93 -62,52 0,-334 0,-240 0,-334l0 -541 -302 0 0 427c0,62 -21,104 -52,125 -32,21 -94,31 -188,31l-83 0c-94,0 -157,-10 -198,-31 -31,-21 -42,-63 -42,-125l0 -365c0,-52 11,-94 42,-114 41,-32 94,-42 177,-42l21 0 41 104 -145 0 0 0z"/>
   </g>
   <g id="Wifi">
    <path class="fil3" d="M5913 15990c0,937 -760,1698 -1708,1698 -938,0 -1698,-761 -1698,-1698 0,-948 760,-1709 1698,-1709 948,0 1708,761 1708,1709zm-427 -802c0,145 -125,260 -271,260 -156,0 -271,-115 -271,-260 0,-157 115,-271 271,-271 146,0 271,114 271,271zm0 1604c0,146 -125,271 -271,271 -156,0 -271,-125 -271,-271 0,-146 115,-271 271,-271 146,0 271,125 271,271zm-865 104l0 31c0,136 -114,250 -250,250l-812 0c-136,0 -240,-114 -240,-250l0 -31c0,-136 104,-250 240,-250l812 0c136,0 250,114 250,250zm-10 -1854l0 31c0,135 -104,250 -240,250l-812 0c-136,0 -250,-115 -250,-250l0 -31c0,-136 114,-250 250,-250l812 0c136,0 240,114 240,250z"/>
    <polygon class="fil3" points="486,17417 486,14563 3736,14740 3944,14969 3944,17031 3736,17240 "/>
    <polygon class="fil8" points="538,17344 538,14635 3684,14802 3892,15021 3892,16979 3684,17177 "/>
    <polygon class="fil3" points="1184,17250 975,17052 975,14938 1184,14729 3684,14865 3840,15073 3840,16927 3684,17115 "/>
    <line class="fil9 str2" x1="663" y1="14771" x2="663" y2= "17219" />
    <line class="fil9 str2" x1="809" y1="14833" x2="809" y2= "17177" />
    <path class="fil8" d="M2100 15938l0 -94 -531 0 -510 -636 0 542 416 187 625 0 0 1zm0 114l0 94 -531 0 -510 635 0 -552 416 -177 625 0 0 0z"/>
    <path class="fil7" d="M2184 16177l0 -375 73 0c21,0 31,0 41,11 11,0 32,10 32,20 20,21 20,42 31,63 10,31 10,62 10,94 0,20 0,52 -10,73 0,20 -11,41 -11,52 -10,20 -10,31 -20,31 -11,10 -21,21 -32,21 -10,10 -20,10 -31,10l-83 0 0 0zm31 -42l42 0c21,0 31,-10 41,-10 11,0 11,-10 21,-21 0,-10 11,-31 11,-41 10,-21 10,-53 10,-73 0,-42 0,-73 -10,-94 -11,-21 -21,-31 -32,-42 -10,-10 -21,-10 -41,-10l-42 0 0 291 0 0zm177 -72l0 -42 94 0 0 42 -94 0zm125 114l0 -375 31 0 0 333 105 0 0 42 -136 0zm167 -323l0 -52 31 0 0 52 -31 0zm0 323l0 -271 31 0 0 271 -31 0zm73 0l0 -271 31 0 0 42c10,-31 21,-52 52,-52 0,0 10,10 21,10 10,11 21,11 21,21 0,11 10,21 10,42 0,0 0,21 0,41l0 167 -31 0 0 -167c0,-20 0,-31 0,-41 0,-11 -11,-21 -11,-21 -10,-11 -10,-11 -20,-11 -11,0 -21,11 -32,21 -10,11 -10,32 -10,73l0 146 -31 0 0 0zm177 0l0 -375 31 0 0 208 63 -104 31 0 -63 104 73 167 -31 0 -52 -135 -21 31 0 104 -31 0z"/>
    <polygon class="fil10" points="3788,15844 3788,16146 3486,16146 3486,15844 "/>
    <polygon class="fil10" points="3423,15844 3423,16146 3132,16146 3132,15844 "/>
    <line class="fil9 str2" x1="3132" y1="16240" x2="3778" y2= "16240" />
    <line class="fil9 str2" x1="3132" y1="15750" x2="3778" y2= "15750" />
    <polygon class="fil11" points="3944,15542 3944,16469 4653,16427 4653,15583 "/>
    <polygon class="fil3" points="4496,15719 4496,15865 4100,15865 4100,15719 "/>
    <polygon class="fil3" points="4496,16146 4496,16292 4100,16292 4100,16146 "/>
   </g>
   <g id="Webcam">
    <path class="fil3" d="M17903 14646l0 0c0,344 -282,625 -625,625l-1532 0c-344,0 -625,-281 -625,-625l0 0c0,-344 282,-625 625,-625l1532 0c343,0 625,281 625,625zm-1928 -11c0,115 -104,219 -218,219 -115,0 -219,-104 -219,-219 0,-114 104,-208 219,-208 114,0 218,94 218,208z"/>
    <path class="fil12" d="M17809 14646l0 0c0,292 -240,531 -531,531l-1532 0c-291,0 -531,-239 -531,-531l0 0c0,-292 240,-531 531,-531l1532 0c291,0 531,239 531,531zm-1834 -11c0,115 -104,219 -218,219 -115,0 -219,-104 -219,-219 0,-114 104,-208 219,-208 114,0 218,94 218,208z"/>
    <path class="fil3" d="M17903 17323l0 0c0,344 -282,625 -625,625l-1532 0c-344,0 -625,-281 -625,-625l0 0c0,-344 282,-625 625,-625l1532 0c343,0 625,281 625,625zm-1928 -21c0,125 -104,219 -218,219 -115,0 -219,-94 -219,-219 0,-114 104,-208 219,-208 114,0 218,94 218,208z"/>
    <path class="fil12" d="M17809 17323l0 0c0,292 -240,531 -531,531l-1532 0c-291,0 -531,-239 -531,-531l0 0c0,-292 240,-531 531,-531l1532 0c291,0 531,239 531,531zm-1834 -21c0,125 -104,219 -218,219 -115,0 -219,-94 -219,-219 0,-114 104,-208 219,-208 114,0 218,94 218,208z"/>
    <path class="fil3" d="M18694 14396l0 3177c0,208 -166,375 -364,375l-1407 0c-208,0 -375,-167 -375,-375l0 -3177c0,-208 167,-375 375,-375l1407 0c198,0 364,167 364,375z"/>
    <path class="fil8" d="M18611 14458l0 3052c0,188 -146,334 -333,334l-1261 0c-187,0 -333,-146 -333,-334l0 -3052c0,-187 146,-333 333,-333l1261 0c187,0 333,146 333,333z"/>
    <path class="fil3" d="M18548 14500l0 2979c0,167 -145,313 -312,313l-1198 0c-177,0 -313,-146 -313,-313l0 -2979c0,-177 136,-312 313,-312l1198 0c167,0 312,135 312,312z"/>
    <path class="fil8" d="M17965 14344l0 3281c0,125 -104,219 -219,219l-844 0c-125,0 -218,-94 -218,-219l0 -3281c0,-125 93,-219 218,-219l844 0c115,0 219,94 219,219z"/>
    <path class="fil3" d="M17903 14385l0 3209c0,104 -94,198 -198,198l-761 0c-104,0 -198,-94 -198,-198l0 -3209c0,-114 94,-197 198,-197l761 0c104,0 198,83 198,197z"/>
    <path class="fil13" d="M17778 15979l0 21c0,156 -136,292 -303,292l-312 0c-156,0 -292,-136 -292,-292l0 -21c0,-166 136,-302 292,-302l312 0c167,0 303,136 303,302z"/>
    <path class="fil12" d="M17705 15979l0 11c0,135 -115,239 -240,239l-281 0c-136,0 -240,-104 -240,-239l0 -11c0,-135 104,-239 240,-239l281 0c125,0 240,104 240,239z"/>
    <path class="fil13" d="M17778 17021l0 21c0,166 -136,302 -303,302l-312 0c-156,0 -292,-136 -292,-302l0 -21c0,-156 136,-292 292,-292l312 0c167,0 303,136 303,292z"/>
    <path class="fil12" d="M17694 17021l0 21c0,135 -104,239 -229,239l-281 0c-136,0 -240,-104 -240,-239l0 -21c0,-125 104,-229 240,-229l281 0c125,0 229,104 229,229z"/>
    <path class="fil13" d="M17778 14917l0 21c0,166 -136,291 -303,291l-312 0c-156,0 -292,-125 -292,-291l0 -21c0,-167 136,-292 292,-292l312 0c167,0 303,125 303,292z"/>
    <path class="fil12" d="M17694 14917l0 21c0,125 -104,229 -229,229l-281 0c-136,0 -240,-104 -240,-229l0 -21c0,-125 104,-240 240,-240l281 0c125,0 229,115 229,240z"/>
   </g>
   <g id="Rueda_x0020_Der">
    <path class="fil14" d="M17538 28396l0 2427c0,198 -167,365 -365,365l-5791 0c-209,0 -375,-167 -375,-365l0 -2427c0,-198 166,-365 375,-365l5791 0c198,0 365,167 365,365z"/>
    <line class="fil9 str3" x1="17517" y1="29615" x2="11007" y2= "29615" />
    <path class="fil9 str4" d="M17194 31177l-583 -1562m-73 1562l-604 -1614m-73 1614l-604 -1614m-63 1614l-573 -1552m-104 1552l-573 -1542m-83 1542l-604 -1614m-73 1614l-604 -1614m-52 1614l-584 -1552m-94 1552l-583 -1542m6208 657l-250 -677m-333 -1573l-594 1573m-73 -1573l-604 1625m-73 -1625l-604 1625m-52 -1625l-583 1562m-94 -1562l-583 1562m-73 -1562l-615 1625m-62 -1625l-604 1625m-63 -1625l-583 1562m-94 -1562l-469 1281m6375 -1125l-531 1417"/>
    <path class="fil11" d="M17215 28479c0,104 -73,177 -177,177 -94,0 -177,-73 -177,-177 0,-94 83,-177 177,-177 104,0 177,83 177,177zm-62 0c0,63 -53,115 -115,115 -52,0 -104,-52 -104,-115 0,-62 52,-104 104,-104 62,0 115,42 115,104z"/>
    <path class="fil11" d="M16996 29073c0,94 -83,177 -177,177 -94,0 -177,-83 -177,-177 0,-94 83,-177 177,-177 94,0 177,83 177,177zm-73 0c0,62 -41,104 -104,104 -62,0 -104,-42 -104,-104 0,-63 42,-104 104,-104 63,0 104,41 104,104z"/>
    <path class="fil11" d="M15903 28479c0,104 -84,177 -178,177 -93,0 -177,-73 -177,-177 0,-94 84,-177 177,-177 94,0 178,83 178,177zm-73 0c0,63 -42,115 -105,115 -62,0 -104,-52 -104,-115 0,-62 42,-104 104,-104 63,0 105,42 105,104z"/>
    <path class="fil11" d="M15673 29073c0,94 -73,177 -166,177 -104,0 -177,-83 -177,-177 0,-94 73,-177 177,-177 93,0 166,83 166,177zm-62 0c0,62 -52,104 -104,104 -63,0 -115,-42 -115,-104 0,-63 52,-104 115,-104 52,0 104,41 104,104z"/>
    <path class="fil11" d="M14569 28479c0,104 -73,177 -177,177 -94,0 -177,-73 -177,-177 0,-94 83,-177 177,-177 104,0 177,83 177,177zm-62 0c0,63 -52,115 -115,115 -52,0 -104,-52 -104,-115 0,-62 52,-104 104,-104 63,0 115,42 115,104z"/>
    <path class="fil11" d="M14350 29073c0,94 -83,177 -177,177 -93,0 -177,-83 -177,-177 0,-94 84,-177 177,-177 94,0 177,83 177,177zm-72 0c0,62 -42,104 -105,104 -62,0 -104,-42 -104,-104 0,-63 42,-104 104,-104 63,0 105,41 105,104z"/>
    <path class="fil11" d="M13225 28479c0,104 -72,177 -177,177 -93,0 -166,-73 -166,-177 0,-94 73,-177 166,-177 105,0 177,83 177,177zm-62 0c0,63 -52,115 -115,115 -52,0 -104,-52 -104,-115 0,-62 52,-104 104,-104 63,0 115,42 115,104z"/>
    <path class="fil11" d="M13007 29073c0,94 -73,177 -177,177 -94,0 -177,-83 -177,-177 0,-94 83,-177 177,-177 104,0 177,83 177,177zm-63 0c0,62 -52,104 -114,104 -52,0 -105,-42 -105,-104 0,-63 53,-104 105,-104 62,0 114,41 114,104z"/>
    <path class="fil11" d="M11903 28479c0,104 -84,177 -178,177 -93,0 -177,-73 -177,-177 0,-94 84,-177 177,-177 94,0 178,83 178,177zm-73 0c0,63 -42,115 -105,115 -62,0 -104,-52 -104,-115 0,-62 42,-104 104,-104 63,0 105,42 105,104z"/>
    <path class="fil11" d="M11673 29073c0,94 -73,177 -166,177 -104,0 -177,-83 -177,-177 0,-94 73,-177 177,-177 93,0 166,83 166,177zm-62 0c0,62 -52,104 -104,104 -63,0 -115,-42 -115,-104 0,-63 52,-104 115,-104 52,0 104,41 104,104z"/>
    <path class="fil11" d="M16850 30729c0,-94 -83,-166 -177,-166 -104,0 -177,72 -177,166 0,104 73,177 177,177 94,0 177,-73 177,-177zm-72 0c0,-52 -53,-104 -105,-104 -62,0 -114,52 -114,104 0,63 52,115 114,115 52,0 105,-52 105,-115z"/>
    <path class="fil11" d="M16621 30146c0,-104 -73,-177 -166,-177 -105,0 -177,73 -177,177 0,94 72,177 177,177 93,0 166,-83 166,-177zm-62 0c0,-63 -52,-115 -104,-115 -63,0 -115,52 -115,115 0,52 52,104 115,104 52,0 104,-52 104,-104z"/>
    <path class="fil11" d="M15528 30729c0,-94 -73,-166 -178,-166 -93,0 -166,72 -166,166 0,104 73,177 166,177 105,0 178,-73 178,-177zm-63 0c0,-52 -52,-104 -115,-104 -52,0 -104,52 -104,104 0,63 52,115 104,115 63,0 115,-52 115,-115z"/>
    <path class="fil11" d="M15309 30146c0,-104 -84,-177 -177,-177 -94,0 -177,73 -177,177 0,94 83,177 177,177 93,0 177,-83 177,-177zm-73 0c0,-63 -42,-115 -104,-115 -63,0 -104,52 -104,115 0,52 41,104 104,104 62,0 104,-52 104,-104z"/>
    <path class="fil11" d="M14205 30729c0,-94 -84,-166 -177,-166 -105,0 -178,72 -178,166 0,104 73,177 178,177 93,0 177,-73 177,-177zm-73 0c0,-52 -52,-104 -104,-104 -63,0 -115,52 -115,104 0,63 52,115 115,115 52,0 104,-52 104,-115z"/>
    <path class="fil11" d="M13975 30146c0,-104 -72,-177 -166,-177 -104,0 -177,73 -177,177 0,94 73,177 177,177 94,0 166,-83 166,-177zm-62 0c0,-63 -52,-115 -104,-115 -63,0 -115,52 -115,115 0,52 52,104 115,104 52,0 104,-52 104,-104z"/>
    <path class="fil11" d="M12861 30729c0,-94 -83,-166 -177,-166 -94,0 -177,72 -177,166 0,104 83,177 177,177 94,0 177,-73 177,-177zm-73 0c0,-52 -42,-104 -104,-104 -63,0 -104,52 -104,104 0,63 41,115 104,115 62,0 104,-52 104,-115z"/>
    <path class="fil11" d="M12642 30146c0,-104 -83,-177 -177,-177 -104,0 -177,73 -177,177 0,94 73,177 177,177 94,0 177,-83 177,-177zm-73 0c0,-63 -52,-115 -104,-115 -62,0 -115,52 -115,115 0,52 53,104 115,104 52,0 104,-52 104,-104z"/>
    <path class="fil11" d="M11528 30729c0,-94 -73,-166 -178,-166 -93,0 -166,72 -166,166 0,104 73,177 166,177 105,0 178,-73 178,-177zm-63 0c0,-52 -52,-104 -115,-104 -52,0 -104,52 -104,104 0,63 52,115 104,115 63,0 115,-52 115,-115z"/>
    <path class="fil11" d="M11309 30146c0,-104 -84,-177 -177,-177 -42,0 -94,21 -125,52l0 250c31,31 83,52 125,52 93,0 177,-83 177,-177zm-73 0c0,-63 -42,-115 -104,-115 -63,0 -104,52 -104,115 0,52 41,104 104,104 62,0 104,-52 104,-104z"/>
   </g>
   <g id="Rueda_x0020_Izq">
    <path class="fil14" d="M17496 1188l0 2416c0,209 -166,375 -364,375l-5792 0c-208,0 -375,-166 -375,-375l0 -2416c0,-209 167,-375 375,-375l5792 0c198,0 364,166 364,375z"/>
    <line class="fil9 str3" x1="17475" y1="2396" x2="10965" y2= "2396" />
    <path class="fil9 str4" d="M17153 3958l-584 -1552m-83 1552l-604 -1614m-73 1614l-594 -1604m-62 1604l-584 -1552m-94 1552l-572 -1541m-84 1541l-604 -1614m-73 1614l-604 -1604m-63 1604l-572 -1552m-94 1552l-584 -1541m6209 656l-250 -667m-344 -1573l-583 1563m-73 -1563l-604 1625m-73 -1625l-604 1615m-53 -1615l-583 1563m-94 -1563l-583 1552m-83 -1552l-604 1625m-63 -1625l-615 1615m-52 -1615l-583 1563m-94 -1563l-479 1271m6386 -1125l-532 1417"/>
    <path class="fil11" d="M17173 1271c0,94 -83,167 -177,167 -93,0 -177,-73 -177,-167 0,-104 84,-177 177,-177 94,0 177,73 177,177zm-73 0c0,52 -41,104 -104,104 -62,0 -104,-52 -104,-104 0,-63 42,-115 104,-115 63,0 104,52 104,115z"/>
    <path class="fil11" d="M16955 1854c0,104 -84,177 -177,177 -105,0 -178,-73 -178,-177 0,-94 73,-177 178,-177 93,0 177,83 177,177zm-73 0c0,63 -52,115 -104,115 -63,0 -115,-52 -115,-115 0,-52 52,-104 115,-104 52,0 104,52 104,104z"/>
    <path class="fil11" d="M15850 1271c0,94 -72,167 -166,167 -104,0 -177,-73 -177,-167 0,-104 73,-177 177,-177 94,0 166,73 166,177zm-62 0c0,52 -52,104 -104,104 -63,0 -115,-52 -115,-104 0,-63 52,-115 115,-115 52,0 104,52 104,115z"/>
    <path class="fil11" d="M15632 1854c0,104 -73,177 -177,177 -94,0 -177,-73 -177,-177 0,-94 83,-177 177,-177 104,0 177,83 177,177zm-63 0c0,63 -52,115 -114,115 -52,0 -105,-52 -105,-115 0,-52 53,-104 105,-104 62,0 114,52 114,104z"/>
    <path class="fil11" d="M14528 1271c0,94 -84,167 -178,167 -93,0 -177,-73 -177,-167 0,-104 84,-177 177,-177 94,0 178,73 178,177zm-73 0c0,52 -42,104 -105,104 -62,0 -104,-52 -104,-104 0,-63 42,-115 104,-115 63,0 105,52 105,115z"/>
    <path class="fil11" d="M14309 1854c0,104 -84,177 -177,177 -104,0 -177,-73 -177,-177 0,-94 73,-177 177,-177 93,0 177,83 177,177zm-73 0c0,63 -52,115 -104,115 -63,0 -115,-52 -115,-115 0,-52 52,-104 115,-104 52,0 104,52 104,104z"/>
    <path class="fil11" d="M13184 1271c0,94 -73,167 -177,167 -94,0 -177,-73 -177,-167 0,-104 83,-177 177,-177 104,0 177,73 177,177zm-73 0c0,52 -42,104 -104,104 -63,0 -104,-52 -104,-104 0,-63 41,-115 104,-115 62,0 104,52 104,115z"/>
    <path class="fil11" d="M12965 1854c0,104 -83,177 -177,177 -94,0 -177,-73 -177,-177 0,-94 83,-177 177,-177 94,0 177,83 177,177zm-73 0c0,63 -42,115 -104,115 -63,0 -104,-52 -104,-115 0,-52 41,-104 104,-104 62,0 104,52 104,104z"/>
    <path class="fil11" d="M11850 1271c0,94 -72,167 -166,167 -104,0 -177,-73 -177,-167 0,-104 73,-177 177,-177 94,0 166,73 166,177zm-62 0c0,52 -52,104 -104,104 -63,0 -115,-52 -115,-104 0,-63 52,-115 115,-115 52,0 104,52 104,115z"/>
    <path class="fil11" d="M11632 1854c0,104 -73,177 -177,177 -94,0 -177,-73 -177,-177 0,-94 83,-177 177,-177 104,0 177,83 177,177zm-63 0c0,63 -52,115 -114,115 -52,0 -105,-52 -105,-115 0,-52 53,-104 105,-104 62,0 114,52 114,104z"/>
    <path class="fil11" d="M16798 3521c0,-104 -73,-177 -166,-177 -104,0 -177,73 -177,177 0,94 73,177 177,177 93,0 166,-83 166,-177zm-62 0c0,-63 -52,-115 -104,-115 -63,0 -115,52 -115,115 0,52 52,104 115,104 52,0 104,-52 104,-104z"/>
    <path class="fil11" d="M16580 2927c0,-94 -73,-177 -177,-177 -94,0 -178,83 -178,177 0,94 84,177 178,177 104,0 177,-83 177,-177zm-63 0c0,-62 -52,-104 -114,-104 -53,0 -105,42 -105,104 0,63 52,104 105,104 62,0 114,-41 114,-104z"/>
    <path class="fil11" d="M15486 3521c0,-104 -83,-177 -177,-177 -94,0 -177,73 -177,177 0,94 83,177 177,177 94,0 177,-83 177,-177zm-73 0c0,-63 -42,-115 -104,-115 -63,0 -104,52 -104,115 0,52 41,104 104,104 62,0 104,-52 104,-104z"/>
    <path class="fil11" d="M15267 2927c0,-94 -83,-177 -177,-177 -94,0 -177,83 -177,177 0,94 83,177 177,177 94,0 177,-83 177,-177zm-73 0c0,-62 -41,-104 -104,-104 -62,0 -104,42 -104,104 0,63 42,104 104,104 63,0 104,-41 104,-104z"/>
    <path class="fil11" d="M14153 3521c0,-104 -73,-177 -167,-177 -104,0 -177,73 -177,177 0,94 73,177 177,177 94,0 167,-83 167,-177zm-63 0c0,-63 -52,-115 -104,-115 -63,0 -115,52 -115,115 0,52 52,104 115,104 52,0 104,-52 104,-104z"/>
    <path class="fil11" d="M13934 2927c0,-94 -73,-177 -177,-177 -94,0 -177,83 -177,177 0,94 83,177 177,177 104,0 177,-83 177,-177zm-63 0c0,-62 -52,-104 -114,-104 -52,0 -104,42 -104,104 0,63 52,104 104,104 62,0 114,-41 114,-104z"/>
    <path class="fil11" d="M12819 3521c0,-104 -83,-177 -177,-177 -104,0 -177,73 -177,177 0,94 73,177 177,177 94,0 177,-83 177,-177zm-73 0c0,-63 -52,-115 -104,-115 -62,0 -114,52 -114,115 0,52 52,104 114,104 52,0 104,-52 104,-104z"/>
    <path class="fil11" d="M12590 2927c0,-94 -73,-177 -177,-177 -94,0 -167,83 -167,177 0,94 73,177 167,177 104,0 177,-83 177,-177zm-62 0c0,-62 -53,-104 -115,-104 -52,0 -104,42 -104,104 0,63 52,104 104,104 62,0 115,-41 115,-104z"/>
    <path class="fil11" d="M11486 3521c0,-104 -83,-177 -177,-177 -94,0 -177,73 -177,177 0,94 83,177 177,177 94,0 177,-83 177,-177zm-73 0c0,-63 -42,-115 -104,-115 -63,0 -104,52 -104,115 0,52 41,104 104,104 62,0 104,-52 104,-104z"/>
    <path class="fil11" d="M11267 2927c0,-94 -83,-177 -177,-177 -52,0 -94,21 -125,52l0 250c31,31 73,52 125,52 94,0 177,-83 177,-177zm-73 0c0,-62 -41,-104 -104,-104 -62,0 -104,42 -104,104 0,63 42,104 104,104 63,0 104,-41 104,-104z"/>
   </g>
   <g id="Board">
    <path class="fil15" d="M14955 14094l0 3771c0,198 -167,364 -365,364l-4469 0c-208,0 -375,-166 -375,-364l0 -3771c0,-198 167,-365 375,-365l4469 0c198,0 365,167 365,365l0 0z"/>
    <path class="fil16" d="M14746 14281l0 3396c0,177 -146,333 -333,333l-4125 0c-177,0 -333,-156 -333,-333l0 -3396c0,-177 156,-323 333,-323l4125 0c187,0 333,146 333,323zm-83 63l0 3271c0,177 -135,323 -313,323l-3989 0c-177,0 -323,-146 -323,-323l0 -3271c0,-177 146,-323 323,-323l3989 0c178,0 313,146 313,323z"/>
    <path class="fil16" d="M13830 14406c0,94 -73,167 -167,167 -94,0 -167,-73 -167,-167 0,-94 73,-166 167,-166 94,0 167,73 167,166z"/>
    <path class="fil16" d="M14288 14406c0,94 -83,167 -167,167 -93,0 -166,-73 -166,-167 0,-94 73,-166 166,-166 84,0 167,73 167,166z"/>
    <path class="fil16" d="M13371 14406c0,94 -73,167 -166,167 -84,0 -167,-73 -167,-167 0,-94 83,-166 167,-166 93,0 166,73 166,166z"/>
    <path class="fil16" d="M12548 14406c0,94 -73,167 -166,167 -94,0 -167,-73 -167,-167 0,-94 73,-166 167,-166 93,0 166,73 166,166z"/>
    <path class="fil16" d="M12090 14406c0,94 -73,167 -167,167 -83,0 -156,-73 -156,-167 0,-94 73,-166 156,-166 94,0 167,73 167,166z"/>
    <path class="fil16" d="M14288 17521c0,94 -83,167 -167,167 -93,0 -166,-73 -166,-167 0,-94 73,-167 166,-167 84,0 167,73 167,167z"/>
    <path class="fil16" d="M14288 17042c0,93 -83,166 -167,166 -93,0 -166,-73 -166,-166 0,-94 73,-167 166,-167 84,0 167,73 167,167z"/>
    <polyline class="fil9 str5" points="14153,14406 14434,14698 14434,17260 14153,17521 "/>
    <polyline class="fil9 str5" points="13663,14406 14132,14885 14121,17042 "/>
    <path class="fil16" d="M13371 17510c0,94 -73,167 -166,167 -84,0 -167,-73 -167,-167 0,-93 83,-166 167,-166 93,0 166,73 166,166z"/>
    <line class="fil9 str5" x1="13205" y1="14406" x2="13205" y2= "17510" />
    <path class="fil11" d="M12350 17625l0 667 -1197 0 0 -667 656 0 -146 0 0 198 156 0 0 0 240 0 0 0 146 0 0 -198 -105 0 250 0 0 0zm-875 0l0 198 -177 0 0 -198 177 0z"/>
    <polygon class="fil3" points="11757,18292 11757,18563 12153,18563 12153,18292 "/>
    <path class="fil16" d="M12444 17510c0,94 -73,167 -166,167 -94,0 -167,-73 -167,-167 0,-93 73,-166 167,-166 93,0 166,73 166,166z"/>
    <path class="fil16" d="M11746 17500c0,94 -73,167 -166,167 -94,0 -167,-73 -167,-167 0,-94 73,-167 167,-167 93,0 166,73 166,167z"/>
    <path class="fil16" d="M11392 17500c0,94 -73,167 -167,167 -93,0 -166,-73 -166,-167 0,-94 73,-167 166,-167 94,0 167,73 167,167z"/>
    <polyline class="fil9 str5" points="11225,17500 11225,17146 10830,16750 "/>
    <polyline class="fil9 str5" points="11923,14406 11923,16333 11767,16479 10830,16479 "/>
    <path class="fil17" d="M11298 16698c0,250 -208,458 -468,458 -250,0 -459,-208 -459,-458 0,-260 209,-469 459,-469 260,0 468,209 468,469z"/>
    <path class="fil8" d="M11184 16698c0,187 -156,344 -354,344 -188,0 -344,-157 -344,-344 0,-198 156,-344 344,-344 198,0 354,146 354,344z"/>
    <line class="fil9 str6" x1="11121" y1="16698" x2="10548" y2= "16698" />
    <line class="fil9 str6" x1="10830" y1="16406" x2="10830" y2= "16979" />
    <polyline class="fil9 str5" points="11580,17594 11580,17063 12382,16260 12382,14510 "/>
    <polygon class="fil11" points="13330,15271 13330,15417 13090,15417 13090,15271 "/>
    <polygon class="fil11" points="12507,15271 12507,15417 12267,15417 12267,15271 "/>
    <polygon class="fil11" points="13330,16583 13330,16719 13090,16719 13090,16583 "/>
    <polygon class="fil11" points="12507,16583 12507,16719 12267,16719 12267,16583 "/>
    <polygon class="fil11" points="12913,16573 12913,16719 12673,16719 12673,16573 "/>
    <polygon class="fil3" points="13715,15417 13715,16583 12173,16583 12173,15417 "/>
    <polygon class="fil11" points="12923,15271 12923,15417 12684,15417 12684,15271 "/>
    <path class="fil3" d="M10840 17490l0 458c0,62 -62,115 -125,115l-646 0c-62,0 -125,-53 -125,-115l0 -458c0,-63 63,-125 125,-125l646 0c63,0 125,62 125,125z"/>
    <path class="fil11" d="M10736 17719c0,73 -52,135 -136,135 -72,0 -135,-62 -135,-135 0,-84 63,-146 135,-146 84,0 136,62 136,146z"/>
    <path class="fil11" d="M10309 17719c0,73 -63,135 -136,135 -73,0 -135,-62 -135,-135 0,-84 62,-146 135,-146 73,0 136,62 136,146z"/>
   </g>
   <g id="Raspberry">
    <path class="fil18" d="M14705 7260l0 4636c0,271 -230,500 -500,500l-6750 0c-271,0 -490,-229 -490,-500l0 -4636c0,-270 219,-489 490,-489l6750 0c270,0 500,219 500,489z"/>
    <polygon class="fil19" points="10340,8500 10340,10094 8757,10094 8757,8500 "/>
    <polygon class="fil20" points="10267,8573 10267,10021 8830,10021 8830,8573 "/>
    <path class="fil20" d="M10361 7198l0 750 -2813 0 0 -750 2813 0zm-136 240c0,52 -52,93 -104,93 -52,0 -93,-41 -93,-93 0,-63 41,-105 93,-105 52,0 104,42 104,105zm0 281c0,52 -52,94 -104,94 -52,0 -93,-42 -93,-94 0,-63 41,-104 93,-104 52,0 104,41 104,104zm-302 -281c0,52 -41,93 -93,93 -52,0 -105,-41 -105,-93 0,-63 53,-105 105,-105 52,0 93,42 93,105zm0 281c0,52 -41,94 -93,94 -52,0 -105,-42 -105,-94 0,-63 53,-104 105,-104 52,0 93,41 93,104zm-281 -281c0,52 -42,93 -94,93 -62,0 -104,-41 -104,-93 0,-63 42,-105 104,-105 52,0 94,42 94,105zm0 281c0,52 -42,94 -94,94 -62,0 -104,-42 -104,-94 0,-63 42,-104 104,-104 52,0 94,41 94,104zm-292 -281c0,52 -52,93 -104,93 -52,0 -93,-41 -93,-93 0,-63 41,-105 93,-105 52,0 104,42 104,105zm0 281c0,52 -52,94 -104,94 -52,0 -93,-42 -93,-94 0,-63 41,-104 93,-104 52,0 104,41 104,104zm-302 -281c0,52 -41,93 -93,93 -52,0 -105,-41 -105,-93 0,-63 53,-105 105,-105 52,0 93,42 93,105zm0 281c0,52 -41,94 -93,94 -52,0 -105,-42 -105,-94 0,-63 53,-104 105,-104 52,0 93,41 93,104zm-281 -281c0,52 -42,93 -94,93 -52,0 -104,-41 -104,-93 0,-63 52,-105 104,-105 52,0 94,42 94,105zm0 281c0,52 -42,94 -94,94 -52,0 -104,-42 -104,-94 0,-63 52,-104 104,-104 52,0 94,41 94,104zm-292 -281c0,52 -41,93 -104,93 -52,0 -93,-41 -93,-93 0,-63 41,-105 93,-105 63,0 104,42 104,105zm0 281c0,52 -41,94 -104,94 -52,0 -93,-42 -93,-94 0,-63 41,-104 93,-104 63,0 104,41 104,104zm-302 -281c0,52 -41,93 -93,93 -52,0 -94,-41 -94,-93 0,-63 41,-105 94,-105 52,0 93,42 93,105zm0 281c0,52 -41,94 -93,94 -52,0 -94,-42 -94,-94 0,-63 41,-104 94,-104 52,0 93,41 93,104zm-281 -281c0,52 -42,93 -94,93 -52,0 -104,-41 -104,-93 0,-63 52,-105 104,-105 52,0 94,42 94,105zm0 281c0,52 -42,94 -94,94 -52,0 -104,-42 -104,-94 0,-63 52,-104 104,-104 52,0 94,41 94,104z"/>
    <polygon class="fil21" points="14705,7260 14705,8531 13538,8531 13538,7260 "/>
    <polygon class="fil19" points="14705,7260 14705,8531 15059,8531 15059,7260 "/>
    <polygon class="fil4" points="14861,7583 14861,7729 14340,7729 14340,7583 "/>
    <polygon class="fil4" points="14861,8063 14861,8208 14340,8208 14340,8063 "/>
    <polygon class="fil21" points="14705,8865 14705,10135 13538,10135 13538,8865 "/>
    <polygon class="fil19" points="14705,8865 14705,10135 15059,10135 15059,8865 "/>
    <polygon class="fil4" points="14861,9177 14861,9333 14340,9333 14340,9177 "/>
    <polygon class="fil4" points="14861,9656 14861,9813 14340,9813 14340,9656 "/>
    <polygon class="fil21" points="14705,10490 14705,12083 13153,12083 13153,10490 "/>
    <polygon class="fil19" points="14705,10490 14705,12083 14882,12083 14882,10490 "/>
    <polygon class="fil19" points="12653,8510 12653,9302 11850,9302 11850,8510 "/>
    <polygon class="fil20" points="12580,8583 12580,9229 11923,9229 11923,8583 "/>
    <polygon class="fil20" points="7569,8635 7569,10531 7111,10531 7111,8635 "/>
    <polygon class="fil21" points="7486,8719 7486,10438 7194,10438 7194,8719 "/>
    <polygon class="fil20" points="11632,10333 11632,12229 11173,12229 11173,10333 "/>
    <polygon class="fil21" points="11548,10417 11548,12146 11257,12146 11257,10417 "/>
    <polygon class="fil20" points="12715,11115 12715,12375 11986,12375 11986,11115 "/>
    <polygon class="fil3" points="12548,12594 12548,12375 12153,12375 12153,12594 "/>
    <polygon class="fil21" points="12569,11781 12569,12240 12132,12240 12132,11781 "/>
    <polygon class="fil21" points="10830,12396 9007,12396 9007,11469 10830,11469 "/>
    <polygon class="fil19" points="10830,12396 9007,12396 9007,12688 10830,12688 "/>
    <polygon class="fil4" points="10611,12521 10382,12521 10382,12104 10611,12104 "/>
    <polygon class="fil4" points="9413,12521 9194,12521 9194,12104 9413,12104 "/>
    <polygon class="fil3" points="6965,10125 6965,9042 6736,9042 6736,10125 "/>
   </g>
   <path class="fil9 str7" d="M10392 18063l0 531c0,104 11,156 73,229 73,73 135,83 240,83l5593 0c115,-10 146,-10 271,-93 94,-115 115,-157 125,-303l0 -562"/>
   <path class="fil5 str8" d="M17111 14021c-136,-240 -229,-375 -458,-615 -230,-250 -355,-343 -813,-646l0 0c-833,-687 -1490,-1177 -2510,-1697 -792,-313 -1021,-407 -1927,-563l0 1552c906,42 1437,63 2572,240 782,114 907,177 1865,468l0 0c521,157 854,271 1292,532 448,260 583,385 1000,729l-1021 0 0 0z"/>
   <polygon class="fil19" points="6965,11240 6965,11719 6798,11719 6798,11240 "/>
   <polygon class="fil19" points="6955,20469 6955,21646 6819,21646 6819,20469 "/>
   <path class="fil3" d="M6798 11250l0 438c0,72 -52,125 -125,125l-218 0c-73,0 -125,-53 -125,-125l0 -438c0,-62 52,-125 125,-125l218 0c73,0 125,63 125,125z"/>
   <path class="fil9 str9" d="M6330 11458l-386 0c-104,0 -166,21 -229,115 -73,104 -83,198 -94,365l0 1510c11,167 21,260 136,375 104,94 166,94 354,104 198,21 291,31 375,125 104,115 104,219 104,365l0 2948c0,177 0,302 -115,427 -83,104 -198,114 -343,114 -177,11 -292,21 -396,115 -115,104 -115,219 -115,385l0 2052c21,167 21,229 104,407 105,145 157,187 302,198l84 0"/>
   <path class="fil3" d="M15548 8833l0 1334c0,62 -52,125 -125,125l-458 0c-62,0 -125,-63 -125,-125l0 -1334c0,-73 63,-125 125,-125l458 0c73,0 125,52 125,125z"/>
   <path class="fil3" d="M6819 20396l0 1333c0,63 -62,125 -125,125l-458 0c-73,0 -125,-62 -125,-125l0 -1333c0,-73 52,-125 125,-125l458 0c63,0 125,52 125,125z"/>
   <path class="fil9 str9" d="M9330 14771c-209,0 -250,-52 -334,-156 -104,-105 -104,-209 -104,-355l0 -604c0,0 11,-218 167,-312 114,-63 323,-73 416,-73 1011,10 5302,0 5959,0 166,-11 281,-11 396,-104 114,-115 104,-229 104,-386l0 -2687c-11,-167 -11,-219 -94,-406 -104,-136 -156,-178 -302,-198l0 0"/>
   <polygon class="fil19" points="9746,14542 9746,15021 9663,15021 9663,14542 "/>
   <path class="fil3" d="M9663 14552l0 438c0,73 -52,125 -125,125l-219 0c-73,0 -125,-52 -125,-125l0 -438c0,-62 52,-125 125,-125l219 0c73,0 125,63 125,125z"/>
  </g>
 </g>
</svg>
