<?xml version="1.0" encoding="UTF-8"?>
<!DOCTYPE svg PUBLIC "-//W3C//DTD SVG 1.1//EN" "http://www.w3.org/Graphics/SVG/1.1/DTD/svg11.dtd">
<!-- Creator: CorelDRAW X6 -->
<svg xmlns="http://www.w3.org/2000/svg" xml:space="preserve" width="9.25197in" height="8.26772in" version="1.1" style="shape-rendering:geometricPrecision; text-rendering:geometricPrecision; image-rendering:optimizeQuality; fill-rule:evenodd; clip-rule:evenodd"
viewBox="0 0 9252 8268"
 xmlns:xlink="http://www.w3.org/1999/xlink">
 <defs>
  <style type="text/css">
   <![CDATA[
    .str3 {stroke:#1A1A1A;stroke-width:3}
    .str2 {stroke:#999999;stroke-width:29.5276}
    .str1 {stroke:#E3B14D;stroke-width:29.5276}
    .str0 {stroke:#345B82;stroke-width:39.3701}
    .str4 {stroke:#1A1A1A;stroke-width:78.7402;stroke-linecap:round;stroke-linejoin:round}
    .str6 {stroke:#4D4D4D;stroke-width:78.7402;stroke-linecap:round;stroke-linejoin:round}
    .str8 {stroke:gray;stroke-width:78.7402;stroke-linecap:round;stroke-linejoin:round}
    .str5 {stroke:#B57508;stroke-width:78.7402;stroke-linecap:round;stroke-linejoin:round}
    .str7 {stroke:#CCCCCC;stroke-width:78.7402;stroke-linecap:round;stroke-linejoin:round}
    .fil8 {fill:none}
    .fil10 {fill:black}
    .fil15 {fill:#009933}
    .fil14 {fill:#1A1A1A}
    .fil11 {fill:#32366B}
    .fil1 {fill:#333333}
    .fil2 {fill:#336699}
    .fil13 {fill:#345B82}
    .fil16 {fill:#666666}
    .fil0 {fill:gray}
    .fil6 {fill:#867903}
    .fil3 {fill:#999999}
    .fil9 {fill:#B3B3B3}
    .fil4 {fill:#CCCCCC}
    .fil7 {fill:#E3B14D}
    .fil17 {fill:#E6E6E6}
    .fil5 {fill:whitesmoke}
    .fil18 {fill:red}
    .fil12 {fill:white}
   ]]>
  </style>
 </defs>
 <g id="Layer_x0020_1">
  <metadata id="CorelCorpID_0Corel-Layer"/>
  <g id="_109181728">
   <g>
    <polygon class="fil0" points="4711,6833 4711,7226 4500,7226 4500,6833 "/>
    <path class="fil1" d="M5643 7936l0 -615c0,-52 -54,-95 -119,-95l-1852 0c-66,0 -119,43 -119,95l0 615c0,51 53,94 119,94l1852 0c65,0 119,-43 119,-94z"/>
   </g>
   <g>
    <polygon class="fil0" points="4711,1435 4711,1042 4500,1042 4500,1435 "/>
    <path class="fil1" d="M5643 333l0 615c0,52 -54,94 -119,94l-1852 0c-66,0 -119,-42 -119,-94l0 -615c0,-52 53,-94 119,-94l1852 0c65,0 119,42 119,94z"/>
   </g>
   <rect class="fil2 str0" x="260" y="1174" width="5898" height="5898" rx="591" ry="591"/>
   <g>
    <circle class="fil3" cx="780" cy="1687" r="217"/>
    <polygon class="fil4" points="780,1549 840,1583 900,1618 900,1687 900,1756 840,1791 780,1826 720,1791 661,1756 661,1687 661,1618 720,1583 "/>
    <circle class="fil0" cx="780" cy="1687" r="79"/>
    <circle class="fil5" cx="780" cy="1687" r="65"/>
   </g>
   <g>
    <circle class="fil3" cx="5623" cy="1687" r="217"/>
    <polygon class="fil4" points="5623,1549 5683,1583 5743,1618 5743,1687 5743,1756 5683,1791 5623,1826 5563,1791 5503,1756 5503,1687 5503,1618 5563,1583 "/>
    <circle class="fil0" cx="5623" cy="1687" r="79"/>
    <circle class="fil5" cx="5623" cy="1687" r="65"/>
   </g>
   <g>
    <circle class="fil3" cx="780" cy="6569" r="217"/>
    <polygon class="fil4" points="780,6431 840,6465 900,6500 900,6569 900,6638 840,6673 780,6707 720,6673 661,6638 661,6569 661,6500 720,6465 "/>
    <circle class="fil0" cx="780" cy="6569" r="79"/>
    <circle class="fil5" cx="780" cy="6569" r="65"/>
   </g>
   <g>
    <circle class="fil3" cx="5623" cy="6569" r="217"/>
    <polygon class="fil4" points="5623,6431 5683,6465 5743,6500 5743,6569 5743,6638 5683,6673 5623,6707 5563,6673 5503,6638 5503,6569 5503,6500 5563,6465 "/>
    <circle class="fil0" cx="5623" cy="6569" r="79"/>
    <circle class="fil5" cx="5623" cy="6569" r="65"/>
   </g>
   <g>
    <path class="fil6" d="M3981 4376l1353 0c73,0 133,59 133,132l0 1606c0,73 -60,133 -133,133l-1353 0c-73,0 -133,-60 -133,-133l0 -1606c0,-73 60,-132 133,-132z"/>
    <path class="fil7" d="M4048 4451l1219 0c65,0 119,53 119,119l0 1482c0,66 -54,120 -119,120l-1219 0c-65,0 -119,-54 -119,-120l0 -1482c0,-66 54,-119 119,-119zm21 28l1177 0c64,0 116,52 116,115l0 1434c0,64 -52,116 -116,116l-1177 0c-64,0 -116,-52 -116,-116l0 -1434c0,-63 52,-115 116,-115z"/>
    <path class="fil7" d="M4093 4781c32,0 59,26 59,59 0,33 -27,59 -59,59 -33,0 -60,-26 -60,-59 0,-33 27,-59 60,-59z"/>
    <path class="fil7" d="M4093 4617c32,0 59,26 59,59 0,33 -27,60 -59,60 -33,0 -60,-27 -60,-60 0,-33 27,-59 60,-59z"/>
    <path class="fil7" d="M4093 4944c32,0 59,27 59,60 0,32 -27,59 -59,59 -33,0 -60,-27 -60,-59 0,-33 27,-60 60,-60z"/>
    <path class="fil7" d="M4093 5240c32,0 59,27 59,60 0,33 -27,59 -59,59 -33,0 -60,-26 -60,-59 0,-33 27,-60 60,-60z"/>
    <path class="fil7" d="M4093 5404c32,0 59,27 59,60 0,32 -27,59 -59,59 -33,0 -60,-27 -60,-59 0,-33 27,-60 60,-60z"/>
    <path class="fil7" d="M5211 4617c33,0 59,26 59,59 0,33 -26,60 -59,60 -33,0 -59,-27 -59,-60 0,-33 26,-59 59,-59z"/>
    <path class="fil7" d="M5039 4617c32,0 59,26 59,59 0,33 -27,60 -59,60 -33,0 -60,-27 -60,-60 0,-33 27,-59 60,-59z"/>
    <polyline class="fil8 str1" points="4093,4663 4197,4564 5118,4564 5211,4663 "/>
    <polyline class="fil8 str1" points="4093,4840 4264,4673 5039,4676 "/>
    <path class="fil7" d="M5207 4944c33,0 59,27 59,60 0,32 -26,59 -59,59 -33,0 -59,-27 -59,-59 0,-33 26,-60 59,-60z"/>
    <line class="fil8 str1" x1="4093" y1="5004" x2="5207" y2= "5004" />
    <path class="fil9" d="M5250 5312l238 0 0 430 -238 0 0 -234 0 49 68 0 0 -53 1 0 0 -88 -1 0 0 -51 -68 0 0 36 0 -89zm0 314l68 0 0 64 -68 0 0 -64z"/>
    <polygon class="fil10" points="5488,5527 5586,5527 5586,5384 5488,5384 "/>
    <path class="fil7" d="M5207 5278c33,0 59,26 59,59 0,33 -26,60 -59,60 -33,0 -59,-27 -59,-60 0,-33 26,-59 59,-59z"/>
    <path class="fil7" d="M5204 5529c33,0 59,26 59,59 0,33 -26,60 -59,60 -33,0 -60,-27 -60,-60 0,-33 27,-59 60,-59z"/>
    <path class="fil7" d="M5204 5657c33,0 59,26 59,59 0,33 -26,59 -59,59 -33,0 -60,-26 -60,-59 0,-33 27,-59 60,-59z"/>
    <polyline class="fil8 str1" points="5204,5716 5076,5716 4936,5856 "/>
    <polyline class="fil8 str1" points="4093,5464 4783,5465 4838,5520 4838,5856 "/>
    <path class="fil11" d="M4914 5691c92,0 166,74 166,165 0,92 -74,166 -166,166 -91,0 -166,-74 -166,-166 0,-91 75,-165 166,-165z"/>
    <path class="fil12" d="M4914 5732c69,0 125,56 125,124 0,69 -56,125 -125,125 -68,0 -124,-56 -124,-125 0,-68 56,-124 124,-124z"/>
    <line class="fil8 str2" x1="4914" y1="5754" x2="4914" y2= "5959" />
    <line class="fil8 str2" x1="4812" y1="5856" x2="5017" y2= "5856" />
    <polyline class="fil8 str1" points="5239,5588 5048,5588 4758,5299 4128,5300 "/>
    <polygon class="fil9" points="4403,4960 4455,4960 4455,5047 4403,5047 "/>
    <polygon class="fil9" points="4403,5256 4455,5256 4455,5343 4403,5343 "/>
    <polygon class="fil9" points="4872,4960 4925,4960 4925,5047 4872,5047 "/>
    <polygon class="fil9" points="4872,5255 4925,5255 4925,5342 4872,5342 "/>
    <polygon class="fil9" points="4872,5110 4924,5110 4924,5197 4872,5197 "/>
    <polygon class="fil10" points="4455,4822 4873,4822 4873,5376 4455,5376 "/>
    <polygon class="fil9" points="4403,5106 4455,5106 4455,5193 4403,5193 "/>
    <path class="fil10" d="M4052 6165l0 -163c0,-24 32,-44 72,-44l380 0c40,0 72,20 72,44l0 163c0,24 -32,44 -72,44l-380 0c-40,0 -72,-20 -72,-44z"/>
    <path class="fil9" d="M4087 6085c0,-27 22,-49 49,-49 27,0 49,22 49,49 0,27 -22,49 -49,49 -27,0 -49,-22 -49,-49z"/>
    <path class="fil9" d="M4262 6085c0,-27 21,-49 48,-49 27,0 49,22 49,49 0,27 -22,49 -49,49 -27,0 -48,-22 -48,-49z"/>
    <path class="fil10" d="M4386 6165l0 -163c0,-24 20,-44 45,-44l231 0c24,0 44,20 44,44l0 163c0,24 -20,44 -44,44l-231 0c-25,0 -45,-20 -45,-44z"/>
    <path class="fil9" d="M4422 6085c0,-27 22,-49 49,-49 26,0 48,22 48,49 0,27 -22,49 -48,49 -27,0 -49,-22 -49,-49z"/>
    <path class="fil9" d="M4576 6085c0,-27 22,-49 49,-49 27,0 49,22 49,49 0,27 -22,49 -49,49 -27,0 -49,-22 -49,-49z"/>
   </g>
   <circle class="fil13 str0" cx="1765" cy="6448" r="162"/>
   <path class="fil14 str3" d="M5294 6476l-427 0c-22,0 -39,-18 -39,-39l0 -148c0,-21 17,-39 39,-39l427 0c21,0 39,18 39,39l0 148c0,21 -18,39 -39,39z"/>
   <path class="fil8 str4" d="M1726 6493c0,155 -26,337 281,341 332,8 1293,0 1358,1 463,1 1402,-1 1566,-1 50,-3 84,-5 116,-39 35,-37 32,-76 32,-134l0 -295"/>
   <rect class="fil13 str0" x="3883" y="3529" width="250" height="408" rx="591" ry="591"/>
   <path class="fil8 str5" d="M4609 6209c5,71 -56,131 -121,131 -145,-1 -533,-1 -544,-2 -135,-10 -217,-69 -217,-257l0 -2006c0,-271 196,-244 248,-243"/>
   <path class="fil8 str6" d="M4314 6209c4,71 -57,131 -121,130 -145,0 -375,0 -387,-1 -135,-10 -217,-69 -217,-257l0 -2144c0,-242 177,-244 228,-243 72,1 118,2 149,2"/>
   <path class="fil8 str7" d="M1850 6382c462,1 1972,-1 2136,-1 50,-3 84,-4 116,-38 35,-38 32,-77 32,-135l0 1"/>
   <path class="fil8 str8" d="M1852 6483c406,1 856,-3 903,-3 463,1 1402,-1 1566,-1 50,-3 84,-4 116,-38 34,-37 32,-77 32,-134l0 -98"/>
   <g id="Raspberry_x0020_Pi">
    <g id="Raspberry">
     <path class="fil15" d="M5434 1963l0 1335c0,78 -64,142 -143,142l-1962 0c-78,0 -143,-64 -143,-142l0 -1335c0,-78 65,-142 143,-142l1962 0c79,0 143,64 143,142z"/>
     <polygon class="fil4" points="4154,2313 4154,2822 3645,2822 3645,2313 "/>
     <polygon class="fil1" points="4131,2336 4131,2799 3669,2799 3669,2336 "/>
     <path class="fil1" d="M4211 1914l0 242 -899 0 0 -242 899 0zm-45 77c0,17 -14,31 -32,31 -17,0 -31,-14 -31,-31 0,-18 14,-32 31,-32 18,0 32,14 32,32zm0 90c0,18 -14,32 -32,32 -17,0 -31,-14 -31,-32 0,-17 14,-31 31,-31 18,0 32,14 32,31zm-95 -90c0,17 -14,31 -31,31 -18,0 -32,-14 -32,-31 0,-18 14,-32 32,-32 17,0 31,14 31,32zm0 90c0,18 -14,32 -31,32 -18,0 -32,-14 -32,-32 0,-17 14,-31 32,-31 17,0 31,14 31,31zm-90 -90c0,17 -14,31 -32,31 -17,0 -31,-14 -31,-31 0,-18 14,-32 31,-32 18,0 32,14 32,32zm0 90c0,18 -14,32 -32,32 -17,0 -31,-14 -31,-32 0,-17 14,-31 31,-31 18,0 32,14 32,31zm-95 -90c0,17 -14,31 -31,31 -18,0 -32,-14 -32,-31 0,-18 14,-32 32,-32 17,0 31,14 31,32zm0 90c0,18 -14,32 -31,32 -18,0 -32,-14 -32,-32 0,-17 14,-31 32,-31 17,0 31,14 31,31zm-94 -90c0,17 -14,31 -32,31 -17,0 -31,-14 -31,-31 0,-18 14,-32 31,-32 18,0 32,14 32,32zm0 90c0,18 -14,32 -32,32 -17,0 -31,-14 -31,-32 0,-17 14,-31 31,-31 18,0 32,14 32,31zm-91 -90c0,17 -14,31 -31,31 -18,0 -32,-14 -32,-31 0,-18 14,-32 32,-32 17,0 31,14 31,32zm0 90c0,18 -14,32 -31,32 -18,0 -32,-14 -32,-32 0,-17 14,-31 32,-31 17,0 31,14 31,31zm-94 -90c0,17 -14,31 -32,31 -17,0 -31,-14 -31,-31 0,-18 14,-32 31,-32 18,0 32,14 32,32zm0 90c0,18 -14,32 -32,32 -17,0 -31,-14 -31,-32 0,-17 14,-31 31,-31 18,0 32,14 32,31zm-95 -90c0,17 -14,31 -31,31 -18,0 -32,-14 -32,-31 0,-18 14,-32 32,-32 17,0 31,14 31,32zm0 90c0,18 -14,32 -31,32 -18,0 -32,-14 -32,-32 0,-17 14,-31 32,-31 17,0 31,14 31,31zm-90 -90c0,17 -14,31 -32,31 -17,0 -31,-14 -31,-31 0,-18 14,-32 31,-32 18,0 32,14 32,32zm0 90c0,18 -14,32 -32,32 -17,0 -31,-14 -31,-32 0,-17 14,-31 31,-31 18,0 32,14 32,31z"/>
     <polygon class="fil9" points="5548,2262 5548,2670 5177,2670 5177,2262 "/>
     <polygon class="fil4" points="5548,2262 5548,2670 5664,2670 5664,2262 "/>
     <polygon class="fil16" points="5598,2364 5598,2414 5432,2414 5432,2364 "/>
     <polygon class="fil16" points="5598,2518 5598,2567 5432,2567 5432,2518 "/>
     <polygon class="fil9" points="5548,2865 5548,3376 5053,3376 5053,2865 "/>
     <polygon class="fil4" points="5548,2865 5548,3376 5606,3376 5606,2865 "/>
     <polygon class="fil4" points="4891,2316 4891,2570 4637,2570 4637,2316 "/>
     <polygon class="fil1" points="4868,2339 4868,2547 4660,2547 4660,2339 "/>
     <polygon class="fil1" points="3382,2327 3382,2934 3235,2934 3235,2327 "/>
     <polygon class="fil9" points="3355,2355 3355,2906 3262,2906 3262,2355 "/>
     <polygon class="fil1" points="4565,2777 4565,3384 4418,3384 4418,2777 "/>
     <polygon class="fil9" points="4538,2805 4538,3356 4445,3356 4445,2805 "/>
     <polygon class="fil9" points="4309,3533 3725,3533 3725,3234 4309,3234 "/>
     <polygon class="fil4" points="4309,3533 3725,3533 3725,3626 4309,3626 "/>
     <polygon class="fil16" points="4238,3572 4167,3572 4167,3439 4238,3439 "/>
     <polygon class="fil16" points="3857,3572 3786,3572 3786,3439 3857,3439 "/>
     <polygon class="fil1" points="3186,2804 3186,2457 3072,2457 3072,2804 "/>
     <polygon class="fil10" points="3072,2804 3072,2457 2987,2457 2987,2804 "/>
    </g>
    <g id="Rpi">
     <path class="fil17" d="M4401 2249c-51,-50 -81,-32 -142,-21 -8,54 7,76 35,97l-44 87c-49,80 52,203 131,213 39,6 63,-18 90,-33 42,-33 33,-18 60,-66 29,-81 34,-59 -26,-183 16,-17 78,-82 26,-110 -23,-14 -73,-17 -104,-2 -2,1 -4,3 -6,4l-20 14z"/>
     <path class="fil15" d="M4365 2323c-3,-22 0,-15 -10,-29l-19 -21c36,14 18,18 53,20 5,-94 -178,-64 -89,18 27,25 36,18 65,12z"/>
     <path class="fil15" d="M4415 2287l11 4c15,-1 3,2 18,-3 16,-6 16,-11 38,-17 -57,48 -39,19 -46,51 34,16 65,7 83,-30 37,-73 -113,-65 -104,-5z"/>
     <path class="fil15" d="M4361 2472c24,-27 42,-97 -22,-84 -41,8 -73,92 22,84z"/>
     <path class="fil15" d="M4375 2479c-55,26 -13,92 38,70 50,-21 17,-96 -38,-70z"/>
     <path class="fil15" d="M4475 2475c30,-43 9,-98 -39,-85 -42,12 -40,89 39,85z"/>
     <path class="fil15" d="M4454 2566c41,12 60,-26 55,-71 -24,0 -35,3 -50,20 -35,43 -5,50 -5,51z"/>
     <path class="fil15" d="M4328 2561c0,0 33,-4 -3,-49 -11,-15 -20,-19 -42,-18 -15,39 11,77 45,67z"/>
     <path class="fil15" d="M4359 2356c21,33 57,37 77,3 -21,-24 -67,-36 -77,-3z"/>
     <path class="fil15" d="M4355 2579c-7,30 52,49 79,1 -31,-14 -45,-16 -79,-1z"/>
     <path class="fil15" d="M4258 2482c20,-12 11,15 24,-26 7,-20 2,-26 -2,-40 -36,16 -28,31 -22,66z"/>
     <path class="fil15" d="M4519 2487c5,-5 7,-2 12,-15 5,-12 6,-13 3,-26 -5,-19 -15,-22 -26,-27 -5,35 -5,43 11,68z"/>
     <path class="fil15" d="M4506 2399c-8,-37 -16,-45 -55,-53 11,34 18,35 55,53z"/>
     <path class="fil15" d="M4286 2390c34,-14 44,-18 58,-47 -41,3 -49,9 -58,47z"/>
    </g>
   </g>
   <path class="fil5" d="M6179 3723c-105,-188 -211,-289 -386,-407l0 0c-213,-127 -705,-382 -1304,-485l0 498c393,-88 780,-112 1304,-13l0 0c291,129 498,242 732,407l-346 0z"/>
   <g id="Webcam">
    <rect class="fil15" x="6597" y="3718" width="45.2923" height="732.094" rx="29" ry="24"/>
    <rect class="fil14" x="5745" y="3592" width="852" height="984" rx="25" ry="71"/>
    <rect class="fil17" x="6207" y="3723" width="252" height="718" rx="7" ry="51"/>
    <polygon class="fil14" points="6680,4011 6723,4025 6723,4142 6680,4157 6680,4191 6640,4205 6640,3963 6680,3977 "/>
    <polygon class="fil18" points="6647,4295 6670,4306 6670,4335 6647,4345 "/>
   </g>
  </g>
 </g>
</svg>
